<?xml version="1.0" encoding="UTF-8" standalone="no"?>
<!-- Created with Inkscape (http://www.inkscape.org/) -->

<svg
   width="28.416042mm"
   height="25.669762mm"
   viewBox="0 0 28.416042 25.669762"
   version="1.1"
   id="svg195345"
   inkscape:version="1.1.1 (3bf5ae0d25, 2021-09-20)"
   sodipodi:docname="Возврат из режима.svg"
   xmlns:inkscape="http://www.inkscape.org/namespaces/inkscape"
   xmlns:sodipodi="http://sodipodi.sourceforge.net/DTD/sodipodi-0.dtd"
   xmlns="http://www.w3.org/2000/svg"
   xmlns:svg="http://www.w3.org/2000/svg">
  <sodipodi:namedview
     id="namedview195347"
     pagecolor="#ffffff"
     bordercolor="#666666"
     borderopacity="1.0"
     inkscape:pageshadow="2"
     inkscape:pageopacity="0.0"
     inkscape:pagecheckerboard="0"
     inkscape:document-units="mm"
     showgrid="false"
     inkscape:zoom="0.74118967"
     inkscape:cx="103.21245"
     inkscape:cy="200.35357"
     inkscape:window-width="1920"
     inkscape:window-height="1017"
     inkscape:window-x="-8"
     inkscape:window-y="-8"
     inkscape:window-maximized="1"
     inkscape:current-layer="layer1" />
  <defs
     id="defs195342" />
  <g
     inkscape:label="Слой 1"
     inkscape:groupmode="layer"
     id="layer1"
     transform="translate(-77.890536,-95.684353)">
    <ellipse
       style="fill:#b3b3b3;fill-opacity:1;stroke-width:4.99999;stop-color:#000000"
       id="path11723-3-7-5-3-7-6-0"
       cx="90.788536"
       cy="108.51923"
       rx="12.898"
       ry="12.834881" />
    <path
       style="fill:#ce6c2b;fill-opacity:1;stroke-width:1"
       d="m 91.53686,117.36797 c -0.24697,-0.0488 -0.42157,-0.14108 -0.57725,-0.30498 -0.42963,-0.4523 -0.32293,-1.22651 0.21488,-1.55908 l 0.22478,-0.13899 4.7283,-0.0241 4.72831,-0.0241 0.36875,-0.10532 c 2.83861,-0.81075 3.948,-4.0995 2.16466,-6.41707 -0.51986,-0.6756 -1.29169,-1.17604 -2.21866,-1.43855 l -0.36085,-0.10219 -7.27135,-0.0135 c -3.99923,-0.007 -7.27134,0.003 -7.27134,0.0228 0,0.0199 0.67415,0.71011 1.49811,1.53378 1.32265,1.32217 1.50685,1.52388 1.57272,1.72219 0.14129,0.42541 -0.0225,0.89887 -0.40204,1.16187 -0.17623,0.12213 -0.23052,0.13505 -0.56757,0.13505 -0.34415,0 -0.38857,-0.0112 -0.58012,-0.14608 -0.3004,-0.21155 -4.85994,-4.80184 -4.95996,-4.99342 -0.11405,-0.21843 -0.11425,-0.70279 -3.9e-4,-0.92188 0.0461,-0.0887 1.17587,-1.25463 2.51057,-2.5909 1.74213,-1.74416 2.47731,-2.45054 2.60599,-2.5039 0.79578,-0.32996 1.63169,0.38949 1.40949,1.21313 -0.0532,0.19733 -0.19705,0.35643 -1.57269,1.73982 -0.83276,0.83745 -1.51411,1.5375 -1.51411,1.55568 0,0.0182 3.26173,0.0331 7.2483,0.0332 8.0296,1.9e-4 7.66122,-0.0127 8.60145,0.30179 3.23319,1.08153 4.95563,4.54297 3.85989,7.75688 -0.28521,0.83653 -0.72185,1.55883 -1.33196,2.20338 -1.08332,1.14445 -2.44247,1.78296 -4.05752,1.90616 -0.72576,0.0554 -8.76948,0.0539 -9.05039,-0.002 z"
       id="path69170" />
  </g>
</svg>
