<svg width="10" height="19" viewBox="0 0 10 19" fill="none" xmlns="http://www.w3.org/2000/svg">
<path d="M5 3C5.82843 3 6.5 2.32843 6.5 1.5C6.5 0.671573 5.82843 0 5 0C4.17157 0 3.5 0.671573 3.5 1.5C3.5 2.32843 4.17157 3 5 3Z" fill="#91A196"/>
<path d="M9.20001 9.9L7.40001 4C7.40001 3.9 7.40001 3.9 7.30001 3.8L6.70001 3.5L6.20001 3.2L5.80001 3C5.60001 3.1 5.30001 3.2 5.00001 3.2C4.70001 3.2 4.50001 3.1 4.20001 3L3.90001 3.1L3.40001 3.4L2.80001 3.7C2.80001 3.7 2.70001 3.8 2.70001 3.9L1.00001 9.9C0.900012 10.2 1.10001 10.6 1.40001 10.7C1.50001 10.7 1.50001 10.7 1.60001 10.7C1.90001 10.7 2.10001 10.5 2.20001 10.2L3.00001 7.6L3.60001 5.6L3.90001 6.4V10.2C3.80001 10.3 3.70001 10.5 3.70001 10.7V18.1C3.70001 18.5 4.00001 18.7 4.30001 18.7C4.60001 18.7 4.90001 18.4 4.90001 18.1V11.6H5.20001V18.1C5.20001 18.5 5.50001 18.7 5.80001 18.7C6.10001 18.7 6.40001 18.4 6.40001 18.1V10.7C6.40001 10.5 6.30001 10.3 6.10001 10.1V6.4L6.40001 5.6L7.00001 7.6L7.80001 10.2C7.90001 10.5 8.10001 10.7 8.40001 10.7C8.50001 10.7 8.50001 10.7 8.60001 10.7C9.10001 10.6 9.30001 10.3 9.20001 9.9Z" fill="#91A196"/>
</svg>
