<?xml version="1.0" encoding="UTF-8" standalone="no"?>
<!-- Created with Inkscape (http://www.inkscape.org/) -->

<svg
   width="44.979164mm"
   height="67.012962mm"
   viewBox="0 0 44.979164 67.012962"
   version="1.1"
   id="svg734531"
   inkscape:version="1.1.1 (3bf5ae0d25, 2021-09-20)"
   sodipodi:docname="Карточка информационная.svg"
   xmlns:inkscape="http://www.inkscape.org/namespaces/inkscape"
   xmlns:sodipodi="http://sodipodi.sourceforge.net/DTD/sodipodi-0.dtd"
   xmlns="http://www.w3.org/2000/svg"
   xmlns:svg="http://www.w3.org/2000/svg">
  <sodipodi:namedview
     id="namedview734533"
     pagecolor="#ffffff"
     bordercolor="#666666"
     borderopacity="1.0"
     inkscape:pageshadow="2"
     inkscape:pageopacity="0.0"
     inkscape:pagecheckerboard="0"
     inkscape:document-units="mm"
     showgrid="false"
     inkscape:zoom="1.4823793"
     inkscape:cx="47.558677"
     inkscape:cy="212.83351"
     inkscape:window-width="1920"
     inkscape:window-height="1017"
     inkscape:window-x="-8"
     inkscape:window-y="-8"
     inkscape:window-maximized="1"
     inkscape:current-layer="layer1" />
  <defs
     id="defs734528">
    <linearGradient
       x1="0"
       y1="0"
       x2="1"
       y2="0"
       gradientUnits="userSpaceOnUse"
       gradientTransform="matrix(12.715179,0,0,-12.715179,6222.6284,6522.7979)"
       spreadMethod="pad"
       id="linearGradient165307">
      <stop
         style="stop-opacity:1;stop-color:#8990d4"
         offset="0"
         id="stop165299" />
      <stop
         style="stop-opacity:1;stop-color:#d1d3ff"
         offset="0.603352"
         id="stop165301" />
      <stop
         style="stop-opacity:1;stop-color:#d1d3ff"
         offset="0.92030844"
         id="stop165303" />
      <stop
         style="stop-opacity:1;stop-color:#d1d3ff"
         offset="1"
         id="stop165305" />
    </linearGradient>
    <linearGradient
       x1="0"
       y1="0"
       x2="1"
       y2="0"
       gradientUnits="userSpaceOnUse"
       gradientTransform="matrix(91.234039,-166.8085,-166.8085,-91.234039,6334.7441,6683.8936)"
       spreadMethod="pad"
       id="linearGradient165353">
      <stop
         style="stop-opacity:1;stop-color:#ffffff"
         offset="0"
         id="stop165347" />
      <stop
         style="stop-opacity:1;stop-color:#ffffff"
         offset="0.37335506"
         id="stop165349" />
      <stop
         style="stop-opacity:1;stop-color:#e1e1e1"
         offset="1"
         id="stop165351" />
    </linearGradient>
    <clipPath
       clipPathUnits="userSpaceOnUse"
       id="clipPath165363">
      <path
         d="M 0,8296.851 H 9810.383 V 0 H 0 Z"
         id="path165361" />
    </clipPath>
    <clipPath
       clipPathUnits="userSpaceOnUse"
       id="clipPath166031">
      <path
         d="m 6445.875,6515.95 v -1.167 -0.583 -0.291 -0.293 -0.581 -0.293 -0.29 -0.293 -0.291 -0.29 -0.293 -0.333 -0.335 -0.332 -0.335 -0.332 -0.335 -0.333 -0.332 -0.335 -0.332 -0.335 -0.332 -0.333 -0.335 -0.667 h 46.488 v 0.667 0.335 0.333 0.332 0.335 0.332 0.335 0.332 0.333 0.335 0.332 0.335 0.332 0.335 0.333 0.293 0.29 0.291 0.293 0.29 0.293 0.581 0.293 0.291 0.583 1.167 z"
         id="path166029" />
    </clipPath>
  </defs>
  <g
     inkscape:label="Слой 1"
     inkscape:groupmode="layer"
     id="layer1"
     transform="translate(-51.16829,-74.65578)">
    <g
       id="g165335"
       transform="matrix(0.35277777,0,0,-0.35277777,-2177.8136,2435.5314)">
      <g
         id="g165337">
        <g
           id="g165343">
          <g
             id="g165345">
            <path
               d="m 6319.666,6503.578 h 124.916 v 187.375 h -124.916 z"
               style="fill:url(#linearGradient165353);stroke:none"
               id="path165355" />
          </g>
        </g>
      </g>
    </g>
    <g
       id="g165357"
       transform="matrix(0.35277777,0,0,-0.35277777,-2177.8136,2435.5314)">
      <g
         id="g165359"
         clip-path="url(#clipPath165363)">
        <path
           d="m 6444.582,6503.58 h -124.916 v 187.374 h 124.916 z"
           style="fill:none;stroke:#ffffff;stroke-width:1;stroke-linecap:butt;stroke-linejoin:miter;stroke-miterlimit:10;stroke-dasharray:none;stroke-opacity:1"
           id="path165365" />
        <path
           d="m 6320.958,6504.872 h 122.332 v 184.789 h -122.332 z m 124.916,-2.584 h -127.5 v 189.958 h 127.5 z"
           style="fill:#4d4d4d;fill-opacity:1;fill-rule:nonzero;stroke:none"
           id="path165367" />
        <g
           id="g165369"
           transform="translate(6333.8364,6652.2119)">
          <path
             d="M 0,0 14.419,9.958 0,19.916 Z"
             style="fill:#007f00;fill-opacity:1;fill-rule:nonzero;stroke:none"
             id="path165371" />
        </g>
        <path
           d="m 6339.005,6640.848 h -13.416 v 1.723 h 13.416 z"
           style="fill:#4d4d4d;fill-opacity:1;fill-rule:nonzero;stroke:none"
           id="path165373" />
        <path
           d="m 6359.526,6640.848 h -13.415 v 1.723 h 13.415 z"
           style="fill:#4d4d4d;fill-opacity:1;fill-rule:nonzero;stroke:none"
           id="path165375" />
        <path
           d="m 6380.048,6640.848 h -13.415 v 1.723 h 13.415 z"
           style="fill:#4d4d4d;fill-opacity:1;fill-rule:nonzero;stroke:none"
           id="path165377" />
        <path
           d="m 6400.57,6640.848 h -13.416 v 1.723 h 13.416 z"
           style="fill:#4d4d4d;fill-opacity:1;fill-rule:nonzero;stroke:none"
           id="path165379" />
        <path
           d="m 6421.091,6640.848 h -13.415 v 1.723 h 13.415 z"
           style="fill:#4d4d4d;fill-opacity:1;fill-rule:nonzero;stroke:none"
           id="path165381" />
        <path
           d="m 6441.613,6640.848 h -13.415 v 1.723 h 13.415 z"
           style="fill:#4d4d4d;fill-opacity:1;fill-rule:nonzero;stroke:none"
           id="path165383" />
        <path
           d="m 6339.005,6544.943 h -13.416 v 1.723 h 13.416 z"
           style="fill:#4d4d4d;fill-opacity:1;fill-rule:nonzero;stroke:none"
           id="path165385" />
        <path
           d="m 6359.526,6544.943 h -13.415 v 1.723 h 13.415 z"
           style="fill:#4d4d4d;fill-opacity:1;fill-rule:nonzero;stroke:none"
           id="path165387" />
        <path
           d="m 6380.048,6544.943 h -13.415 v 1.723 h 13.415 z"
           style="fill:#4d4d4d;fill-opacity:1;fill-rule:nonzero;stroke:none"
           id="path165389" />
        <path
           d="m 6400.57,6544.943 h -13.416 v 1.723 h 13.416 z"
           style="fill:#4d4d4d;fill-opacity:1;fill-rule:nonzero;stroke:none"
           id="path165391" />
        <path
           d="m 6421.091,6544.943 h -13.415 v 1.723 h 13.415 z"
           style="fill:#4d4d4d;fill-opacity:1;fill-rule:nonzero;stroke:none"
           id="path165393" />
        <path
           d="m 6441.613,6544.943 h -13.415 v 1.723 h 13.415 z"
           style="fill:#4d4d4d;fill-opacity:1;fill-rule:nonzero;stroke:none"
           id="path165395" />
        <g
           id="g165397"
           transform="translate(6345.1318,6530.0806)">
          <path
             d="m 0,0 h -6.818 -5.058 l 0.99,-20.563 H -6.818 0 4.068 L 5.058,0 Z"
             style="fill:#be1622;fill-opacity:1;fill-rule:nonzero;stroke:none"
             id="path165399" />
        </g>
        <g
           id="g165401"
           transform="translate(6339.4375,6536.4238)">
          <path
             d="M 0,0 C 0.061,0.354 0.398,0.591 0.752,0.53 L 5.809,-0.344 C 6.162,-0.405 6.4,-0.742 6.339,-1.096 l -0.124,-0.717 -6.339,1.095 z m 12.326,-4.599 c 0.161,0.927 -0.461,1.809 -1.388,1.97 l -3.025,0.522 0.124,0.718 C 8.26,-0.099 7.392,1.131 6.102,1.354 L 1.045,2.228 C -0.244,2.451 -1.475,1.583 -1.698,0.293 l -0.124,-0.717 -3.115,0.538 c -0.927,0.16 -1.809,-0.462 -1.969,-1.389 l -0.235,-1.354 4.795,-0.829 -0.004,-0.023 9.734,-1.682 0.004,0.022 4.704,-0.813 z"
             style="fill:#be1622;fill-opacity:1;fill-rule:nonzero;stroke:none"
             id="path165403" />
        </g>
        <g
           id="g165405"
           transform="translate(6351.3667,6577.2183)">
          <path
             d="m 0,0 c -0.009,5.316 -4.345,9.638 -9.658,9.625 -5.304,-0.013 -9.617,-4.333 -9.618,-9.635 -0.002,-5.312 4.332,-9.645 9.643,-9.641 C -4.319,-9.648 0.009,-5.312 0,0 m -10.456,-12.28 c -0.479,0.072 -0.96,0.131 -1.435,0.219 -2.513,0.467 -4.669,1.621 -6.464,3.434 -1.871,1.89 -2.999,4.164 -3.417,6.789 -0.851,5.334 2.116,10.784 7.066,12.989 C -8.161,14.065 -0.682,10.958 1.858,4.262 2.253,3.221 2.496,2.142 2.579,1.029 2.584,0.953 2.612,0.879 2.629,0.805 V -0.831 C 2.612,-0.905 2.589,-0.979 2.578,-1.054 2.496,-1.592 2.464,-2.142 2.329,-2.666 c -1.323,-5.09 -4.551,-8.23 -9.686,-9.391 -0.48,-0.109 -0.975,-0.151 -1.463,-0.223 z"
             style="fill:#4d4d4d;fill-opacity:1;fill-rule:nonzero;stroke:none"
             id="path165407" />
        </g>
        <g
           id="g165409"
           transform="translate(6339.5459,6591.0547)">
          <path
             d="m 0,0 v 2.04 c -0.288,0 -0.547,-0.002 -0.807,0 -0.56,0.005 -0.955,0.375 -0.949,0.886 0.006,0.5 0.394,0.864 0.94,0.865 2.003,0.002 4.007,0.003 6.012,0 C 5.736,3.79 6.124,3.414 6.121,2.912 6.118,2.41 5.731,2.047 5.187,2.04 c -0.26,-0.003 -0.521,0 -0.81,0 L 4.377,0 C 2.907,0.221 1.468,0.228 0,0"
             style="fill:#4d4d4d;fill-opacity:1;fill-rule:nonzero;stroke:none"
             id="path165411" />
        </g>
        <g
           id="g165413"
           transform="translate(6342.605,6578.0811)">
          <path
             d="m 0,0 v 0.355 c 0,0.759 0.007,1.519 -0.003,2.277 -0.008,0.497 -0.398,0.873 -0.875,0.872 -0.466,-10e-4 -0.865,-0.368 -0.87,-0.846 -0.011,-1.187 -0.011,-2.375 0,-3.562 0.005,-0.466 0.374,-0.838 0.84,-0.843 1.188,-0.012 2.375,-0.011 3.562,0 0.373,0.004 0.645,0.206 0.785,0.555 0.234,0.58 -0.186,1.183 -0.835,1.19 C 1.75,0.007 0.895,0 0,0 m -7.013,-5.824 c -0.967,1.238 -1.521,2.559 -1.698,4.072 0.28,0 0.532,-0.003 0.783,0.001 0.536,0.009 0.926,0.39 0.917,0.891 -0.009,0.489 -0.394,0.852 -0.919,0.86 -0.252,0.003 -0.503,0 -0.782,0 0.178,1.514 0.732,2.836 1.694,4.066 0.166,-0.181 0.315,-0.354 0.476,-0.515 0.418,-0.419 0.953,-0.454 1.32,-0.095 0.376,0.367 0.344,0.91 -0.088,1.34 -0.157,0.158 -0.333,0.298 -0.518,0.461 1.226,0.964 2.549,1.519 4.076,1.704 0,-0.267 -0.003,-0.515 0,-0.764 0.006,-0.544 0.37,-0.935 0.87,-0.938 0.5,-0.004 0.873,0.387 0.881,0.927 C 0.003,6.437 0,6.687 0,6.96 1.517,6.779 2.841,6.227 4.083,5.252 3.878,5.073 3.68,4.918 3.505,4.742 3.122,4.355 3.109,3.817 3.46,3.464 3.811,3.111 4.35,3.121 4.738,3.502 4.917,3.677 5.072,3.876 5.252,4.08 6.225,2.845 6.777,1.52 6.959,0 6.69,0 6.44,0.003 6.189,0 5.649,-0.007 5.257,-0.377 5.258,-0.876 5.259,-1.376 5.65,-1.744 6.191,-1.751 6.434,-1.754 6.676,-1.752 6.957,-1.752 6.782,-3.269 6.222,-4.593 5.252,-5.835 5.07,-5.628 4.915,-5.428 4.736,-5.252 4.349,-4.872 3.809,-4.863 3.458,-5.218 3.108,-5.572 3.124,-6.106 3.506,-6.495 3.676,-6.668 3.862,-6.826 4.066,-7.014 2.849,-7.977 1.521,-8.529 0,-8.711 c 0,0.255 0.001,0.486 0,0.718 -0.004,0.589 -0.364,0.988 -0.885,0.983 -0.51,-0.005 -0.864,-0.4 -0.867,-0.97 -0.002,-0.232 0,-0.464 0,-0.73 -1.519,0.178 -2.845,0.736 -4.075,1.7 0.2,0.179 0.39,0.333 0.56,0.506 0.394,0.4 0.407,0.945 0.043,1.298 -0.356,0.347 -0.888,0.327 -1.277,-0.057 -0.173,-0.171 -0.328,-0.358 -0.512,-0.561"
             style="fill:#4d4d4d;fill-opacity:1;fill-rule:nonzero;stroke:none"
             id="path165415" />
        </g>
        <g
           id="g165417"
           transform="translate(6349.4277,6590.1504)">
          <path
             d="M 0,0 C -0.251,0.176 -0.476,0.329 -0.695,0.489 -1.116,0.798 -1.212,1.315 -0.928,1.722 -0.657,2.11 -0.123,2.215 0.289,1.933 1.249,1.273 2.204,0.604 3.153,-0.073 3.561,-0.364 3.647,-0.89 3.378,-1.287 3.111,-1.681 2.592,-1.782 2.167,-1.512 1.931,-1.361 1.705,-1.193 1.442,-1.011 1.211,-1.334 0.983,-1.653 0.755,-1.973 0.278,-1.638 -0.182,-1.315 -0.673,-0.97 -0.455,-0.656 -0.236,-0.34 0,0"
             style="fill:#4d4d4d;fill-opacity:1;fill-rule:nonzero;stroke:none"
             id="path165419" />
        </g>
        <g
           id="g165421"
           transform="translate(6334.0181,6590.1504)">
          <path
             d="M 0,0 C 0.251,0.176 0.476,0.329 0.694,0.489 1.116,0.798 1.212,1.315 0.928,1.722 0.657,2.11 0.123,2.215 -0.289,1.933 -1.25,1.273 -2.204,0.604 -3.153,-0.073 -3.562,-0.364 -3.647,-0.89 -3.379,-1.287 c 0.267,-0.394 0.787,-0.495 1.211,-0.225 0.237,0.151 0.463,0.319 0.726,0.501 0.231,-0.323 0.459,-0.642 0.687,-0.962 0.476,0.335 0.936,0.658 1.428,1.003 C 0.455,-0.656 0.236,-0.34 0,0"
             style="fill:#4d4d4d;fill-opacity:1;fill-rule:nonzero;stroke:none"
             id="path165423" />
        </g>
        <g
           id="g165425"
           transform="translate(6408.5967,6580.7358)">
          <path
             d="M 0,0 H -6.634 V 6.634 H -9.419 V 0 h -6.635 v -2.786 h 6.635 V -9.42 h 2.785 v 6.634 H 0 Z"
             style="fill:#4d4d4d;fill-opacity:1;fill-rule:nonzero;stroke:none"
             id="path165427" />
        </g>
        <g
           id="g165429"
           transform="translate(6359.3115,6628.9629)">
          <path
             d="m 0,0 c -6.564,0 -11.904,-5.339 -11.904,-11.903 0,-6.564 5.34,-11.904 11.904,-11.904 6.563,0 11.903,5.34 11.903,11.904 C 11.903,-5.339 6.563,0 0,0 m 0,-26.391 c -7.989,0 -14.488,6.499 -14.488,14.488 0,7.988 6.499,14.487 14.488,14.487 7.988,0 14.487,-6.499 14.487,-14.487 0,-7.989 -6.499,-14.488 -14.487,-14.488"
             style="fill:#4d4d4d;fill-opacity:1;fill-rule:nonzero;stroke:none"
             id="path165431" />
        </g>
        <path
           d="m 6346.116,6615.768 h -27.05 v 2.584 h 27.05 z"
           style="fill:#4d4d4d;fill-opacity:1;fill-rule:nonzero;stroke:none"
           id="path165433" />
      </g>
    </g>
  </g>
</svg>
