<svg width="19" height="19" viewBox="0 0 19 19" fill="none" xmlns="http://www.w3.org/2000/svg">
<path d="M9.5 18.6001C4.6 18.6001 0.599976 14.6001 0.599976 9.70007C0.599976 4.80007 4.6 0.800049 9.5 0.800049C14.4 0.800049 18.4 4.80007 18.4 9.70007C18.4 14.6001 14.4 18.6001 9.5 18.6001ZM9.5 1.80005C5.2 1.80005 1.59998 5.30007 1.59998 9.70007C1.59998 14.0001 5.1 17.6001 9.5 17.6001C13.9 17.6001 17.4 14.1001 17.4 9.70007C17.3 5.40007 13.8 1.80005 9.5 1.80005Z" fill="#36393B"/>
<path d="M9.5 18.1001C14.1392 18.1001 17.9 14.3393 17.9 9.70007C17.9 5.06088 14.1392 1.30005 9.5 1.30005C4.86081 1.30005 1.09998 5.06088 1.09998 9.70007C1.09998 14.3393 4.86081 18.1001 9.5 18.1001Z" fill="#FFEC8E"/>
<path d="M11.8 8.69995C11.8 8.69995 11.4001 8.29993 11.4001 7.29993C11.4001 6.29993 11.6 5.89993 11.6 5.89993C11.6 5.89993 11.5001 5.19995 11.5001 4.59995C11.5001 4.19995 11.4001 3.99993 11.0001 3.89993V3.69995C11.0001 3.39995 10.8001 3.19995 10.5001 3.19995H10.3C10 3.19995 9.80005 3.39995 9.80005 3.69995C9.70005 3.69995 9.60004 3.69995 9.60004 3.69995C9.50004 3.69995 9.50009 3.69995 9.40009 3.69995C9.40009 3.39995 9.20009 3.19995 8.90009 3.19995H8.70007C8.40007 3.19995 8.20007 3.39995 8.20007 3.69995V3.79993C7.80007 3.89993 7.60004 4.09994 7.60004 4.49994C7.60004 4.99994 7.50006 5.69993 7.50006 5.79993C7.50006 5.79993 7.70007 6.19995 7.70007 7.19995C7.70007 8.19995 7.30005 8.49994 7.30005 8.49994V9.79993V9.89993V10.4999C7.30005 10.6999 7.50007 10.8999 7.70007 10.8999H8.10004V14.4999L8.60004 14.9999V15.8999C8.60004 15.9999 8.70005 16.0999 8.80005 16.0999C8.90005 16.0999 9.00006 15.9999 9.00006 15.8999V14.9999L9.50006 14.4999V10.9999H9.70007V14.5999L10.2001 15.0999V15.9999C10.2001 16.0999 10.3001 16.2 10.4001 16.2C10.5001 16.2 10.6 16.0999 10.6 15.9999V15.0999L11.1 14.5999V10.9999H11.5001C11.7001 10.9999 11.9001 10.7999 11.9001 10.5999V9.99994L11.8 8.69995Z" fill="#36393B"/>
</svg>
