<?xml version="1.0" encoding="UTF-8" standalone="no"?>
<!-- Created with Inkscape (http://www.inkscape.org/) -->

<svg
   width="70.749916mm"
   height="34.681358mm"
   viewBox="0 0 70.749916 34.681358"
   version="1.1"
   id="svg104910"
   inkscape:version="1.1.1 (3bf5ae0d25, 2021-09-20)"
   sodipodi:docname="Подключение к пациенту (капля к капле).svg"
   xmlns:inkscape="http://www.inkscape.org/namespaces/inkscape"
   xmlns:sodipodi="http://sodipodi.sourceforge.net/DTD/sodipodi-0.dtd"
   xmlns:xlink="http://www.w3.org/1999/xlink"
   xmlns="http://www.w3.org/2000/svg"
   xmlns:svg="http://www.w3.org/2000/svg">
  <sodipodi:namedview
     id="namedview104912"
     pagecolor="#ffffff"
     bordercolor="#666666"
     borderopacity="1.0"
     inkscape:pageshadow="2"
     inkscape:pageopacity="0.0"
     inkscape:pagecheckerboard="true"
     inkscape:document-units="mm"
     showgrid="false"
     inkscape:zoom="0.64052329"
     inkscape:cx="343.46917"
     inkscape:cy="69.474445"
     inkscape:window-width="1920"
     inkscape:window-height="1001"
     inkscape:window-x="-9"
     inkscape:window-y="-9"
     inkscape:window-maximized="1"
     inkscape:current-layer="layer1" />
  <defs
     id="defs104907">
    <linearGradient
       inkscape:collect="always"
       xlink:href="#linearGradient315760-3"
       id="linearGradient514734"
       gradientUnits="userSpaceOnUse"
       gradientTransform="matrix(11.485956,0,0,11.485956,4232.5503,2052.0325)"
       x1="0"
       y1="0"
       x2="1"
       y2="0"
       spreadMethod="pad" />
    <linearGradient
       x1="0"
       y1="0"
       x2="1"
       y2="0"
       gradientUnits="userSpaceOnUse"
       gradientTransform="matrix(11.485956,0,0,11.485956,4232.5503,2052.0325)"
       spreadMethod="pad"
       id="linearGradient315760-3">
      <stop
         style="stop-opacity:1;stop-color:#282828"
         offset="0"
         id="stop315744-0" />
      <stop
         style="stop-opacity:1;stop-color:#c8c8c8"
         offset="0.312849"
         id="stop315746-96" />
      <stop
         style="stop-opacity:1;stop-color:#c8c8c8"
         offset="0.48958557"
         id="stop315748-1" />
      <stop
         style="stop-opacity:1;stop-color:#e6e6e6"
         offset="0.534022"
         id="stop315750-6" />
      <stop
         style="stop-opacity:1;stop-color:#c8c8c8"
         offset="0.5838686"
         id="stop315752-8" />
      <stop
         style="stop-opacity:1;stop-color:#c8c8c8"
         offset="0.782123"
         id="stop315754-9" />
      <stop
         style="stop-opacity:1;stop-color:#c8c8c8"
         offset="0.78897907"
         id="stop315756-6" />
      <stop
         style="stop-opacity:1;stop-color:#282828"
         offset="1"
         id="stop315758-0" />
    </linearGradient>
    <linearGradient
       inkscape:collect="always"
       xlink:href="#linearGradient315998-6"
       id="linearGradient514736"
       gradientUnits="userSpaceOnUse"
       gradientTransform="matrix(-20.215986,0,0,-20.215986,4248.4014,2011.1566)"
       x1="0"
       y1="0"
       x2="1"
       y2="0"
       spreadMethod="pad" />
    <linearGradient
       x1="0"
       y1="0"
       x2="1"
       y2="0"
       gradientUnits="userSpaceOnUse"
       gradientTransform="matrix(-20.215986,0,0,-20.215986,4248.4014,2011.1566)"
       spreadMethod="pad"
       id="linearGradient315998-6">
      <stop
         style="stop-opacity:1;stop-color:#8990d4"
         offset="0"
         id="stop315978-4" />
      <stop
         style="stop-opacity:1;stop-color:#d1d3ff"
         offset="0.312849"
         id="stop315980-5" />
      <stop
         style="stop-opacity:1;stop-color:#e6e6e6"
         offset="0.40303277"
         id="stop315982-9" />
      <stop
         style="stop-opacity:1;stop-color:#e6e6e6"
         offset="0.461397"
         id="stop315984-0" />
      <stop
         style="stop-opacity:1;stop-color:#e6e6e6"
         offset="0.48566422"
         id="stop315986-7" />
      <stop
         style="stop-opacity:1;stop-color:#d1d3ff"
         offset="0.603352"
         id="stop315988-4" />
      <stop
         style="stop-opacity:1;stop-color:#d1d3ff"
         offset="0.83325665"
         id="stop315990-4" />
      <stop
         style="stop-opacity:1;stop-color:#7679a1"
         offset="0.891061"
         id="stop315992-4" />
      <stop
         style="stop-opacity:1;stop-color:#8990d4"
         offset="0.91294821"
         id="stop315994-2" />
      <stop
         style="stop-opacity:1;stop-color:#8990d4"
         offset="1"
         id="stop315996-0" />
    </linearGradient>
    <linearGradient
       inkscape:collect="always"
       xlink:href="#linearGradient316034-6"
       id="linearGradient514738"
       gradientUnits="userSpaceOnUse"
       gradientTransform="matrix(-28.699371,0,0,28.699371,4252.6431,2021.5573)"
       x1="0"
       y1="0"
       x2="1"
       y2="0"
       spreadMethod="pad" />
    <linearGradient
       x1="0"
       y1="0"
       x2="1"
       y2="0"
       gradientUnits="userSpaceOnUse"
       gradientTransform="matrix(-28.699371,0,0,28.699371,4252.6431,2021.5573)"
       spreadMethod="pad"
       id="linearGradient316034-6">
      <stop
         style="stop-opacity:1;stop-color:#8990d4"
         offset="0"
         id="stop316014-03" />
      <stop
         style="stop-opacity:1;stop-color:#d1d3ff"
         offset="0.312849"
         id="stop316016-3" />
      <stop
         style="stop-opacity:1;stop-color:#e6e6e6"
         offset="0.40303277"
         id="stop316018-9" />
      <stop
         style="stop-opacity:1;stop-color:#e6e6e6"
         offset="0.461397"
         id="stop316020-1" />
      <stop
         style="stop-opacity:1;stop-color:#e6e6e6"
         offset="0.48566422"
         id="stop316022-3" />
      <stop
         style="stop-opacity:1;stop-color:#d1d3ff"
         offset="0.603352"
         id="stop316024-2" />
      <stop
         style="stop-opacity:1;stop-color:#d1d3ff"
         offset="0.83325665"
         id="stop316026-5" />
      <stop
         style="stop-opacity:1;stop-color:#7679a1"
         offset="0.891061"
         id="stop316028-2" />
      <stop
         style="stop-opacity:1;stop-color:#8990d4"
         offset="0.91294821"
         id="stop316030-1" />
      <stop
         style="stop-opacity:1;stop-color:#8990d4"
         offset="1"
         id="stop316032-8" />
    </linearGradient>
    <linearGradient
       inkscape:collect="always"
       xlink:href="#linearGradient315962-3"
       id="linearGradient514742"
       gradientUnits="userSpaceOnUse"
       gradientTransform="matrix(13.504248,0,0,-13.504248,4231.7041,1976.3451)"
       x1="0"
       y1="0"
       x2="1"
       y2="0"
       spreadMethod="pad" />
    <linearGradient
       x1="0"
       y1="0"
       x2="1"
       y2="0"
       gradientUnits="userSpaceOnUse"
       gradientTransform="matrix(13.504248,0,0,-13.504248,4231.7041,1976.3451)"
       spreadMethod="pad"
       id="linearGradient315962-3">
      <stop
         style="stop-opacity:1;stop-color:#8990d4"
         offset="0"
         id="stop315942-7" />
      <stop
         style="stop-opacity:1;stop-color:#d1d3ff"
         offset="0.312849"
         id="stop315944-7" />
      <stop
         style="stop-opacity:1;stop-color:#e6e6e6"
         offset="0.40303277"
         id="stop315946-4" />
      <stop
         style="stop-opacity:1;stop-color:#e6e6e6"
         offset="0.461397"
         id="stop315948-0" />
      <stop
         style="stop-opacity:1;stop-color:#e6e6e6"
         offset="0.48566422"
         id="stop315950-8" />
      <stop
         style="stop-opacity:1;stop-color:#d1d3ff"
         offset="0.603352"
         id="stop315952-0" />
      <stop
         style="stop-opacity:1;stop-color:#d1d3ff"
         offset="0.83325665"
         id="stop315954-1" />
      <stop
         style="stop-opacity:1;stop-color:#7679a1"
         offset="0.891061"
         id="stop315956-9" />
      <stop
         style="stop-opacity:1;stop-color:#8990d4"
         offset="0.91294821"
         id="stop315958-1" />
      <stop
         style="stop-opacity:1;stop-color:#8990d4"
         offset="1"
         id="stop315960-2" />
    </linearGradient>
    <linearGradient
       inkscape:collect="always"
       xlink:href="#linearGradient315760-3"
       id="linearGradient105382"
       gradientUnits="userSpaceOnUse"
       gradientTransform="matrix(11.485956,0,0,11.485956,4232.5503,2052.0325)"
       x1="0"
       y1="0"
       x2="1"
       y2="0"
       spreadMethod="pad" />
    <linearGradient
       inkscape:collect="always"
       xlink:href="#linearGradient315998-6"
       id="linearGradient105384"
       gradientUnits="userSpaceOnUse"
       gradientTransform="matrix(-20.215986,0,0,-20.215986,4248.4014,2011.1566)"
       x1="0"
       y1="0"
       x2="1"
       y2="0"
       spreadMethod="pad" />
    <linearGradient
       inkscape:collect="always"
       xlink:href="#linearGradient316034-6"
       id="linearGradient105386"
       gradientUnits="userSpaceOnUse"
       gradientTransform="matrix(-28.699371,0,0,28.699371,4252.6431,2021.5573)"
       x1="0"
       y1="0"
       x2="1"
       y2="0"
       spreadMethod="pad" />
  </defs>
  <g
     inkscape:label="Слой 1"
     inkscape:groupmode="layer"
     id="layer1"
     transform="translate(18.903317,-97.26725)">
    <g
       id="g105948">
      <g
         id="g511242"
         transform="rotate(-90,-259.65415,498.06922)">
        <g
           id="g315732-7-7-0-2-7"
           transform="matrix(-0.35476747,0,0,0.35476747,1625.6346,73.003521)"
           style="stroke-width:1.1275;stroke-miterlimit:4;stroke-dasharray:none">
          <g
             id="g315734-7-1-3-9-1"
             style="stroke-width:1.1275;stroke-miterlimit:4;stroke-dasharray:none">
            <g
               id="g315740-2-0-9-3-2"
               style="stroke-width:1.1275;stroke-miterlimit:4;stroke-dasharray:none">
              <g
                 id="g315742-1-6-4-7-7"
                 style="stroke-width:1.1275;stroke-miterlimit:4;stroke-dasharray:none">
                <path
                   d="m 4232.55,2027.868 h 11.487 v 48.327 h -11.487 z"
                   style="fill:url(#linearGradient105382);stroke:none;stroke-width:1.1275;stroke-miterlimit:4;stroke-dasharray:none"
                   id="path315762-6-0-1-7-1" />
              </g>
            </g>
          </g>
        </g>
        <g
           id="g315966-5-1-0-6-3"
           transform="matrix(-0.35476747,0,0,0.35476747,1625.6346,73.003521)"
           style="stroke-width:1.1275;stroke-miterlimit:4;stroke-dasharray:none">
          <g
             id="g315968-28-6-3-9-6"
             style="stroke-width:1.1275;stroke-miterlimit:4;stroke-dasharray:none">
            <g
               id="g315974-7-4-6-4-3"
               style="stroke-width:1.1275;stroke-miterlimit:4;stroke-dasharray:none">
              <g
                 id="g315976-7-9-7-6-1"
                 style="stroke-width:1.1275;stroke-miterlimit:4;stroke-dasharray:none">
                <path
                   d="m 4228.186,2027.868 v -30.582 c 0,-1.569 1.358,-2.841 3.034,-2.841 v 0 h 14.146 c 1.677,0 3.035,1.272 3.035,2.841 v 0 30.582 z"
                   style="fill:url(#linearGradient105384);stroke:none;stroke-width:1.1275;stroke-miterlimit:4;stroke-dasharray:none"
                   id="path316000-7-7-5-6-2" />
              </g>
            </g>
          </g>
        </g>
        <g
           id="g316002-0-8-4-7-0"
           transform="matrix(-0.35476747,0,0,0.35476747,1625.6346,73.003521)"
           style="stroke-width:1.1275;stroke-miterlimit:4;stroke-dasharray:none">
          <g
             id="g316004-61-6-6-1-9"
             style="stroke-width:1.1275;stroke-miterlimit:4;stroke-dasharray:none">
            <g
               id="g316010-0-7-1-7-5"
               style="stroke-width:1.1275;stroke-miterlimit:4;stroke-dasharray:none">
              <g
                 id="g316012-1-5-9-6-3"
                 style="stroke-width:1.1275;stroke-miterlimit:4;stroke-dasharray:none">
                <path
                   d="m 4224.965,2024.484 c -0.565,0 -1.021,-0.458 -1.021,-1.022 v 0 -3.81 c 0,-0.564 0.456,-1.021 1.021,-1.021 v 0 h 26.658 c 0.563,0 1.02,0.457 1.02,1.021 v 0 3.81 c 0,0.564 -0.457,1.022 -1.02,1.022 v 0 z"
                   style="fill:url(#linearGradient105386);stroke:none;stroke-width:1.1275;stroke-miterlimit:4;stroke-dasharray:none"
                   id="path316036-1-7-8-5-1" />
              </g>
            </g>
          </g>
        </g>
      </g>
      <path
         id="path444659-9"
         style="display:inline;fill:#ffffff;fill-opacity:1;stroke:none;stroke-width:0.700001;stroke-linecap:round;stroke-miterlimit:4;stroke-dasharray:none;stroke-opacity:1;stop-color:#000000"
         inkscape:transform-center-x="-2.5784264e-06"
         inkscape:transform-center-y="-2.0252005e-05"
         d="m 29.76758,97.26725 -6.92322,5.622 6.92322,5.62174 v -3.23067 h 14.61498 v -4.78214 H 29.76758 Z" />
      <path
         id="path444659-9-3"
         style="display:inline;fill:#ffffff;fill-opacity:1;stroke:none;stroke-width:0.700001;stroke-linecap:round;stroke-miterlimit:4;stroke-dasharray:none;stroke-opacity:1;stop-color:#000000"
         inkscape:transform-center-x="2.5784264e-06"
         inkscape:transform-center-y="-2.0252005e-05"
         d="m 11.30952,97.26725 6.92322,5.622 -6.92322,5.62174 v -3.23067 H -3.30546 v -4.78214 h 14.61498 z" />
      <g
         id="g511225"
         transform="rotate(-90,-237.9796,481.61907)">
        <g
           id="g315732-7-7-0-2-7-2"
           transform="matrix(-0.35476747,0,0,-0.35476747,1630.859,1437.2618)"
           style="stroke-width:1.1275;stroke-miterlimit:4;stroke-dasharray:none">
          <g
             id="g315734-7-1-3-9-1-5"
             style="stroke-width:1.1275;stroke-miterlimit:4;stroke-dasharray:none">
            <g
               id="g315740-2-0-9-3-2-9"
               style="stroke-width:1.1275;stroke-miterlimit:4;stroke-dasharray:none">
              <g
                 id="g315742-1-6-4-7-7-2"
                 style="stroke-width:1.1275;stroke-miterlimit:4;stroke-dasharray:none">
                <path
                   d="m 4232.55,2027.868 h 11.487 v 48.327 h -11.487 z"
                   style="fill:url(#linearGradient514734);stroke:none;stroke-width:1.1275;stroke-miterlimit:4;stroke-dasharray:none"
                   id="path315762-6-0-1-7-1-7" />
              </g>
            </g>
          </g>
        </g>
        <g
           id="g315930-03-1-1-7-5-7"
           transform="matrix(-0.35476747,0,0,-0.35476747,1630.859,1431.9698)"
           style="stroke-width:1.1275;stroke-miterlimit:4;stroke-dasharray:none">
          <g
             id="g315932-1-2-5-8-7-1"
             style="stroke-width:1.1275;stroke-miterlimit:4;stroke-dasharray:none">
            <g
               id="g315938-8-3-1-7-8-8"
               style="stroke-width:1.1275;stroke-miterlimit:4;stroke-dasharray:none">
              <g
                 id="g315940-9-3-8-3-4-9"
                 style="stroke-width:1.1275;stroke-miterlimit:4;stroke-dasharray:none">
                <path
                   d="m 4231.704,1956.601 h 13.505 v 39.487 h -13.505 z"
                   style="fill:url(#linearGradient514742);stroke:none;stroke-width:1.1275;stroke-miterlimit:4;stroke-dasharray:none"
                   id="path315964-8-6-2-6-3-1" />
              </g>
            </g>
          </g>
        </g>
        <g
           id="g315966-5-1-0-6-3-7"
           transform="matrix(-0.35476747,0,0,-0.35476747,1630.859,1437.2618)"
           style="stroke-width:1.1275;stroke-miterlimit:4;stroke-dasharray:none">
          <g
             id="g315968-28-6-3-9-6-7"
             style="stroke-width:1.1275;stroke-miterlimit:4;stroke-dasharray:none">
            <g
               id="g315974-7-4-6-4-3-4"
               style="stroke-width:1.1275;stroke-miterlimit:4;stroke-dasharray:none">
              <g
                 id="g315976-7-9-7-6-1-9"
                 style="stroke-width:1.1275;stroke-miterlimit:4;stroke-dasharray:none">
                <path
                   d="m 4228.186,2027.868 v -30.582 c 0,-1.569 1.358,-2.841 3.034,-2.841 v 0 h 14.146 c 1.677,0 3.035,1.272 3.035,2.841 v 0 30.582 z"
                   style="fill:url(#linearGradient514736);stroke:none;stroke-width:1.1275;stroke-miterlimit:4;stroke-dasharray:none"
                   id="path316000-7-7-5-6-2-8" />
              </g>
            </g>
          </g>
        </g>
        <g
           id="g316002-0-8-4-7-0-1"
           transform="matrix(-0.35476747,0,0,-0.35476747,1630.859,1437.2618)"
           style="stroke-width:1.1275;stroke-miterlimit:4;stroke-dasharray:none">
          <g
             id="g316004-61-6-6-1-9-3"
             style="stroke-width:1.1275;stroke-miterlimit:4;stroke-dasharray:none">
            <g
               id="g316010-0-7-1-7-5-5"
               style="stroke-width:1.1275;stroke-miterlimit:4;stroke-dasharray:none">
              <g
                 id="g316012-1-5-9-6-3-8"
                 style="stroke-width:1.1275;stroke-miterlimit:4;stroke-dasharray:none">
                <path
                   d="m 4224.965,2024.484 c -0.565,0 -1.021,-0.458 -1.021,-1.022 v 0 -3.81 c 0,-0.564 0.456,-1.021 1.021,-1.021 v 0 h 26.658 c 0.563,0 1.02,0.457 1.02,1.021 v 0 3.81 c 0,0.564 -0.457,1.022 -1.02,1.022 v 0 z"
                   style="fill:url(#linearGradient514738);stroke:none;stroke-width:1.1275;stroke-miterlimit:4;stroke-dasharray:none"
                   id="path316036-1-7-8-5-1-8" />
              </g>
            </g>
          </g>
        </g>
      </g>
      <g
         id="g511123"
         transform="matrix(0.6691366,0,0,0.6691366,-86.55517,-362.92133)"
         style="stroke-width:1.49446">
        <path
           style="fill:#e6f8fe;stroke-width:1.49446"
           d="m 151.60596,737.68299 -0.12453,-0.13055 0.13779,0.11798 c 0.12844,0.10998 0.15728,0.14312 0.12452,0.14312 -0.007,0 -0.0693,-0.0587 -0.13778,-0.13055 z m 6.52144,0.10363 c -0.12531,-0.0247 -0.34045,-0.23138 -0.35913,-0.34499 -0.0242,-0.1474 0.038,-0.35253 0.1374,-0.45278 0.0512,-0.0516 0.21833,-0.16286 0.3714,-0.24718 0.15307,-0.0843 0.43652,-0.29482 0.62987,-0.46779 0.56892,-0.50895 0.87722,-0.97471 1.122,-1.69501 0.1411,-0.4152 0.23237,-0.51945 0.49579,-0.56627 0.2954,-0.0525 0.57983,0.19057 0.57168,0.4886 -0.009,0.33971 -0.41316,1.24585 -0.76692,1.72063 -0.41009,0.55039 -0.98239,1.0531 -1.58558,1.39278 -0.288,0.16219 -0.44468,0.2059 -0.61651,0.17201 z m 2.36324,0.0143 c 0,-0.007 0.062,-0.0657 0.13778,-0.13055 l 0.13779,-0.11798 -0.12452,0.13055 c -0.11607,0.12169 -0.15105,0.14902 -0.15105,0.11798 z m 0.46635,-0.48463 c 0,-0.008 0.0334,-0.04 0.0742,-0.0703 0.0672,-0.05 0.0687,-0.0486 0.016,0.0152 -0.0554,0.0669 -0.0902,0.0882 -0.0902,0.0551 z m 1.49456,-3.57998 c 4.7e-4,-0.0884 0.009,-0.1198 0.0193,-0.0698 0.0101,0.05 0.01,0.12227 -8.6e-4,0.16067 -0.0106,0.0384 -0.0189,-0.002 -0.0184,-0.0908 z m 0,-0.64271 c 4.7e-4,-0.0884 0.009,-0.1198 0.0193,-0.0698 0.0101,0.05 0.01,0.12227 -8.6e-4,0.16068 -0.0106,0.0384 -0.0189,-0.002 -0.0184,-0.0909 z m -0.0497,-0.52555 c 0.002,-0.0468 0.0121,-0.0563 0.0256,-0.0243 0.0122,0.029 0.0107,0.0636 -0.003,0.077 -0.0141,0.0134 -0.0241,-0.0104 -0.0223,-0.0527 z"
           id="path511006" />
        <path
           style="fill:#d0f3fe;stroke-width:1.49446"
           d="m 160.25746,737.97422 c 0.0422,-0.0442 0.0863,-0.0803 0.0979,-0.0803 0.0117,0 -0.0133,0.0361 -0.0555,0.0803 -0.0422,0.0442 -0.0863,0.0803 -0.0979,0.0803 -0.0117,0 0.0133,-0.0362 0.0555,-0.0803 z m 0.57235,-0.53737 c 0,-0.008 0.0334,-0.04 0.0742,-0.0703 0.0672,-0.05 0.0687,-0.0485 0.016,0.0152 -0.0554,0.0669 -0.0902,0.0882 -0.0902,0.0551 z m -3.08824,-0.18568 c 0,-0.0552 0.01,-0.0778 0.0214,-0.0502 0.0118,0.0276 0.0118,0.0728 0,0.10042 -0.0118,0.0276 -0.0214,0.005 -0.0214,-0.0502 z m 1.71036,-0.12051 c 0.0422,-0.0442 0.0863,-0.0803 0.0979,-0.0803 0.0117,0 -0.0133,0.0362 -0.0555,0.0803 -0.0422,0.0442 -0.0863,0.0803 -0.0979,0.0803 -0.0117,0 0.0133,-0.0362 0.0555,-0.0803 z m -1.56866,-0.16067 c 0.0422,-0.0442 0.0863,-0.0803 0.0979,-0.0803 0.0117,0 -0.0133,0.0361 -0.0555,0.0803 -0.0422,0.0442 -0.0863,0.0803 -0.0979,0.0803 -0.0117,0 0.0133,-0.0362 0.0555,-0.0803 z m 2.11981,-0.36153 c 0.0422,-0.0442 0.0863,-0.0803 0.0979,-0.0803 0.0117,0 -0.0133,0.0362 -0.0555,0.0803 -0.0422,0.0442 -0.0863,0.0803 -0.0979,0.0803 -0.0117,0 0.0133,-0.0362 0.0555,-0.0803 z m -1.33548,-0.13567 c 0,-0.008 0.0334,-0.04 0.0742,-0.0703 0.0672,-0.05 0.0687,-0.0485 0.016,0.0152 -0.0554,0.0669 -0.0902,0.0882 -0.0902,0.0551 z m 0.57235,-0.54721 c 0.0422,-0.0442 0.0863,-0.0803 0.0979,-0.0803 0.0117,0 -0.0133,0.0362 -0.0555,0.0803 -0.0422,0.0442 -0.0863,0.0803 -0.0979,0.0803 -0.0117,0 0.0133,-0.0362 0.0555,-0.0803 z m 1.84758,-1.34902 c 0.002,-0.0468 0.0121,-0.0563 0.0256,-0.0243 0.0123,0.029 0.0108,0.0636 -0.003,0.077 -0.0141,0.0133 -0.0241,-0.0104 -0.0223,-0.0527 z m 1.31428,-0.44186 c 0.002,-0.0468 0.0121,-0.0563 0.0256,-0.0243 0.0122,0.029 0.0107,0.0636 -0.003,0.077 -0.0141,0.0133 -0.0241,-0.0104 -0.0223,-0.0527 z m 0.0512,-0.7197 c 3.4e-4,-0.11046 0.009,-0.15089 0.0183,-0.0898 0.01,0.0611 0.009,0.15144 -5.8e-4,0.20085 -0.0101,0.0494 -0.018,-5.6e-4 -0.0177,-0.11102 z m -0.0478,-0.70296 c 0,-0.0552 0.01,-0.0778 0.0214,-0.0502 0.0118,0.0276 0.0118,0.0728 0,0.10042 -0.0118,0.0276 -0.0214,0.005 -0.0214,-0.0502 z m -0.0457,-0.34479 c 0.002,-0.0468 0.0121,-0.0563 0.0256,-0.0243 0.0122,0.029 0.0107,0.0637 -0.003,0.077 -0.0141,0.0133 -0.0241,-0.0104 -0.0223,-0.0527 z"
           id="path511004" />
        <path
           style="fill:#b1ecfe;stroke-width:1.49446"
           d="m 157.56536,738.73513 c -2.73184,-0.32365 -4.98473,-2.47033 -5.48782,-5.22912 -0.12044,-0.66046 -0.0935,-1.79926 0.0629,-2.66185 0.33025,-1.82086 0.93657,-3.31959 2.82762,-6.98946 1.65961,-3.22071 1.63619,-3.16525 1.64062,-3.88541 l 0.003,-0.43084 0.11549,0.32551 c 0.43704,1.23178 1.12914,2.63205 2.71699,5.49709 0.76597,1.38209 1.41387,2.62623 1.74489,3.35068 1.47026,3.21764 1.64093,5.54293 0.54975,7.49006 -0.56889,1.01514 -1.27098,1.72739 -2.36229,2.39643 -0.15823,0.097 -0.27434,0.1559 -0.25802,0.13088 0.0203,-0.0312 0.004,-0.036 -0.0515,-0.0154 -0.12941,0.0481 -1.15307,0.0626 -1.50136,0.0214 z m 1.03898,-1.0271 c 0.5678,-0.28308 1.21423,-0.81793 1.64454,-1.36067 0.4612,-0.58172 0.92467,-1.63811 0.86062,-1.96163 -0.0424,-0.21406 -0.27345,-0.38827 -0.51497,-0.38827 -0.27954,0 -0.46029,0.17129 -0.57069,0.54084 -0.27909,0.93429 -0.92967,1.72168 -1.85835,2.24914 -0.33403,0.18972 -0.44215,0.33936 -0.41665,0.5767 0.043,0.39988 0.43062,0.55571 0.8555,0.34389 z m -8.75181,-3.85451 c 0.002,-0.0468 0.0121,-0.0563 0.0256,-0.0243 0.0122,0.029 0.0107,0.0636 -0.003,0.077 -0.0141,0.0134 -0.0241,-0.0104 -0.0223,-0.0527 z m 0,-0.76322 c 0.002,-0.0468 0.0121,-0.0563 0.0256,-0.0243 0.0122,0.029 0.0107,0.0636 -0.003,0.077 -0.0141,0.0134 -0.0241,-0.0104 -0.0223,-0.0527 z"
           id="path511002" />
        <path
           style="fill:#a8e9fe;stroke-width:1.49446"
           d="m 157.76933,738.75017 c 0.0306,-0.0116 0.0672,-0.0102 0.0813,0.003 0.0141,0.0134 -0.011,0.0229 -0.0556,0.0211 -0.0494,-0.002 -0.0594,-0.0114 -0.0256,-0.0243 z m -4.32188,-2.25217 c -0.0527,-0.0637 -0.0512,-0.0651 0.016,-0.0152 0.0408,0.0303 0.0742,0.062 0.0742,0.0703 0,0.0331 -0.0348,0.0118 -0.0902,-0.0551 z m -3.59158,-2.78173 c 0,-0.0552 0.01,-0.0778 0.0214,-0.0502 0.0118,0.0276 0.0118,0.0728 0,0.10042 -0.0118,0.0276 -0.0214,0.005 -0.0214,-0.0502 z m -0.003,-0.50546 c 0.002,-0.0468 0.0121,-0.0563 0.0256,-0.0243 0.0122,0.029 0.0107,0.0636 -0.003,0.077 -0.0141,0.0133 -0.0241,-0.0104 -0.0223,-0.0527 z m 2.12473,-0.5992 c 8.6e-4,-0.0663 0.0104,-0.0885 0.0211,-0.0494 0.0108,0.0391 0.01,0.0933 -0.002,0.1205 -0.0116,0.0272 -0.0204,-0.005 -0.0195,-0.0711 z m 0,-0.44186 c 8.6e-4,-0.0663 0.0104,-0.0885 0.0211,-0.0494 0.0108,0.0391 0.01,0.0933 -0.002,0.12051 -0.0116,0.0272 -0.0204,-0.005 -0.0195,-0.0711 z m 4.61627,-12.41567 c 0.002,-0.0468 0.0121,-0.0563 0.0256,-0.0243 0.0122,0.029 0.0107,0.0636 -0.003,0.077 -0.0141,0.0133 -0.0241,-0.0104 -0.0223,-0.0527 z"
           id="path511000" />
        <path
           style="fill:#8ee3fe;stroke-width:1.49446"
           d="m 155.73166,739.43388 c 0.0291,-0.0111 0.0768,-0.0111 0.10599,0 0.0292,0.0111 0.005,0.0203 -0.053,0.0203 -0.0583,0 -0.0821,-0.009 -0.053,-0.0203 z m 2.50138,-0.64271 c 0.0291,-0.0111 0.0768,-0.0111 0.10599,0 0.0291,0.0111 0.005,0.0203 -0.053,0.0203 -0.0583,0 -0.0821,-0.009 -0.053,-0.0203 z m -0.63595,-0.0402 c 0.0291,-0.0111 0.0768,-0.0111 0.10599,0 0.0291,0.0112 0.005,0.0203 -0.053,0.0203 -0.0583,0 -0.0822,-0.009 -0.053,-0.0203 z m 1.23214,-8.3e-4 c 0.0306,-0.0116 0.0672,-0.0102 0.0813,0.003 0.0141,0.0133 -0.011,0.0228 -0.0556,0.0211 -0.0494,-0.002 -0.0594,-0.0114 -0.0256,-0.0243 z m -6.97026,-0.86633 -0.0808,-0.0904 0.0954,0.0765 c 0.0896,0.0719 0.11469,0.10424 0.0808,0.10424 -0.008,0 -0.051,-0.0407 -0.0954,-0.0904 z m -1.99767,-4.42867 c 3.4e-4,-0.11047 0.009,-0.15089 0.0183,-0.0898 0.01,0.0611 0.009,0.15144 -5.8e-4,0.20085 -0.0101,0.0494 -0.018,-5.6e-4 -0.0177,-0.11102 z m 2.11924,-0.58246 c 0,-0.0994 0.008,-0.14009 0.0184,-0.0904 0.0101,0.0497 0.0101,0.13106 0,0.18077 -0.0101,0.0497 -0.0184,0.009 -0.0184,-0.0904 z m -8.6e-4,-0.94397 c 4.7e-4,-0.0884 0.009,-0.1198 0.0193,-0.0698 0.0101,0.05 0.01,0.12227 -8.5e-4,0.16068 -0.0106,0.0384 -0.0189,-0.002 -0.0184,-0.0908 z m 0.035,-0.48538 c 0.002,-0.0468 0.0121,-0.0563 0.0256,-0.0243 0.0122,0.029 0.0107,0.0636 -0.003,0.077 -0.0141,0.0134 -0.0241,-0.0104 -0.0223,-0.0527 z m 0.0424,-0.32136 c 0.002,-0.0468 0.0121,-0.0563 0.0256,-0.0243 0.0122,0.029 0.0107,0.0636 -0.003,0.077 -0.0141,0.0134 -0.0241,-0.0104 -0.0223,-0.0527 z m 4.5446,-11.14364 c 0,-0.0994 0.008,-0.14009 0.0184,-0.0904 0.0101,0.0497 0.0101,0.13105 0,0.18076 -0.0101,0.0497 -0.0184,0.009 -0.0184,-0.0904 z"
           id="path510998" />
        <path
           style="fill:#6cdbfe;stroke-width:1.49446"
           d="m 155.90124,739.43388 c 0.0292,-0.0111 0.0768,-0.0111 0.10599,0 0.0292,0.0111 0.005,0.0203 -0.053,0.0203 -0.0583,0 -0.0821,-0.009 -0.053,-0.0203 z m 0.44516,-0.001 c 0.0408,-0.0101 0.10758,-0.0101 0.14839,0 0.0408,0.0101 0.007,0.0184 -0.0742,0.0184 -0.0816,0 -0.115,-0.008 -0.0742,-0.0184 z m 1.69666,-0.64286 c 0.0412,-0.0102 0.0985,-0.01 0.12719,10e-4 0.0287,0.011 -0.005,0.0193 -0.075,0.0185 -0.07,-8.2e-4 -0.0934,-0.01 -0.0522,-0.02 z m 0.38157,0 c 0.0412,-0.0102 0.0985,-0.01 0.12718,10e-4 0.0287,0.011 -0.005,0.0193 -0.075,0.0185 -0.07,-8.2e-4 -0.0934,-0.01 -0.0522,-0.02 z m 0.51854,-0.0123 c -0.0144,-0.0221 -0.006,-0.0402 0.0187,-0.0402 0.0247,0 0.0449,0.0181 0.0449,0.0402 0,0.0221 -0.008,0.0402 -0.0187,0.0402 -0.0103,0 -0.0305,-0.0181 -0.0449,-0.0402 z m -7.31563,-1.1147 -0.14611,-0.15064 0.15899,0.13843 c 0.14798,0.12885 0.17848,0.16284 0.1461,0.16284 -0.007,0 -0.0786,-0.0678 -0.15898,-0.15063 z m 2.43847,-0.50212 -0.21039,-0.21089 0.22258,0.19934 c 0.20683,0.18523 0.24203,0.22244 0.21039,0.22244 -0.007,0 -0.10687,-0.0949 -0.22258,-0.21089 z m -0.36418,-0.34144 c -0.0527,-0.0637 -0.0512,-0.0651 0.016,-0.0152 0.0408,0.0303 0.0742,0.062 0.0742,0.0703 0,0.0331 -0.0348,0.0118 -0.0902,-0.0551 z m -0.21198,-0.24102 c -0.0527,-0.0637 -0.0512,-0.0651 0.016,-0.0152 0.0706,0.0525 0.0931,0.0855 0.0582,0.0855 -0.009,0 -0.0422,-0.0316 -0.0742,-0.0703 z m -1.51417,-4.87053 c 0,-0.0552 0.01,-0.0778 0.0214,-0.0502 0.0118,0.0276 0.0118,0.0728 0,0.10043 -0.0118,0.0276 -0.0214,0.005 -0.0214,-0.0502 z"
           id="path510996" />
        <path
           style="fill:#58d7fe;stroke-width:1.49446"
           d="m 155.63538,739.41801 c -2.4413,-0.17868 -4.61647,-1.75469 -5.40857,-3.91873 -0.25322,-0.69182 -0.31152,-1.07488 -0.31112,-2.04411 3e-4,-0.74569 0.0153,-0.95902 0.0957,-1.36576 0.35303,-1.78455 0.98385,-3.2732 2.7404,-6.46693 1.16096,-2.11083 1.72263,-3.1654 2.03667,-3.82395 0.35078,-0.73559 0.745,-1.68462 0.92508,-2.22699 0.0853,-0.25689 0.19044,-0.50845 0.23366,-0.55902 0.0887,-0.10382 0.30029,-0.12448 0.40794,-0.0398 0.13191,0.10372 0.21264,0.4779 0.21264,0.98559 0,0.73497 0.0333,0.65487 -1.52642,3.67549 -1.62183,3.14097 -2.16487,4.35561 -2.60404,5.82455 -0.57839,1.9346 -0.62602,3.58994 -0.14392,5.00108 0.77273,2.2618 2.71179,3.9027 5.05988,4.28186 0.17489,0.0282 0.6089,0.0516 0.96447,0.0519 0.35557,3.3e-4 0.63221,0.0138 0.61475,0.0299 -0.0654,0.0605 -0.80022,0.32026 -1.17213,0.41437 -0.67351,0.17044 -1.40904,0.23292 -2.12502,0.18051 z"
           id="path510994" />
      </g>
      <g
         id="g510990"
         transform="matrix(0.6691366,0,0,0.6691366,-87.12357,-366.3186)"
         style="stroke-width:1.49446">
        <path
           style="fill:#e6f8fe;stroke-width:1.49446"
           d="m 160.06263,742.8708 -0.12453,-0.13055 0.13779,0.11798 c 0.12844,0.10997 0.15728,0.14312 0.12452,0.14312 -0.007,0 -0.0693,-0.0588 -0.13778,-0.13055 z m 6.52144,0.10362 c -0.12531,-0.0247 -0.34045,-0.23137 -0.35913,-0.34499 -0.0242,-0.1474 0.038,-0.35253 0.1374,-0.45278 0.0512,-0.0516 0.21833,-0.16286 0.3714,-0.24717 0.15307,-0.0843 0.43652,-0.29482 0.62987,-0.4678 0.56892,-0.50895 0.87722,-0.9747 1.122,-1.69501 0.1411,-0.4152 0.23237,-0.51945 0.49579,-0.56627 0.2954,-0.0525 0.57983,0.19057 0.57168,0.4886 -0.009,0.33971 -0.41316,1.24585 -0.76692,1.72063 -0.41009,0.55039 -0.98239,1.0531 -1.58558,1.39278 -0.288,0.16219 -0.44468,0.20591 -0.61651,0.17201 z m 2.36324,0.0144 c 0,-0.007 0.062,-0.0657 0.13778,-0.13055 l 0.13779,-0.11798 -0.12452,0.13055 c -0.11607,0.12168 -0.15105,0.14901 -0.15105,0.11798 z m 0.46635,-0.48464 c 0,-0.008 0.0334,-0.04 0.0742,-0.0703 0.0672,-0.05 0.0687,-0.0485 0.016,0.0152 -0.0554,0.0669 -0.0902,0.0882 -0.0902,0.0551 z m 1.49456,-3.57998 c 4.7e-4,-0.0884 0.009,-0.1198 0.0193,-0.0698 0.0101,0.05 0.01,0.12226 -8.6e-4,0.16066 -0.0106,0.0384 -0.0189,-0.002 -0.0184,-0.0908 z m 0,-0.6427 c 4.7e-4,-0.0884 0.009,-0.11981 0.0193,-0.0698 0.0101,0.05 0.01,0.12226 -8.6e-4,0.16067 -0.0106,0.0384 -0.0189,-0.002 -0.0184,-0.0908 z m -0.0497,-0.52555 c 0.002,-0.0468 0.0121,-0.0563 0.0256,-0.0243 0.0122,0.029 0.0107,0.0636 -0.003,0.077 -0.0141,0.0134 -0.0241,-0.0104 -0.0223,-0.0527 z"
           id="path510721" />
        <path
           style="fill:#d0f3fe;stroke-width:1.49446"
           d="m 168.71413,743.16203 c 0.0422,-0.0442 0.0863,-0.0803 0.0979,-0.0803 0.0117,0 -0.0133,0.0362 -0.0555,0.0803 -0.0422,0.0442 -0.0863,0.0803 -0.0979,0.0803 -0.0117,0 0.0133,-0.0362 0.0555,-0.0803 z m 0.57235,-0.53737 c 0,-0.008 0.0334,-0.04 0.0742,-0.0703 0.0672,-0.05 0.0687,-0.0486 0.016,0.0152 -0.0554,0.0669 -0.0902,0.0882 -0.0902,0.0551 z m -3.08824,-0.18568 c 0,-0.0552 0.01,-0.0778 0.0214,-0.0502 0.0118,0.0276 0.0118,0.0728 0,0.10042 -0.0118,0.0276 -0.0214,0.005 -0.0214,-0.0502 z m 1.71036,-0.12051 c 0.0422,-0.0442 0.0863,-0.0803 0.0979,-0.0803 0.0117,0 -0.0133,0.0362 -0.0555,0.0803 -0.0422,0.0442 -0.0863,0.0803 -0.0979,0.0803 -0.0117,0 0.0133,-0.0362 0.0555,-0.0803 z m -1.56866,-0.16067 c 0.0422,-0.0442 0.0863,-0.0803 0.0979,-0.0803 0.0117,0 -0.0133,0.0362 -0.0555,0.0803 -0.0422,0.0442 -0.0863,0.0803 -0.0979,0.0803 -0.0117,0 0.0133,-0.0362 0.0555,-0.0803 z m 2.11981,-0.36153 c 0.0422,-0.0442 0.0863,-0.0803 0.0979,-0.0803 0.0117,0 -0.0133,0.0362 -0.0555,0.0803 -0.0422,0.0442 -0.0863,0.0803 -0.0979,0.0803 -0.0117,0 0.0133,-0.0362 0.0555,-0.0803 z m -1.33548,-0.13567 c 0,-0.008 0.0334,-0.04 0.0742,-0.0703 0.0672,-0.05 0.0687,-0.0485 0.016,0.0152 -0.0554,0.0669 -0.0902,0.0882 -0.0902,0.0551 z m 0.57235,-0.54721 c 0.0422,-0.0442 0.0863,-0.0803 0.0979,-0.0803 0.0117,0 -0.0133,0.0362 -0.0555,0.0803 -0.0422,0.0442 -0.0863,0.0803 -0.0979,0.0803 -0.0117,0 0.0133,-0.0362 0.0555,-0.0803 z m 1.84758,-1.34902 c 0.002,-0.0468 0.0121,-0.0563 0.0256,-0.0243 0.0122,0.029 0.0107,0.0637 -0.003,0.077 -0.0141,0.0133 -0.0241,-0.0104 -0.0223,-0.0527 z m 1.31428,-0.44186 c 0.002,-0.0468 0.0121,-0.0563 0.0256,-0.0243 0.0122,0.029 0.0107,0.0637 -0.003,0.077 -0.0141,0.0134 -0.0241,-0.0104 -0.0223,-0.0527 z m 0.0512,-0.7197 c 3.4e-4,-0.11046 0.009,-0.15089 0.0183,-0.0898 0.01,0.0611 0.009,0.15144 -5.8e-4,0.20085 -0.0101,0.0494 -0.018,-5.6e-4 -0.0177,-0.11102 z m -0.0478,-0.70296 c 0,-0.0552 0.01,-0.0778 0.0214,-0.0502 0.0118,0.0276 0.0118,0.0728 0,0.10042 -0.0118,0.0276 -0.0214,0.005 -0.0214,-0.0502 z m -0.0457,-0.34479 c 0.002,-0.0468 0.0121,-0.0563 0.0256,-0.0243 0.0122,0.029 0.0107,0.0636 -0.003,0.077 -0.0141,0.0133 -0.0241,-0.0104 -0.0223,-0.0527 z"
           id="path510719" />
        <path
           style="fill:#ff0000;stroke-width:1.49446"
           d="m 166.02203,743.92294 c -2.73184,-0.32366 -4.98473,-2.47033 -5.48782,-5.22912 -0.12044,-0.66046 -0.0935,-1.79926 0.0629,-2.66185 0.33025,-1.82086 0.93657,-3.31959 2.82762,-6.98946 1.65961,-3.22071 1.63619,-3.16525 1.64062,-3.88541 l 0.003,-0.43084 0.11549,0.32551 c 0.43704,1.23178 1.12914,2.63205 2.71699,5.49709 0.76597,1.38209 1.41387,2.62623 1.74489,3.35068 1.47026,3.21764 1.64093,5.54293 0.54975,7.49006 -0.56889,1.01514 -1.27098,1.72739 -2.36229,2.39643 -0.15823,0.097 -0.27434,0.1559 -0.25802,0.13088 0.0203,-0.0312 0.004,-0.036 -0.0515,-0.0154 -0.12941,0.0481 -1.15307,0.0626 -1.50136,0.0214 z m 1.03898,-1.0271 c 0.5678,-0.28309 1.21423,-0.81794 1.64454,-1.36068 0.4612,-0.58172 0.92467,-1.6381 0.86062,-1.96163 -0.0424,-0.21406 -0.27345,-0.38827 -0.51497,-0.38827 -0.27954,0 -0.46029,0.17129 -0.57069,0.54084 -0.27909,0.93429 -0.92967,1.72168 -1.85835,2.24914 -0.33403,0.18972 -0.44215,0.33937 -0.41665,0.5767 0.043,0.39988 0.43062,0.55571 0.8555,0.3439 z m -8.75181,-3.85451 c 0.002,-0.0468 0.0121,-0.0563 0.0256,-0.0243 0.0122,0.029 0.0107,0.0636 -0.003,0.077 -0.0141,0.0133 -0.0241,-0.0104 -0.0223,-0.0527 z m 0,-0.76323 c 0.002,-0.0468 0.0121,-0.0563 0.0256,-0.0243 0.0122,0.029 0.0107,0.0636 -0.003,0.077 -0.0141,0.0134 -0.0241,-0.0104 -0.0223,-0.0527 z"
           id="path510717" />
        <path
           style="fill:#a8e9fe;stroke-width:1.49446"
           d="m 166.226,743.93798 c 0.0306,-0.0116 0.0672,-0.0102 0.0813,0.003 0.0141,0.0133 -0.011,0.0228 -0.0557,0.0211 -0.0494,-0.002 -0.0594,-0.0114 -0.0256,-0.0243 z m -4.32188,-2.25217 c -0.0527,-0.0637 -0.0512,-0.0651 0.016,-0.0152 0.0408,0.0303 0.0742,0.062 0.0742,0.0703 0,0.0331 -0.0348,0.0118 -0.0902,-0.0551 z m -3.59158,-2.78173 c 0,-0.0552 0.01,-0.0778 0.0214,-0.0502 0.0118,0.0276 0.0118,0.0728 0,0.10041 -0.0118,0.0276 -0.0214,0.005 -0.0214,-0.0502 z m -0.003,-0.50546 c 0.002,-0.0468 0.0121,-0.0563 0.0256,-0.0243 0.0122,0.029 0.0107,0.0636 -0.003,0.077 -0.0141,0.0133 -0.0241,-0.0104 -0.0223,-0.0527 z m 2.12473,-0.5992 c 8.6e-4,-0.0663 0.0104,-0.0885 0.0211,-0.0494 0.0108,0.0391 0.01,0.0933 -0.002,0.1205 -0.0116,0.0272 -0.0204,-0.005 -0.0196,-0.0711 z m 0,-0.44186 c 8.6e-4,-0.0663 0.0104,-0.0885 0.0211,-0.0494 0.0108,0.0391 0.01,0.0933 -0.002,0.12051 -0.0116,0.0272 -0.0204,-0.005 -0.0196,-0.0711 z m 4.61627,-12.41567 c 0.002,-0.0468 0.0121,-0.0563 0.0256,-0.0243 0.0122,0.029 0.0107,0.0636 -0.003,0.077 -0.0141,0.0133 -0.0241,-0.0104 -0.0223,-0.0527 z"
           id="path510715" />
        <path
           style="fill:#8ee3fe;stroke-width:1.49446"
           d="m 164.18833,744.62169 c 0.0291,-0.0111 0.0768,-0.0111 0.10599,0 0.0292,0.0111 0.005,0.0203 -0.053,0.0203 -0.0583,0 -0.0821,-0.009 -0.053,-0.0203 z m 2.50138,-0.64271 c 0.0291,-0.0111 0.0768,-0.0111 0.10599,0 0.0291,0.0111 0.005,0.0203 -0.053,0.0203 -0.0583,0 -0.0821,-0.009 -0.053,-0.0203 z m -0.63595,-0.0402 c 0.0291,-0.0111 0.0768,-0.0111 0.10599,0 0.0292,0.0112 0.005,0.0203 -0.053,0.0203 -0.0583,0 -0.0822,-0.009 -0.053,-0.0203 z m 1.23214,-8.3e-4 c 0.0306,-0.0116 0.0672,-0.0102 0.0813,0.003 0.0141,0.0133 -0.011,0.0228 -0.0556,0.0211 -0.0494,-0.002 -0.0594,-0.0114 -0.0256,-0.0243 z m -6.97026,-0.86633 -0.0808,-0.0904 0.0954,0.0765 c 0.0896,0.0719 0.11469,0.10424 0.0808,0.10424 -0.008,0 -0.051,-0.0407 -0.0954,-0.0904 z m -1.99767,-4.42867 c 3.4e-4,-0.11047 0.009,-0.15089 0.0183,-0.0898 0.01,0.0611 0.009,0.15144 -5.8e-4,0.20085 -0.0101,0.0494 -0.018,-5.6e-4 -0.0177,-0.11102 z m 2.11924,-0.58246 c 0,-0.0994 0.008,-0.14009 0.0184,-0.0904 0.0101,0.0497 0.0101,0.13106 0,0.18077 -0.0101,0.0497 -0.0184,0.009 -0.0184,-0.0904 z m -8.6e-4,-0.94397 c 4.7e-4,-0.0884 0.009,-0.1198 0.0193,-0.0698 0.0101,0.05 0.01,0.12227 -8.5e-4,0.16068 -0.0106,0.0384 -0.0189,-0.002 -0.0184,-0.0908 z m 0.0351,-0.48538 c 0.002,-0.0468 0.0121,-0.0563 0.0256,-0.0243 0.0122,0.029 0.0107,0.0636 -0.003,0.077 -0.0141,0.0133 -0.0241,-0.0104 -0.0223,-0.0527 z m 0.0424,-0.32136 c 0.002,-0.0468 0.0121,-0.0563 0.0256,-0.0243 0.0122,0.029 0.0107,0.0637 -0.003,0.077 -0.0141,0.0134 -0.0241,-0.0104 -0.0223,-0.0527 z m 4.5446,-11.14364 c 0,-0.0994 0.008,-0.14009 0.0184,-0.0904 0.0101,0.0497 0.0101,0.13105 0,0.18076 -0.0101,0.0497 -0.0184,0.009 -0.0184,-0.0904 z"
           id="path510713" />
        <path
           style="fill:#6cdbfe;stroke-width:1.49446"
           d="m 164.35791,744.62169 c 0.0291,-0.0111 0.0769,-0.0111 0.10599,0 0.0292,0.0111 0.005,0.0203 -0.053,0.0203 -0.0583,0 -0.0821,-0.009 -0.053,-0.0203 z m 0.44516,-10e-4 c 0.0408,-0.0101 0.10758,-0.0101 0.14839,0 0.0408,0.0101 0.007,0.0184 -0.0742,0.0184 -0.0816,0 -0.115,-0.008 -0.0742,-0.0184 z m 1.69666,-0.64286 c 0.0413,-0.0102 0.0985,-0.01 0.12719,10e-4 0.0287,0.011 -0.005,0.0193 -0.075,0.0185 -0.07,-8.2e-4 -0.0934,-0.01 -0.0522,-0.02 z m 0.38157,0 c 0.0412,-0.0102 0.0985,-0.01 0.12718,10e-4 0.0287,0.011 -0.005,0.0193 -0.075,0.0185 -0.07,-8.2e-4 -0.0934,-0.01 -0.0522,-0.02 z m 0.51854,-0.0123 c -0.0144,-0.0221 -0.006,-0.0402 0.0187,-0.0402 0.0247,0 0.0449,0.0181 0.0449,0.0402 0,0.0221 -0.008,0.0402 -0.0187,0.0402 -0.0103,0 -0.0305,-0.0181 -0.0449,-0.0402 z m -7.31563,-1.1147 -0.14611,-0.15064 0.15899,0.13843 c 0.14798,0.12885 0.17848,0.16284 0.1461,0.16284 -0.007,0 -0.0786,-0.0678 -0.15898,-0.15063 z m 2.43847,-0.50212 -0.21039,-0.21089 0.22258,0.19934 c 0.20683,0.18523 0.24203,0.22244 0.21039,0.22244 -0.007,0 -0.10687,-0.0949 -0.22258,-0.21089 z m -0.36418,-0.34144 c -0.0527,-0.0637 -0.0512,-0.0651 0.016,-0.0152 0.0408,0.0303 0.0742,0.062 0.0742,0.0703 0,0.0331 -0.0348,0.0118 -0.0902,-0.0551 z m -0.21198,-0.24102 c -0.0527,-0.0637 -0.0512,-0.0651 0.016,-0.0152 0.0706,0.0525 0.0931,0.0855 0.0582,0.0855 -0.009,0 -0.0422,-0.0316 -0.0742,-0.0703 z m -1.51417,-4.87054 c 0,-0.0552 0.01,-0.0778 0.0214,-0.0502 0.0118,0.0276 0.0118,0.0728 0,0.10043 -0.0118,0.0276 -0.0214,0.005 -0.0214,-0.0502 z"
           id="path510711" />
        <path
           style="fill:#aa0000;stroke-width:1.49446"
           d="m 164.18835,744.62173 c -2.4413,-0.17867 -4.61647,-1.75468 -5.40857,-3.91872 -0.25322,-0.69182 -0.31152,-1.07488 -0.31112,-2.04412 3e-4,-0.74569 0.0153,-0.95902 0.0957,-1.36576 0.35303,-1.78455 0.98385,-3.2732 2.7404,-6.46693 1.16096,-2.11083 1.72263,-3.1654 2.03667,-3.82395 0.35078,-0.73559 0.745,-1.68462 0.92508,-2.22699 0.0853,-0.25689 0.19044,-0.50845 0.23366,-0.55902 0.0887,-0.10382 0.30029,-0.12448 0.40794,-0.0398 0.13191,0.10372 0.21264,0.4779 0.21264,0.98559 0,0.73497 0.0333,0.65487 -1.52642,3.67549 -1.62183,3.14097 -2.16487,4.35561 -2.60404,5.82455 -0.57839,1.9346 -0.62602,3.58994 -0.14392,5.00108 0.77273,2.2618 2.71179,3.9027 5.05988,4.28186 0.17489,0.0282 0.6089,0.0516 0.96447,0.0519 0.35557,3.3e-4 0.63221,0.0138 0.61475,0.0299 -0.0654,0.0605 -0.80022,0.32026 -1.17213,0.41437 -0.67351,0.17044 -1.40904,0.23292 -2.12502,0.18051 z"
           id="path510709" />
      </g>
    </g>
  </g>
</svg>
