<svg width="73" height="20" viewBox="0 0 73 20" fill="none" xmlns="http://www.w3.org/2000/svg">
<path d="M10.5 19.7999C5.20005 19.7999 0.800049 15.4999 0.800049 10.0999C0.800049 4.79991 5.10005 0.399902 10.5 0.399902C15.9 0.399902 20.2 4.69991 20.2 10.0999C20.2 15.3999 15.9 19.7999 10.5 19.7999ZM10.5 1.3999C5.70005 1.3999 1.80005 5.29991 1.80005 10.0999C1.80005 14.8999 5.70005 18.7999 10.5 18.7999C15.3 18.7999 19.2 14.8999 19.2 10.0999C19.2 5.29991 15.3 1.3999 10.5 1.3999Z" fill="#36393B"/>
<path d="M36.5 19.7999C31.2 19.7999 26.8 15.4999 26.8 10.0999C26.8 4.79991 31.1 0.399902 36.5 0.399902C41.8 0.399902 46.2 4.69991 46.2 10.0999C46.2 15.3999 41.8 19.7999 36.5 19.7999ZM36.5 1.3999C31.7 1.3999 27.8 5.29991 27.8 10.0999C27.8 14.8999 31.7 18.7999 36.5 18.7999C41.3 18.7999 45.2 14.8999 45.2 10.0999C45.2 5.29991 41.3 1.3999 36.5 1.3999Z" fill="#36393B"/>
<path d="M62.4001 19.7999C57.1001 19.7999 52.7001 15.4999 52.7001 10.0999C52.7001 4.79991 57.0001 0.399902 62.4001 0.399902C67.7001 0.399902 72.1001 4.69991 72.1001 10.0999C72.1001 15.3999 67.7001 19.7999 62.4001 19.7999ZM62.4001 1.3999C57.6001 1.3999 53.7001 5.29991 53.7001 10.0999C53.7001 14.8999 57.6001 18.7999 62.4001 18.7999C67.2001 18.7999 71.1001 14.8999 71.1001 10.0999C71.1001 5.29991 67.2001 1.3999 62.4001 1.3999Z" fill="#36393B"/>
<path d="M7.80008 7.89993C8.68373 7.89993 9.40008 7.18358 9.40008 6.29993C9.40008 5.41627 8.68373 4.69995 7.80008 4.69995C6.91642 4.69995 6.20007 5.41627 6.20007 6.29993C6.20007 7.18358 6.91642 7.89993 7.80008 7.89993Z" fill="#36393B"/>
<path d="M7.80008 9.49994C8.30008 9.49994 8.70007 9.89993 8.70007 10.3999C8.70007 10.8999 8.30008 11.2999 7.80008 11.2999C7.30008 11.2999 6.90008 10.8999 6.90008 10.3999C6.90008 9.89993 7.30008 9.49994 7.80008 9.49994ZM7.80008 8.69995C6.90008 8.69995 6.20007 9.39993 6.20007 10.2999C6.20007 11.1999 6.90008 11.8999 7.80008 11.8999C8.70008 11.8999 9.40008 11.1999 9.40008 10.2999C9.40008 9.39993 8.70008 8.69995 7.80008 8.69995Z" fill="#36393B"/>
<path d="M7.80008 13.4998C8.30008 13.4998 8.70007 13.8998 8.70007 14.3998C8.70007 14.8998 8.30008 15.2998 7.80008 15.2998C7.30008 15.2998 6.90008 14.8998 6.90008 14.3998C6.90008 13.8998 7.30008 13.4998 7.80008 13.4998ZM7.80008 12.7998C6.90008 12.7998 6.20007 13.4998 6.20007 14.3998C6.20007 15.2998 6.90008 15.9998 7.80008 15.9998C8.70008 15.9998 9.40008 15.2998 9.40008 14.3998C9.40008 13.4998 8.70008 12.7998 7.80008 12.7998Z" fill="#36393B"/>
<path d="M15.0001 7.09985H11.0001C10.8001 7.09985 10.7001 6.89984 10.7001 6.79984V5.89984C10.7001 5.69984 10.9001 5.59985 11.0001 5.59985H15.0001C15.2001 5.59985 15.3001 5.79984 15.3001 5.89984V6.79984C15.4001 6.99984 15.2001 7.09985 15.0001 7.09985Z" fill="#36393B"/>
<path d="M15.0001 15.2H11.0001C10.8001 15.2 10.7001 14.9999 10.7001 14.8999V13.9999C10.7001 13.7999 10.9001 13.7 11.0001 13.7H15.0001C15.2001 13.7 15.3001 13.8999 15.3001 13.9999V14.8999C15.4001 14.9999 15.2001 15.2 15.0001 15.2Z" fill="#36393B"/>
<path d="M15.0001 11.0999H11.0001C10.8001 11.0999 10.7001 10.8998 10.7001 10.7998V9.89984C10.7001 9.69984 10.9001 9.59985 11.0001 9.59985H15.0001C15.2001 9.59985 15.3001 9.79984 15.3001 9.89984V10.7998C15.4001 10.9998 15.2001 11.0999 15.0001 11.0999Z" fill="#36393B"/>
<path d="M40.9 13.5L36.2 8.79999C36.4 8.09999 36.5 7.4 35.9 6.5C35.4 5.6 34.4 5 33.4 5C32.4 5 31.5 5.59999 31 6.39999H33.9L34.4 7.79999L33.9 9.20001H31C31.5 10.1 32.4 10.6 33.5 10.6C34 10.6 34.5 10.4 34.9 10.2L39.4 14.7C39.6 14.9 40.1 14.9 40.3 14.7L40.8 14.2C41.1 14.2 41.1 13.8 40.9 13.5Z" fill="#36393B"/>
<path d="M62.7 4.8999C62.8 4.8999 63 4.89991 63.1 4.99991C63.8 5.09991 64.4 5.2999 64.9 5.7999C65.4 6.1999 65.7 6.6999 65.9 7.2999C66.1 8.0999 65.9 8.7999 65.3 9.3999C64.9 9.8999 64.4 10.1999 64 10.6999C63.9 10.7999 63.7 10.9999 63.6 11.0999C63.4 11.2999 63.3 11.5999 63.2 11.9999C63.2 12.3999 62.9 12.5999 62.5 12.5999C62.3 12.5999 62.2 12.5999 62 12.5999C61.6 12.5999 61.4 12.2999 61.4 11.9999C61.4 11.2999 61.6 10.5999 62.2 10.0999C62.6 9.69991 63 9.39991 63.5 8.99991C63.7 8.79991 63.9 8.6999 64 8.3999C64.2 7.8999 64.1 7.2999 63.7 6.8999C63.4 6.6999 63.1 6.59991 62.7 6.49991C62.3 6.49991 61.9 6.49992 61.6 6.69992C61.2 6.89992 61 7.19991 60.8 7.49991C60.8 7.59991 60.8 7.59992 60.7 7.69992C60.5 7.99992 60.3 8.19991 59.9 8.09991C59.6 8.09991 59.4 7.99991 59.1 7.99991C58.9 7.99991 58.7 7.79991 58.8 7.59991C59.1 6.49991 59.8 5.6999 60.8 5.2999C61.1 5.1999 61.5 5.09991 61.8 5.09991H61.9C62.2 4.89991 62.5 4.8999 62.7 4.8999Z" fill="black"/>
<path d="M61.4 13.9998C61.4 13.8998 61.4 13.7999 61.4 13.6999C61.4 13.3999 61.6 13.0999 62 13.0999C62.2 13.0999 62.4 13.0999 62.6 13.0999C62.9 13.0999 63.1 13.3999 63.1 13.6999C63.1 13.8999 63.1 14.1998 63.1 14.3998C63.1 14.6998 62.8 14.9998 62.5 14.9998C62.3 14.9998 62.2 14.9998 62 14.9998C61.7 14.9998 61.4 14.6998 61.4 14.3998C61.4 14.1998 61.4 14.0998 61.4 13.9998Z" fill="black"/>
</svg>
