<?xml version="1.0" encoding="UTF-8" standalone="no"?>
<!-- Created with Inkscape (http://www.inkscape.org/) -->

<svg
   width="7.4366984mm"
   height="8.7175407mm"
   viewBox="0 0 7.4366984 8.7175407"
   version="1.1"
   id="svg56121"
   inkscape:version="1.1.1 (3bf5ae0d25, 2021-09-20)"
   sodipodi:docname="П иктограмма на кнопку Повернуть голову инъектора.svg"
   xmlns:inkscape="http://www.inkscape.org/namespaces/inkscape"
   xmlns:sodipodi="http://sodipodi.sourceforge.net/DTD/sodipodi-0.dtd"
   xmlns="http://www.w3.org/2000/svg"
   xmlns:svg="http://www.w3.org/2000/svg">
  <sodipodi:namedview
     id="namedview56123"
     pagecolor="#ffffff"
     bordercolor="#666666"
     borderopacity="1.0"
     inkscape:pageshadow="2"
     inkscape:pageopacity="0.0"
     inkscape:pagecheckerboard="true"
     inkscape:document-units="mm"
     showgrid="false"
     inkscape:zoom="0.74118967"
     inkscape:cx="75.55421"
     inkscape:cy="379.79482"
     inkscape:window-width="1920"
     inkscape:window-height="1017"
     inkscape:window-x="-8"
     inkscape:window-y="-8"
     inkscape:window-maximized="1"
     inkscape:current-layer="layer1" />
  <defs
     id="defs56118" />
  <g
     inkscape:label="Слой 1"
     inkscape:groupmode="layer"
     id="layer1"
     transform="translate(-25.715292,-48.147418)">
    <path
       style="fill:#b3b3b3;fill-opacity:1;stroke-width:0.999999"
       d="m 29.1414,56.860188 c -0.74793,-0.068 -1.45587,-0.35015 -2.0315,-0.80966 -0.16666,-0.13304 -0.45218,-0.41747 -0.5819,-0.57967 -0.63836,-0.79821 -0.92247,-1.85057 -0.77415,-2.86755 0.18922,-1.29747 1.06676,-2.41364 2.28644,-2.90822 0.19277,-0.0782 0.48438,-0.1652 0.66579,-0.1987 0.0563,-0.0104 0.11971,-0.0226 0.14084,-0.0271 l 0.0384,-0.008 v -0.65695 c 0,-0.36131 0.005,-0.65692 0.0107,-0.65692 0.0189,0 3.42067,1.9682 3.41996,1.9787 -3.8e-4,0.006 -0.77051,0.45383 -1.71141,0.99616 l -1.71072,0.98606 -0.004,-0.70011 c -0.004,-0.63076 -0.007,-0.70011 -0.032,-0.70011 -0.0564,0 -0.38367,0.12009 -0.53791,0.19741 -0.47752,0.23937 -0.88812,0.64745 -1.12452,1.11762 -0.39414,0.7839 -0.34068,1.7492 0.13752,2.48335 0.56817,0.87228 1.60024,1.30262 2.61925,1.09214 0.6957,-0.14371 1.33559,-0.61766 1.68194,-1.24578 0.131,-0.23757 0.25609,-0.61215 0.28363,-0.8493 l 0.0114,-0.0982 h 0.61141 0.61142 l -0.009,0.0896 c -0.17336,1.71169 -1.45756,3.07127 -3.14784,3.33261 -0.17345,0.0268 -0.69727,0.0469 -0.85325,0.0327 z"
       id="path598703-4" />
  </g>
</svg>
