<?xml version="1.0" encoding="UTF-8" standalone="no"?>
<!-- Created with Inkscape (http://www.inkscape.org/) -->

<svg
   width="9.5374422mm"
   height="9.5374422mm"
   viewBox="0 0 9.5374422 9.5374422"
   version="1.1"
   id="svg32152"
   inkscape:version="1.1.1 (3bf5ae0d25, 2021-09-20)"
   sodipodi:docname="Информационная система.svg"
   xmlns:inkscape="http://www.inkscape.org/namespaces/inkscape"
   xmlns:sodipodi="http://sodipodi.sourceforge.net/DTD/sodipodi-0.dtd"
   xmlns="http://www.w3.org/2000/svg"
   xmlns:svg="http://www.w3.org/2000/svg">
  <sodipodi:namedview
     id="namedview32154"
     pagecolor="#ffffff"
     bordercolor="#666666"
     borderopacity="1.0"
     inkscape:pageshadow="2"
     inkscape:pageopacity="0.0"
     inkscape:pagecheckerboard="0"
     inkscape:document-units="mm"
     showgrid="false"
     inkscape:zoom="5.9295174"
     inkscape:cx="18.804229"
     inkscape:cy="57.59322"
     inkscape:window-width="1920"
     inkscape:window-height="1017"
     inkscape:window-x="-8"
     inkscape:window-y="-8"
     inkscape:window-maximized="1"
     inkscape:current-layer="layer1" />
  <defs
     id="defs32149" />
  <g
     inkscape:label="Слой 1"
     inkscape:groupmode="layer"
     id="layer1"
     transform="translate(0.97004561,-75.778758)">
    <g
       id="g31790"
       transform="matrix(2.7493347,0,0,2.7493347,-380.40178,166.74546)"
       style="stroke-width:0.363725">
      <path
         style="color:#000000;fill:#646f66;fill-opacity:1;stroke-width:0.363725;stroke-miterlimit:4;stroke-dasharray:none"
         d="m 139.74307,-33.086681 c -0.95592,0 -1.73438,0.778459 -1.73438,1.734375 0,0.955917 0.77846,1.734375 1.73438,1.734375 0.95592,0 1.73437,-0.778458 1.73437,-1.734375 0,-0.955916 -0.77845,-1.734375 -1.73437,-1.734375 z m 0,0.300782 c 0.79378,0 1.43359,0.639808 1.43359,1.433593 0,0.793785 -0.63981,1.433594 -1.43359,1.433594 -0.79379,0 -1.4336,-0.639809 -1.4336,-1.433594 0,-0.793785 0.63981,-1.433593 1.4336,-1.433593 z"
         id="path1113-46-3-1" />
      <g
         id="g31784"
         transform="translate(-0.03346605,-0.16733023)"
         style="stroke-width:0.363725">
        <rect
           style="fill:#646f66;fill-opacity:1;stroke:none;stroke-width:0.0727449;stroke-miterlimit:4;stroke-dasharray:none;stroke-opacity:1;stop-color:#000000"
           id="rect31576"
           width="0.4239032"
           height="1.5"
           x="139.56458"
           y="-31.681192"
           rx="0.13571437"
           ry="0.13600001" />
        <rect
           style="fill:#646f66;fill-opacity:1;stroke:none;stroke-width:0.0727449;stroke-miterlimit:4;stroke-dasharray:none;stroke-opacity:1;stop-color:#000000"
           id="rect31576-8"
           width="0.4239032"
           height="0.37928173"
           x="139.56458"
           y="-32.188759"
           rx="0.13600001"
           ry="0.13600001" />
      </g>
    </g>
  </g>
</svg>
