<?xml version="1.0" encoding="UTF-8" standalone="no"?>
<!-- Created with Inkscape (http://www.inkscape.org/) -->

<svg
   width="36.418987mm"
   height="36.40765mm"
   viewBox="0 0 36.418987 36.40765"
   version="1.1"
   id="svg76315"
   inkscape:version="1.1.1 (3bf5ae0d25, 2021-09-20)"
   sodipodi:docname="Увеличение 1.svg"
   xmlns:inkscape="http://www.inkscape.org/namespaces/inkscape"
   xmlns:sodipodi="http://sodipodi.sourceforge.net/DTD/sodipodi-0.dtd"
   xmlns="http://www.w3.org/2000/svg"
   xmlns:svg="http://www.w3.org/2000/svg">
  <sodipodi:namedview
     id="namedview76317"
     pagecolor="#ffffff"
     bordercolor="#666666"
     borderopacity="1.0"
     inkscape:pageshadow="2"
     inkscape:pageopacity="0.0"
     inkscape:pagecheckerboard="0"
     inkscape:document-units="mm"
     showgrid="false"
     inkscape:zoom="0.64052329"
     inkscape:cx="416.06606"
     inkscape:cy="336.44366"
     inkscape:window-width="1920"
     inkscape:window-height="1001"
     inkscape:window-x="-9"
     inkscape:window-y="-9"
     inkscape:window-maximized="1"
     inkscape:current-layer="layer1" />
  <defs
     id="defs76312" />
  <g
     inkscape:label="Слой 1"
     inkscape:groupmode="layer"
     id="layer1"
     transform="translate(4.9911389,-59.454037)">
    <g
       id="g104814"
       style="display:inline"
       transform="translate(-178.30708,1748.6333)">
      <circle
         style="fill:#cccccc;fill-opacity:0.718876;stroke:none;stroke-width:1;stroke-linecap:round;stop-color:#000000"
         id="path271960"
         cx="189.9348"
         cy="-1672.896"
         r="13.386417" />
      <path
         style="fill:#ffa500;fill-opacity:1;stroke-width:0.999998"
         d="m 205.3714,-1652.8367 c -0.99417,-0.2258 -1.11458,-0.3228 -4.13391,-3.3317 l -2.78644,-2.7768 -0.47317,0.2897 c -1.0752,0.658 -2.71105,1.3623 -3.89711,1.6778 -5.38312,1.4317 -10.9585,0.1803 -15.14166,-3.3985 -2.9368,-2.5125 -4.89209,-6.0971 -5.49041,-10.0654 -0.17611,-1.168 -0.17724,-3.5115 -0.002,-4.6992 0.25891,-1.7573 0.78566,-3.4438 1.55683,-4.9846 0.86588,-1.73 1.72454,-2.9221 3.08435,-4.2819 1.3598,-1.3598 2.55185,-2.2184 4.28189,-3.0843 1.54079,-0.7712 3.22733,-1.298 4.98463,-1.5569 1.1877,-0.1749 3.53112,-0.1738 4.69918,0 5.43618,0.8196 10.00001,4.1341 12.36726,8.9816 1.76392,3.6122 2.14832,7.6961 1.0966,11.6504 -0.31545,1.1861 -1.01974,2.8219 -1.67783,3.8971 l -0.28961,0.4732 2.77678,2.7864 c 3.04636,3.057 3.11497,3.1434 3.33778,4.2032 0.36147,1.7193 -0.70233,3.5096 -2.44084,4.1078 -0.5377,0.185 -1.31753,0.2312 -1.85207,0.1098 z m -14.03061,-7.3156 c 3.27023,-0.4116 6.44918,-2.2528 8.46859,-4.9049 1.76848,-2.3226 2.6244,-4.8604 2.62103,-7.7714 -0.002,-2.0345 -0.3613,-3.6527 -1.22498,-5.5221 -0.96829,-2.0958 -2.70372,-4.0311 -4.75652,-5.3043 -3.23112,-2.004 -7.27173,-2.4491 -10.94703,-1.2058 -3.70091,1.252 -6.61581,4.1669 -7.86776,7.8678 -1.58607,4.6885 -0.4186,9.7938 3.02774,13.2401 2.78723,2.7873 6.68881,4.1028 10.67893,3.6006 z m -2.51369,-3.736 c -0.20683,-0.105 -0.45909,-0.2997 -0.56055,-0.4327 -0.36712,-0.4813 -0.37507,-0.5594 -0.37843,-3.7158 l -0.003,-2.9392 h -2.87444 c -3.12372,0 -3.30509,-0.019 -3.79959,-0.396 -0.52046,-0.397 -0.77248,-1.4611 -0.50032,-2.1125 0.14386,-0.3443 0.51813,-0.7498 0.86166,-0.9337 0.28508,-0.1525 0.36071,-0.1565 3.29932,-0.1768 l 3.00756,-0.021 0.0207,-3.0075 c 0.0203,-2.9386 0.0243,-3.0143 0.17684,-3.2993 0.18382,-0.3436 0.58938,-0.7178 0.93368,-0.8617 0.65137,-0.2722 1.71544,-0.02 2.11242,0.5003 0.37717,0.4945 0.39608,0.6759 0.39608,3.7996 v 2.8745 h 2.86795 c 1.75582,1e-4 2.97088,0.029 3.13336,0.074 0.41877,0.1162 0.85195,0.488 1.07621,0.9235 0.18154,0.3525 0.19865,0.446 0.17226,0.9409 -0.0384,0.7195 -0.27027,1.118 -0.83696,1.438 l -0.39189,0.2213 -3.00756,0.021 -3.00756,0.021 -0.0207,3.0075 -0.0207,3.0075 -0.22132,0.3919 c -0.3269,0.5789 -0.71909,0.8015 -1.4754,0.8377 -0.52249,0.025 -0.62265,0.01 -0.95947,-0.1628 z"
         id="path602561" />
    </g>
  </g>
</svg>
