<?xml version="1.0" encoding="UTF-8" standalone="no"?>
<!-- Created with Inkscape (http://www.inkscape.org/) -->

<svg
   width="9.5374422mm"
   height="9.5374422mm"
   viewBox="0 0 9.5374422 9.5374422"
   version="1.1"
   id="svg32152"
   inkscape:version="1.1.1 (3bf5ae0d25, 2021-09-20)"
   sodipodi:docname="Доставка жидкости.svg"
   xmlns:inkscape="http://www.inkscape.org/namespaces/inkscape"
   xmlns:sodipodi="http://sodipodi.sourceforge.net/DTD/sodipodi-0.dtd"
   xmlns="http://www.w3.org/2000/svg"
   xmlns:svg="http://www.w3.org/2000/svg">
  <sodipodi:namedview
     id="namedview32154"
     pagecolor="#ffffff"
     bordercolor="#666666"
     borderopacity="1.0"
     inkscape:pageshadow="2"
     inkscape:pageopacity="0.0"
     inkscape:pagecheckerboard="0"
     inkscape:document-units="mm"
     showgrid="false"
     inkscape:zoom="5.9295174"
     inkscape:cx="18.804229"
     inkscape:cy="57.59322"
     inkscape:window-width="1920"
     inkscape:window-height="1017"
     inkscape:window-x="-8"
     inkscape:window-y="-8"
     inkscape:window-maximized="1"
     inkscape:current-layer="layer1" />
  <defs
     id="defs32149" />
  <g
     inkscape:label="Слой 1"
     inkscape:groupmode="layer"
     id="layer1"
     transform="translate(0.97004561,-75.778758)">
    <g
       id="g31552"
       transform="matrix(2.7493347,0,0,2.7493347,-348.90392,181.17519)"
       style="stroke-width:0.363725">
      <path
         style="color:#000000;fill:#6c92be;fill-opacity:1;stroke-width:0.363725;stroke-miterlimit:4;stroke-dasharray:none"
         d="m 128.28653,-38.335124 c -0.95592,0 -1.73438,0.778459 -1.73438,1.734375 0,0.955917 0.77846,1.734375 1.73438,1.734375 0.95592,0 1.73437,-0.778458 1.73437,-1.734375 0,-0.955916 -0.77845,-1.734375 -1.73437,-1.734375 z m 0,0.300782 c 0.79378,0 1.43359,0.639808 1.43359,1.433593 0,0.793785 -0.63981,1.433594 -1.43359,1.433594 -0.79379,0 -1.4336,-0.639809 -1.4336,-1.433594 0,-0.793785 0.63981,-1.433593 1.4336,-1.433593 z"
         id="path1113-46-3" />
      <path
         style="fill:#6c92be;fill-opacity:1;stroke-width:0.363722"
         d="m 128.20293,-35.670442 c -0.22442,-0.02717 -0.42391,-0.16865 -0.52661,-0.373467 -0.0442,-0.08822 -0.0697,-0.195331 -0.0698,-0.293374 -1.3e-4,-0.09938 0.0302,-0.201134 0.10545,-0.353162 0.0909,-0.183841 0.20478,-0.35929 0.45516,-0.701479 0.0353,-0.04826 0.0703,-0.09811 0.0777,-0.110803 0.018,-0.03075 0.0354,-0.03959 0.0577,-0.02939 0.009,0.0042 0.0483,0.05233 0.11962,0.147507 0.31102,0.414905 0.50519,0.765246 0.53872,0.97202 0.0207,0.127533 -0.0165,0.296201 -0.0923,0.418935 -0.0525,0.08492 -0.12515,0.160714 -0.20565,0.214451 -0.13554,0.09049 -0.2965,0.128551 -0.4599,0.108764 z"
         id="path30202" />
    </g>
  </g>
</svg>
