<?xml version="1.0" encoding="UTF-8" standalone="no"?>
<!-- Created with Inkscape (http://www.inkscape.org/) -->

<svg
   width="12.502397mm"
   height="12.498556mm"
   viewBox="0 0 12.502397 12.498556"
   version="1.1"
   id="svg78151"
   inkscape:version="1.1.1 (3bf5ae0d25, 2021-09-20)"
   sodipodi:docname="Лупа-уменьешение 1.svg"
   xmlns:inkscape="http://www.inkscape.org/namespaces/inkscape"
   xmlns:sodipodi="http://sodipodi.sourceforge.net/DTD/sodipodi-0.dtd"
   xmlns="http://www.w3.org/2000/svg"
   xmlns:svg="http://www.w3.org/2000/svg">
  <sodipodi:namedview
     id="namedview78153"
     pagecolor="#ffffff"
     bordercolor="#666666"
     borderopacity="1.0"
     inkscape:pageshadow="2"
     inkscape:pageopacity="0.0"
     inkscape:pagecheckerboard="0"
     inkscape:document-units="mm"
     showgrid="false"
     inkscape:zoom="0.64052329"
     inkscape:cx="295.85185"
     inkscape:cy="178.76009"
     inkscape:window-width="1920"
     inkscape:window-height="1001"
     inkscape:window-x="-9"
     inkscape:window-y="-9"
     inkscape:window-maximized="1"
     inkscape:current-layer="layer1" />
  <defs
     id="defs78148">
    <rect
       x="1137.2902"
       y="-5644.5615"
       width="684.88745"
       height="391.66345"
       id="rect141120-5-1" />
  </defs>
  <g
     inkscape:label="Слой 1"
     inkscape:groupmode="layer"
     id="layer1"
     transform="translate(-26.999665,-101.14991)">
    <g
       id="g274189"
       style="display:inline;fill:#ffa500;fill-opacity:1;stroke-width:2.91295"
       transform="matrix(0.34329263,0,0,0.34329263,-168.58166,694.26998)">
      <path
         id="path602561-6"
         style="display:inline;fill:#ffa500;fill-opacity:1;stroke-width:11.0096"
         d="m 2215.2461,-6530.0371 c -3.3272,-5e-4 -6.6637,0.1636 -8.9082,0.4941 -6.6418,0.9786 -13.0144,2.97 -18.8379,5.8848 -6.5387,3.2727 -11.0442,6.5188 -16.1836,11.6582 -5.1394,5.1394 -8.3856,9.645 -11.6582,16.1836 -2.9147,5.8235 -4.9062,12.1981 -5.8848,18.8398 -0.6623,4.489 -0.6578,13.3453 0.01,17.7598 2.2614,14.9983 9.6523,28.5469 20.752,38.043 15.8104,13.5261 36.8829,18.2549 57.2285,12.8437 4.4828,-1.1924 10.6648,-3.8529 14.7285,-6.3398 l 1.7891,-1.0957 10.5312,10.4941 c 11.4117,11.3722 11.8656,11.7403 15.6231,12.5938 v -0.01 c 2.0204,0.4588 4.9678,0.2852 7,-0.4141 6.5708,-2.2609 10.5908,-9.0272 9.2247,-15.5254 -0.8422,-4.0055 -1.1015,-4.3327 -12.6153,-15.8867 l -10.4941,-10.5312 1.0937,-1.7891 c 2.4873,-4.0637 5.1496,-10.2456 6.3418,-14.7285 3.975,-14.9454 2.5223,-30.3808 -4.1445,-44.0332 -8.9471,-18.3213 -26.196,-30.8496 -46.7422,-33.9473 -2.2073,-0.3284 -5.5263,-0.4936 -8.8535,-0.4941 z m 0.066,13.7031 c 8.9388,0.011 17.7659,2.4439 25.3984,7.1778 7.7587,4.812 14.3189,12.1257 17.9786,20.0468 3.2643,7.0655 4.6213,13.1817 4.6289,20.8711 0.013,11.0022 -3.2223,20.5928 -9.9063,29.3711 -7.6324,10.0237 -19.6459,16.9834 -32.0059,18.5391 -15.0807,1.8981 -29.8269,-3.0747 -40.3613,-13.6094 -13.0255,-13.0254 -17.4379,-32.3207 -11.4433,-50.041 4.7317,-13.9877 15.7486,-25.0044 29.7363,-29.7363 5.2091,-1.7622 10.6113,-2.626 15.9746,-2.6192 z"
         transform="scale(0.26458333)" />
      <path
         style="color:#000000;fill:#ffa500;fill-opacity:1;stroke-width:2.91295;stroke-linecap:round;-inkscape-stroke:none"
         d="m 578.85411,-1713.0766 a 1.8,1.8 0 0 0 -1.80078,1.7988 1.8,1.8 0 0 0 1.80078,1.8008 h 14.57422 a 1.8,1.8 0 0 0 1.80078,-1.8008 1.8,1.8 0 0 0 -1.80078,-1.7988 z"
         id="path272778" />
    </g>
  </g>
</svg>
