<?xml version="1.0" encoding="UTF-8" standalone="no"?>
<!-- Created with Inkscape (http://www.inkscape.org/) -->

<svg
   width="306.1048mm"
   height="306.12772mm"
   viewBox="0 0 306.1048 306.12772"
   version="1.1"
   id="svg127978"
   inkscape:version="1.1.1 (3bf5ae0d25, 2021-09-20)"
   sodipodi:docname="Maintenance.svg"
   xmlns:inkscape="http://www.inkscape.org/namespaces/inkscape"
   xmlns:sodipodi="http://sodipodi.sourceforge.net/DTD/sodipodi-0.dtd"
   xmlns="http://www.w3.org/2000/svg"
   xmlns:svg="http://www.w3.org/2000/svg">
  <sodipodi:namedview
     id="namedview127980"
     pagecolor="#ffffff"
     bordercolor="#666666"
     borderopacity="1.0"
     inkscape:pageshadow="2"
     inkscape:pageopacity="0.0"
     inkscape:pagecheckerboard="0"
     inkscape:document-units="mm"
     showgrid="false"
     inkscape:zoom="0.37059484"
     inkscape:cx="1337.0397"
     inkscape:cy="802.76348"
     inkscape:window-width="1920"
     inkscape:window-height="1017"
     inkscape:window-x="-8"
     inkscape:window-y="-8"
     inkscape:window-maximized="1"
     inkscape:current-layer="layer1" />
  <defs
     id="defs127975" />
  <g
     inkscape:label="Слой 1"
     inkscape:groupmode="layer"
     id="layer1"
     transform="translate(148.41178,34.19246)">
    <g
       id="g124005"
       transform="rotate(-45,-200.58225,9.9525066)">
      <g
         id="g123731"
         transform="translate(183.87462,-1.086859e-5)">
        <path
           id="path115849-5"
           style="fill:#cccccc;fill-opacity:1;stroke:#6c92be;stroke-width:10;stroke-miterlimit:4;stroke-dasharray:none;stroke-opacity:1;stop-color:#000000"
           d="m -338.076,129.23759 v 188.19007 a 53.327477,53.327477 0 0 0 -31.61926,48.67039 53.327477,53.327477 0 0 0 53.32751,53.32751 53.327477,53.327477 0 0 0 53.32748,-53.32751 53.327477,53.327477 0 0 0 -31.61977,-48.70503 V 129.23759 Z m 21.70825,210.33392 22.59293,13.26327 v 26.52654 l -22.59293,13.26381 -22.59346,-13.26381 v -26.52654 z" />
        <path
           id="path115849"
           style="fill:#cccccc;fill-opacity:1;stroke:#6c92be;stroke-width:10;stroke-miterlimit:4;stroke-dasharray:none;stroke-opacity:1;stop-color:#000000"
           d="m -285.55052,54.577524 v 27.888219 l -30.81724,24.700277 -30.81672,-24.700277 V 54.609539 a 53.327477,53.327477 0 0 0 -22.51078,43.488314 53.327477,53.327477 0 0 0 53.3275,53.327487 53.327477,53.327477 0 0 0 53.32749,-53.327487 53.327477,53.327477 0 0 0 -22.51025,-43.520329 z" />
      </g>
      <g
         id="g123995">
        <path
           id="rect100207"
           style="fill:#cccccc;stroke:#6c92be;stroke-width:10;stroke-opacity:1;stop-color:#000000"
           d="m 52.26436,224.88669 -68.4298,-17.38911 -16.83004,13.33742 h -124.42901 v 27.66605 h 124.42901 l 16.83004,13.33742 68.4298,-17.38912 z" />
        <rect
           style="fill:#37abc8;fill-opacity:1;stroke:#113358;stroke-width:9.99992;stroke-miterlimit:4;stroke-dasharray:none;stroke-opacity:1;stop-color:#000000"
           id="rect105149"
           width="57.672173"
           height="156.49837"
           x="205.83195"
           y="160.75232"
           rx="35.280346"
           ry="16.096664"
           transform="rotate(90)" />
        <rect
           style="fill:#37abc8;fill-opacity:1;stroke:#113358;stroke-width:10;stroke-miterlimit:4;stroke-dasharray:none;stroke-opacity:1;stop-color:#000000"
           id="rect100579"
           width="102.98603"
           height="41.396343"
           x="183.175"
           y="136.17368"
           rx="11.048336"
           ry="14.077336"
           transform="rotate(90)" />
        <rect
           style="fill:#37abc8;fill-opacity:1;stroke:#113358;stroke-width:10;stroke-miterlimit:4;stroke-dasharray:none;stroke-opacity:1;stop-color:#000000"
           id="rect105357"
           width="4.9433293"
           height="65.628349"
           x="232.19637"
           y="222.34196"
           rx="11.048338"
           ry="14.077341"
           transform="rotate(90)" />
      </g>
    </g>
  </g>
</svg>
