<?xml version="1.0" encoding="UTF-8" standalone="no"?>
<!-- Created with Inkscape (http://www.inkscape.org/) -->

<svg
   width="23.144814mm"
   height="48.333549mm"
   viewBox="0 0 23.144814 48.333549"
   version="1.1"
   id="svg5"
   inkscape:version="1.1.1 (3bf5ae0d25, 2021-09-20)"
   sodipodi:docname="Человек.svg"
   xmlns:inkscape="http://www.inkscape.org/namespaces/inkscape"
   xmlns:sodipodi="http://sodipodi.sourceforge.net/DTD/sodipodi-0.dtd"
   xmlns="http://www.w3.org/2000/svg"
   xmlns:svg="http://www.w3.org/2000/svg">
  <sodipodi:namedview
     id="namedview7"
     pagecolor="#ffffff"
     bordercolor="#666666"
     borderopacity="1.0"
     inkscape:pageshadow="2"
     inkscape:pageopacity="0.0"
     inkscape:pagecheckerboard="0"
     inkscape:document-units="mm"
     showgrid="false"
     inkscape:zoom="2.9647587"
     inkscape:cx="364.44787"
     inkscape:cy="184.33203"
     inkscape:window-width="1920"
     inkscape:window-height="1017"
     inkscape:window-x="-8"
     inkscape:window-y="-8"
     inkscape:window-maximized="1"
     inkscape:current-layer="layer1" />
  <defs
     id="defs2">
    <clipPath
       clipPathUnits="userSpaceOnUse"
       id="clipEmfPath1">
      <path
         d="M 0,0 H 584.88945 V 328.06299 H 0 Z"
         id="path824" />
    </clipPath>
    <pattern
       id="EMFhbasepattern"
       patternUnits="userSpaceOnUse"
       width="6"
       height="6"
       x="0"
       y="0" />
    <clipPath
       clipPathUnits="userSpaceOnUse"
       id="clipEmfPath1-3">
      <path
         d="M 0,0 L 558.64441,0 L 558.64441,304.62992 L 0,304.62992 z"
         id="path9941" />
    </clipPath>
    <pattern
       id="EMFhbasepattern-8"
       patternUnits="userSpaceOnUse"
       width="6"
       height="6"
       x="0"
       y="0" />
  </defs>
  <g
     inkscape:label="Слой 1"
     inkscape:groupmode="layer"
     id="layer1"
     transform="translate(-2.5078663,-104.83901)">
    <g
       id="g7853">
      <circle
         style="fill:#5b83a0;fill-opacity:1;stroke-width:1;stop-color:#000000"
         id="path865"
         cx="14.080273"
         cy="109.28786"
         r="4.4488449" />
      <path
         id="rect3820"
         style="fill:#5b83a0;fill-opacity:1;stroke-width:0.999998;stop-color:#000000"
         d="m 9.0304517,114.75579 c -1.7065119,0 -3.2660409,0.69771 -3.5191649,1.74459 -1.2206441,5.04835 -2.0128288,10.25289 -2.995166,15.37219 -0.04265,0.22225 0.08411,0.43229 0.2847371,0.47077 l 2.8308349,0.54312 c 0.2006309,0.0385 0.3965978,-0.10951 0.4392497,-0.33176 l 2.2546428,-11.74812 v 13.41313 18.95285 h 5.4901037 l -0.03904,-18.95285 c 0,0 0.100038,-0.36654 0.248808,-0.37074 0.154875,-0.004 0.280359,0.37074 0.280359,0.37074 l 0.03904,18.95285 h 5.490104 v -18.95285 -13.41313 l 2.254643,11.74812 c 0.04265,0.22225 0.238619,0.37026 0.439249,0.33176 l 2.830835,-0.54312 c 0.200627,-0.0385 0.327388,-0.24852 0.284738,-0.47077 -0.982337,-5.11931 -1.774522,-10.32384 -2.995167,-15.37219 -0.253124,-1.04688 -1.812653,-1.74459 -3.519164,-1.74459 h -2.50114 -5.097363 z"
         sodipodi:nodetypes="sssccccccccacccccccccssccs" />
    </g>
  </g>
</svg>
