<?xml version="1.0" encoding="UTF-8" standalone="no"?>
<!-- Created with Inkscape (http://www.inkscape.org/) -->

<svg
   width="306.1048mm"
   height="306.12772mm"
   viewBox="0 0 306.1048 306.12772"
   version="1.1"
   id="svg127978"
   inkscape:version="1.1.1 (3bf5ae0d25, 2021-09-20)"
   sodipodi:docname="Monitor.svg"
   xmlns:inkscape="http://www.inkscape.org/namespaces/inkscape"
   xmlns:sodipodi="http://sodipodi.sourceforge.net/DTD/sodipodi-0.dtd"
   xmlns="http://www.w3.org/2000/svg"
   xmlns:svg="http://www.w3.org/2000/svg">
  <sodipodi:namedview
     id="namedview127980"
     pagecolor="#ffffff"
     bordercolor="#666666"
     borderopacity="1.0"
     inkscape:pageshadow="2"
     inkscape:pageopacity="0.0"
     inkscape:pagecheckerboard="true"
     inkscape:document-units="mm"
     showgrid="false"
     inkscape:zoom="0.37059484"
     inkscape:cx="1022.6802"
     inkscape:cy="802.76348"
     inkscape:window-width="1920"
     inkscape:window-height="1017"
     inkscape:window-x="-8"
     inkscape:window-y="-8"
     inkscape:window-maximized="1"
     inkscape:current-layer="layer1" />
  <defs
     id="defs127975" />
  <g
     inkscape:label="Слой 1"
     inkscape:groupmode="layer"
     id="layer1"
     transform="translate(148.41178,34.19246)">
    <g
       id="g127856"
       transform="translate(-361.61133,523.67706)">
      <path
         style="fill:#ffffff;fill-opacity:1;stroke-width:1"
         d="m 355.90475,-365.81229 c -1.0358,-0.60437 -9.63413,-16.26635 -19.10736,-34.80443 -9.47322,-18.53804 -17.49526,-33.70746 -17.82678,-33.7098 -0.33135,-0.002 -3.36624,5.616 -6.74377,12.48513 -3.37758,6.86917 -7.34725,13.44433 -8.82153,14.61153 -2.39522,1.89628 -4.76286,2.12211 -22.24929,2.12211 -19.27818,0 -19.60982,-0.0425 -22.32768,-2.75881 -1.51731,-1.51736 -2.7588,-4.06924 -2.7588,-5.67088 0,-1.60164 1.24149,-4.15357 2.7588,-5.67088 2.67223,-2.67228 3.2639,-2.75885 18.85443,-2.75885 h 16.09563 l 8.96358,-18.1027 c 11.10137,-22.41994 14.6354,-25.72322 21.21655,-19.83097 1.55351,1.39089 10.25954,17.14366 19.34665,35.00613 14.60499,28.70878 16.69235,32.24434 17.98936,30.47057 0.807,-1.1036 10.10508,-19.07957 20.66244,-39.94656 16.46317,-32.54001 19.65663,-38.13111 22.43732,-39.28288 6.53047,-2.70503 8.24248,-0.65212 22.24772,26.67826 l 12.81524,25.00815 h 15.49287 c 13.97182,0 15.78365,0.22854 18.45435,2.3295 3.82583,3.00939 4.06793,8.9157 0.50161,12.23823 -2.27984,2.12402 -3.88904,2.29169 -21.9911,2.29169 -10.75991,0 -20.46643,-0.50046 -21.61362,-1.11439 -1.14523,-0.61295 -6.73234,-10.03116 -12.41571,-20.92939 l -10.33345,-19.81495 -3.33421,6.03689 c -1.83383,3.32027 -10.68769,20.66049 -19.67519,38.53379 -8.98754,17.8733 -17.52309,33.67899 -18.9679,35.1238 -2.75239,2.75239 -6.48812,3.31627 -9.67016,1.45971 z"
         id="path124366" />
      <path
         style="color:#000000;fill:#ffffff;-inkscape-stroke:none"
         d="m 252.74609,-556.125 c -17.57408,0 -32.10156,14.52748 -32.10156,32.10156 v 194.17188 c 0,17.57408 14.52748,32.10156 32.10156,32.10156 h 227.01368 c 17.57408,0 32.0996,-14.52748 32.0996,-32.10156 v -194.17188 c 0,-17.57408 -14.52552,-32.10156 -32.0996,-32.10156 z m 0,24.20117 h 227.01368 c 4.58589,0 7.90039,3.3145 7.90039,7.90039 v 194.17188 c 0,4.58589 -3.3145,7.90039 -7.90039,7.90039 H 252.74609 c -4.58589,0 -7.90039,-3.3145 -7.90039,-7.90039 v -194.17188 c 0,-4.58589 3.3145,-7.90039 7.90039,-7.90039 z"
         id="rect124436" />
      <g
         id="rect127763"
         transform="translate(2.855465)">
        <path
           style="color:#000000;fill:#ffffff;stroke-width:24.2;-inkscape-stroke:none"
           d="m 249.88945,-271.29807 h 227.01498 c 11.08001,0 20.00002,1.27368 20.00002,2.85577 0,1.5821 -8.92001,2.85577 -20.00002,2.85577 H 249.88945 c -11.08001,0 -20.00002,-1.27367 -20.00002,-2.85577 0,-1.58209 8.92001,-2.85577 20.00002,-2.85577 z"
           id="path127847" />
        <path
           style="color:#000000;fill:#ffffff;-inkscape-stroke:none"
           d="m 249.88867,-283.39844 c -6.00364,0 -11.39397,0.31859 -15.86523,0.95703 -2.23564,0.31923 -4.16725,0.65285 -6.44922,1.42579 -1.14099,0.38646 -2.37603,0.79062 -4.22852,2.08984 -1.85249,1.29922 -5.55664,4.60154 -5.55664,10.48437 0,5.88284 3.70415,9.1832 5.55664,10.48243 1.85249,1.29922 3.08753,1.70337 4.22852,2.08984 2.28197,0.77293 4.21358,1.10656 6.44922,1.42578 4.47126,0.63845 9.86159,0.95703 15.86523,0.95703 H 476.9043 c 6.00364,0 11.39396,-0.31858 15.86523,-0.95703 2.23563,-0.31922 4.16725,-0.65285 6.44922,-1.42578 1.14099,-0.38647 2.37603,-0.79062 4.22852,-2.08984 1.85248,-1.29923 5.55664,-4.59959 5.55664,-10.48243 0,-5.88283 -3.70416,-9.18515 -5.55664,-10.48437 -1.85249,-1.29922 -3.08753,-1.70338 -4.22852,-2.08984 -2.28197,-0.77294 -4.21359,-1.10656 -6.44922,-1.42579 -4.47127,-0.63844 -9.86159,-0.95703 -15.86523,-0.95703 z"
           id="path127849" />
      </g>
    </g>
  </g>
</svg>
