<?xml version="1.0" encoding="UTF-8" standalone="no"?>
<!-- Created with Inkscape (http://www.inkscape.org/) -->

<svg
   width="26.682152mm"
   height="15.177901mm"
   viewBox="0 0 26.682152 15.177901"
   version="1.1"
   id="svg68240"
   inkscape:version="1.1.1 (3bf5ae0d25, 2021-09-20)"
   sodipodi:docname="P3T.svg"
   xmlns:inkscape="http://www.inkscape.org/namespaces/inkscape"
   xmlns:sodipodi="http://sodipodi.sourceforge.net/DTD/sodipodi-0.dtd"
   xmlns="http://www.w3.org/2000/svg"
   xmlns:svg="http://www.w3.org/2000/svg">
  <sodipodi:namedview
     id="namedview68242"
     pagecolor="#ffffff"
     bordercolor="#666666"
     borderopacity="1.0"
     inkscape:pageshadow="2"
     inkscape:pageopacity="0.0"
     inkscape:pagecheckerboard="0"
     inkscape:document-units="mm"
     showgrid="false"
     inkscape:zoom="0.74118967"
     inkscape:cx="163.92565"
     inkscape:cy="242.17823"
     inkscape:window-width="1920"
     inkscape:window-height="1017"
     inkscape:window-x="-8"
     inkscape:window-y="-8"
     inkscape:window-maximized="1"
     inkscape:current-layer="layer1" />
  <defs
     id="defs68237" />
  <g
     inkscape:label="Слой 1"
     inkscape:groupmode="layer"
     id="layer1"
     transform="translate(-61.622865,-84.509598)">
    <g
       aria-label="P"
       transform="matrix(5.7443221,0,0,6.9401265,-257.60081,-1070.4192)"
       id="text11829"
       style="font-weight:bold;font-size:2.27425px;line-height:1.25;-inkscape-font-specification:'sans-serif Bold';stroke-width:0.0419043">
      <path
         d="m 57.218829,166.93511 c 0,0.074 -0.01296,0.14658 -0.03887,0.21765 -0.02591,0.0703 -0.06293,0.12956 -0.111047,0.17768 -0.06589,0.0651 -0.139548,0.11436 -0.220985,0.14769 -0.08069,0.0333 -0.181377,0.05 -0.302049,0.05 H 56.13036 l -0.107379,0.53858 h -0.450945 l 0.303693,-1.65349 h 0.680144 c 0.105125,0 0.193592,0.009 0.265403,0.0278 0.07255,0.0178 0.136588,0.0448 0.192112,0.0811 0.06663,0.0437 0.117338,0.0996 0.152135,0.16768 0.03553,0.0681 0.0533,0.14992 0.0533,0.24542 z m -0.440859,0.01 c 0,-0.0467 -0.01259,-0.0866 -0.03776,-0.11993 -0.02517,-0.0341 -0.05442,-0.0578 -0.08773,-0.0711 -0.04442,-0.0177 -0.08773,-0.0274 -0.129925,-0.0289 -0.0422,-0.002 -0.09846,-0.003 -0.168792,-0.003 h -0.08413 l -0.08629,0.49527 v 0 c 0,0 0.340594,-0.004 0.387234,-0.0133 0.04738,-0.009 0.08699,-0.0266 0.11882,-0.0533 0.02739,-0.0237 0.04701,-0.0518 0.05886,-0.0844 0.01259,-0.0333 0.02972,-0.0737 0.02972,-0.12104 z"
         id="path21313"
         sodipodi:nodetypes="ccccsccccscccccscccsccscccss"
         style="fill:#e98d46;fill-opacity:1;stroke-width:0.0419043" />
    </g>
    <g
       id="g52414"
       transform="translate(1.1563245,-72.545845)">
      <path
         id="rect49842"
         style="fill:#4e68bc;fill-opacity:1;stroke-width:0.999998;stop-color:#000000"
         d="m 81.1657,157.05568 -1.773018,11.47527 h 2.628781 l 1.773018,-11.47527 z" />
      <path
         id="rect52219"
         style="fill:#4e68bc;fill-opacity:1;stroke-width:3.77952;stop-color:#000000"
         d="m 285.23242,197.35352 -0.95312,6.15429 h 34.66797 l 0.95507,-6.15429 z"
         transform="matrix(0.26458333,0,0,0.26458333,2.5078663,104.83901)" />
    </g>
    <g
       aria-label="3"
       id="text53232"
       style="font-size:13.9253px;line-height:1.25;font-family:'Arial Rounded MT Bold';-inkscape-font-specification:'Arial Rounded MT Bold, ';fill:#e98d46;stroke-width:0.264583"
       transform="translate(-0.4925841,-71.980131)">
      <path
         d="m 75.004615,165.48011 q 0.625551,0 1.074316,-0.36717 0.455564,-0.36717 0.455564,-1.05392 0,-0.52356 -0.360372,-0.89753 -0.360371,-0.38077 -0.972323,-0.38077 -0.414767,0 -0.686746,0.11559 -0.265179,0.1156 -0.421567,0.30598 -0.156387,0.19039 -0.299176,0.48956 -0.135989,0.29918 -0.25158,0.56436 -0.068,0.14279 -0.244781,0.22438 -0.176786,0.0816 -0.407967,0.0816 -0.271979,0 -0.503161,-0.21758 -0.224382,-0.22438 -0.224382,-0.59155 0,-0.35358 0.210783,-0.74114 0.217583,-0.39437 0.625551,-0.74795 0.414767,-0.35357 1.026719,-0.56435 0.611951,-0.21758 1.366692,-0.21758 0.659548,0 1.203505,0.18358 0.543957,0.17679 0.945125,0.51676 0.401168,0.33997 0.605152,0.78874 0.203984,0.44876 0.203984,0.96552 0,0.67995 -0.299176,1.16951 -0.292377,0.48276 -0.843134,0.94513 0.530358,0.28557 0.89073,0.65274 0.367171,0.36717 0.550756,0.81594 0.183586,0.44196 0.183586,0.95872 0,0.61875 -0.25158,1.19671 -0.244781,0.57795 -0.727543,1.03352 -0.482762,0.44876 -1.149109,0.70714 -0.659548,0.25158 -1.461884,0.25158 -0.815936,0 -1.461885,-0.29238 -0.645949,-0.29237 -1.067515,-0.72754 -0.414768,-0.44196 -0.632351,-0.91113 -0.210783,-0.46916 -0.210783,-0.77513 0,-0.39437 0.25158,-0.63235 0.25838,-0.24479 0.63915,-0.24479 0.190385,0 0.367171,0.1156 0.176786,0.10879 0.231181,0.26517 0.353573,0.94513 0.754741,1.40749 0.407968,0.45557 1.14231,0.45557 0.421566,0 0.809136,-0.20399 0.394368,-0.21078 0.645949,-0.61875 0.258379,-0.40797 0.258379,-0.94512 0,-0.79554 -0.435165,-1.2443 -0.435166,-0.45557 -1.210305,-0.45557 -0.135989,0 -0.421566,0.0272 -0.285578,0.0272 -0.367171,0.0272 -0.373971,0 -0.577955,-0.18359 -0.203984,-0.19038 -0.203984,-0.52356 0,-0.32637 0.244781,-0.52356 0.244781,-0.20398 0.727542,-0.20398 z"
         id="path67881" />
    </g>
  </g>
</svg>
