<?xml version="1.0" encoding="UTF-8" standalone="no"?>
<!-- Created with Inkscape (http://www.inkscape.org/) -->

<svg
   width="9.8129196mm"
   height="9.8151312mm"
   viewBox="0 0 9.8129196 9.8151312"
   version="1.1"
   id="svg56432"
   inkscape:version="1.1.1 (3bf5ae0d25, 2021-09-20)"
   sodipodi:docname="Пиктограмма на кнопку Подключить к паценту.svg"
   xmlns:inkscape="http://www.inkscape.org/namespaces/inkscape"
   xmlns:sodipodi="http://sodipodi.sourceforge.net/DTD/sodipodi-0.dtd"
   xmlns="http://www.w3.org/2000/svg"
   xmlns:svg="http://www.w3.org/2000/svg">
  <sodipodi:namedview
     id="namedview56434"
     pagecolor="#ffffff"
     bordercolor="#666666"
     borderopacity="1.0"
     inkscape:pageshadow="2"
     inkscape:pageopacity="0.0"
     inkscape:pagecheckerboard="0"
     inkscape:document-units="mm"
     showgrid="false"
     inkscape:zoom="0.74118967"
     inkscape:cx="452.65067"
     inkscape:cy="213.8454"
     inkscape:window-width="1920"
     inkscape:window-height="1017"
     inkscape:window-x="-8"
     inkscape:window-y="-8"
     inkscape:window-maximized="1"
     inkscape:current-layer="layer1" />
  <defs
     id="defs56429" />
  <g
     inkscape:label="Слой 1"
     inkscape:groupmode="layer"
     id="layer1"
     transform="translate(14.544681,-92.188589)">
    <path
       style="fill:#b3b3b3;fill-opacity:1;stroke-width:1"
       d="m -14.338951,101.79735 -0.20573,-0.20636 1.04435,-1.0442 1.04434,-1.044211 -0.20115,-0.20178 -0.20114,-0.20176 0.20142,-0.20073 0.20142,-0.20074 0.60832,0.60832 0.60832,0.60832 -0.20141,0.201401 -0.2014,0.20141 -0.20082,-0.20151 -0.20082,-0.201501 -1.04499,1.044851 -1.04499,1.04486 z m 6.73239,-1.961471 c -0.15076,-0.025 -0.35781,-0.13301 -0.46329,-0.24154 -0.0555,-0.0571 -0.22051,-0.31058 -0.43372,-0.66618 l -0.34418,-0.57405 0.1558,-0.0505 c 0.42331,-0.13724 0.75152,-0.39535 0.96969,-0.76258 0.08,-0.13471 0.19237,-0.41686 0.19237,-0.48314 0,-0.0207 0.005,-0.0378 0.0112,-0.0378 0.006,0 0.2670297,0.15308 0.5797997,0.34017 0.63393,0.37923 0.73324,0.45884 0.82987,0.66534 0.11672,0.24943 0.11807,0.51015 0.004,0.7547 -0.0697,0.14936 -0.78166,0.87274 -0.94319,0.95834 -0.17763,0.0941 -0.3725397,0.12808 -0.5581997,0.0972 z m -3.20084,-0.50355 c -0.20727,-0.045 -0.27855,-0.0954 -0.62501,-0.4416 -0.3576,-0.35737 -0.40583,-0.42866 -0.44827,-0.66279 -0.0375,-0.20705 0.0153,-0.45016 0.13548,-0.62325 0.0293,-0.0422 0.22565,-0.24836 0.43639,-0.4582 l 0.38316,-0.38153 0.013,0.094 c 0.0569,0.41134 0.20359,0.7193 0.47686,1.0014 0.27953,0.28856 0.61089,0.45204 1.03533,0.5108 l 0.094,0.013 -0.40071,0.40175 c -0.34663,0.34755 -0.41881,0.4107 -0.53487,0.46799 -0.2048,0.10109 -0.36117,0.12277 -0.56542,0.0784 z m 1.28417,-1.5711 c -0.39574,-0.11741 -0.69356,-0.42702 -0.79513,-0.82662 -0.09,-0.35411 0.0173,-0.77123 0.26825,-1.04224 0.34309,-0.37058 0.86751,-0.47828 1.3223,-0.27156 0.24776,0.11263 0.45391,0.31871 0.56571,0.56554 0.0749,0.16526 0.10187,0.30112 0.0998,0.50213 -0.004,0.41241 -0.23955,0.79287 -0.6114,0.98828 -0.25694,0.13501 -0.57322,0.16646 -0.84956,0.0844 z m 0.53222,-0.89958 0.19611,-0.19679 -0.20637,-0.20572 -0.20636,-0.20574 -0.20059,0.20127 -0.20058,0.20127 0.20057,0.20124 c 0.11031,0.11069 0.20518,0.20126 0.21083,0.20126 0.006,0 0.0985,-0.0886 0.20639,-0.19679 z m 1.49181,-0.41287 c -0.0859,-0.75979 -0.6779,-1.36501 -1.45266,-1.48524 l -0.14979,-0.0232 0.46011,-0.45981 0.4601,-0.4598 0.8097,0.80969 0.8096897,0.8097 -0.46204,0.46204 -0.4620497,0.46205 z m -3.96946,-0.48607 c -0.35623,-0.2136 -0.61006,-0.37885 -0.66714,-0.43433 -0.18244,-0.17729 -0.2819,-0.47747 -0.24253,-0.73194 0.0391,-0.25242 0.10707,-0.34993 0.5491,-0.78733 0.43892,-0.43433 0.49935,-0.47607 0.75181,-0.51937 0.17103,-0.0293 0.33459,-0.004 0.51035,0.0779 0.20649,0.0966 0.28611,0.19594 0.66533,0.82987 0.1871,0.31276 0.34018,0.57367 0.34018,0.57979 0,0.006 -0.017,0.0112 -0.0378,0.0112 -0.0658,0 -0.34803,0.1121 -0.4808,0.19098 -0.37405,0.22222 -0.66367,0.59715 -0.78018,1.01002 l -0.0333,0.11808 z m 5.6716297,-0.41774 c -0.096,-0.0482 -0.27708,-0.22119 -1.18835,-1.13563 -1.2159697,-1.22021 -1.1679797,-1.16069 -1.1542497,-1.43178 0.004,-0.0903 0.0213,-0.17445 0.0441,-0.22206 0.0202,-0.0422 0.14459,-0.18697 0.27643,-0.32179 l 0.23972,-0.24512 1.4238097,1.42371 1.42381,1.42371 -0.22509,0.22604 c -0.27872,0.2799 -0.38246,0.33971 -0.58926,0.33971 -0.11428,0 -0.15684,-0.01 -0.2509,-0.0568 z"
       id="path648068-6-1" />
  </g>
</svg>
