<?xml version="1.0" encoding="UTF-8" standalone="no"?>
<!-- Created with Inkscape (http://www.inkscape.org/) -->

<svg
   width="9.5367546mm"
   height="9.5367546mm"
   viewBox="0 0 9.5367546 9.5367546"
   version="1.1"
   id="svg32152"
   inkscape:version="1.1.1 (3bf5ae0d25, 2021-09-20)"
   sodipodi:docname="Справка.svg"
   xmlns:inkscape="http://www.inkscape.org/namespaces/inkscape"
   xmlns:sodipodi="http://sodipodi.sourceforge.net/DTD/sodipodi-0.dtd"
   xmlns="http://www.w3.org/2000/svg"
   xmlns:svg="http://www.w3.org/2000/svg">
  <sodipodi:namedview
     id="namedview32154"
     pagecolor="#ffffff"
     bordercolor="#666666"
     borderopacity="1.0"
     inkscape:pageshadow="2"
     inkscape:pageopacity="0.0"
     inkscape:pagecheckerboard="0"
     inkscape:document-units="mm"
     showgrid="false"
     inkscape:zoom="1.4823793"
     inkscape:cx="105.57352"
     inkscape:cy="113.66861"
     inkscape:window-width="1920"
     inkscape:window-height="1017"
     inkscape:window-x="-8"
     inkscape:window-y="-8"
     inkscape:window-maximized="1"
     inkscape:current-layer="layer1" />
  <defs
     id="defs32149" />
  <g
     inkscape:label="Слой 1"
     inkscape:groupmode="layer"
     id="layer1"
     transform="translate(0.96969953,-75.779102)">
    <g
       id="g23195"
       transform="matrix(2.7493347,0,0,2.7493347,-65.331018,-136.04256)"
       style="stroke-width:0.363725">
      <path
         style="color:#000000;fill:#646f66;fill-opacity:1;stroke-width:0.363725;stroke-miterlimit:4;stroke-dasharray:none"
         d="m 25.144155,77.044697 c -0.955917,0 -1.734375,0.778459 -1.734375,1.734375 0,0.955917 0.778458,1.734375 1.734375,1.734375 0.955917,0 1.734375,-0.778458 1.734375,-1.734375 0,-0.955916 -0.778458,-1.734375 -1.734375,-1.734375 z m 0,0.300782 c 0.793785,0 1.433594,0.639808 1.433594,1.433593 0,0.793785 -0.639809,1.433594 -1.433594,1.433594 -0.793785,0 -1.433594,-0.639809 -1.433594,-1.433594 0,-0.793785 0.639809,-1.433593 1.433594,-1.433593 z"
         id="path1113-46" />
      <g
         aria-label="?"
         id="text17571"
         style="font-size:2.29588px;line-height:1.25;fill:#646f66;stroke-width:0.0962351"
         transform="translate(-0.0279185,0.1339715)">
        <path
           d="m 25.305458,79.051476 h -0.285864 q -0.0011,-0.06166 -0.0011,-0.07511 0,-0.139009 0.04596,-0.228691 0.04596,-0.08968 0.18385,-0.201787 0.137887,-0.112103 0.164792,-0.146855 0.04148,-0.05493 0.04148,-0.121072 0,-0.09193 -0.07399,-0.156945 -0.07287,-0.06614 -0.197302,-0.06614 -0.119951,0 -0.200666,0.06838 -0.08071,0.06838 -0.110982,0.208512 l -0.289227,-0.03587 q 0.01233,-0.200665 0.170397,-0.340794 0.159187,-0.14013 0.417025,-0.14013 0.271291,0 0.431599,0.142372 0.160308,0.14125 0.160308,0.329584 0,0.104256 -0.05941,0.197302 -0.05829,0.09305 -0.251112,0.253354 -0.09977,0.08296 -0.124435,0.133403 -0.02354,0.05045 -0.0213,0.180487 z m -0.285864,0.423751 v -0.315011 h 0.31501 v 0.315011 z"
           style="font-weight:bold;font-family:Arial;-inkscape-font-specification:'Arial Bold';stroke-width:0.0962351"
           id="path23149" />
      </g>
    </g>
  </g>
</svg>
