<svg width="17" height="16" viewBox="0 0 17 16" fill="none" xmlns="http://www.w3.org/2000/svg">
<path d="M14 5.30005L14.7 6.00005L16.5 4.20004L12.9 0.600052L11.0999 2.40004L11.8 3.10005L11.7 3.20004C11.2 2.80004 10.7 2.60004 10.2 2.40004C9.39998 2.10004 8.59997 1.50004 7.99997 0.700043L7.69998 0.300049L7.39999 0.700043C6.79999 1.50004 5.99998 2.10004 5.19998 2.40004C1.99998 3.60004 0.199957 6.80004 0.799957 10.2C1.29996 13.1 3.49996 15.3 6.29996 15.9C6.79996 16 7.19998 16 7.69998 16C11.6 16 14.7 12.8 14.7 9.00005C14.7 7.80005 14.4 6.60005 13.8 5.60005L14 5.30005ZM7.69998 14.9C7.29998 14.9 6.89997 14.9 6.49997 14.8C4.09997 14.3 2.19996 12.3 1.79996 9.90004C1.29996 7.00004 2.89995 4.30004 5.59995 3.20004C6.39995 2.90004 7.09996 2.40004 7.79996 1.70004C8.49996 2.40004 9.19997 2.90004 9.99997 3.20004C10.4 3.40004 10.9 3.60005 11.3 4.00005L11.9 4.40004L13.3 3.00005L12.5999 2.30005L13 1.90004L15.2 4.10005L14.8 4.50005L14.0999 3.80005L12.7 5.20004L13 5.80005C13.5 6.70005 13.8 7.80005 13.8 8.80005C13.7 12.2 11 14.9 7.69998 14.9Z" fill="#91A196"/>
</svg>
