<svg width="21" height="21" viewBox="0 0 21 21" fill="none" xmlns="http://www.w3.org/2000/svg">
<path d="M9.05039 11.494H9.57857C10.0962 11.494 10.4782 11.4077 10.7247 11.2351C10.9712 11.0626 11.0945 10.7915 11.0945 10.4217C11.0945 10.0555 10.9677 9.79496 10.7142 9.64003C10.4642 9.4851 10.0751 9.40763 9.54688 9.40763H9.05039V11.494ZM9.05039 12.825V15.7881H7.41302V8.06604H9.66308C10.7124 8.06604 11.4888 8.25795 11.9924 8.64176C12.4959 9.02205 12.7477 9.6013 12.7477 10.3795C12.7477 10.8337 12.6227 11.2387 12.3727 11.5943C12.1227 11.9464 11.7688 12.2228 11.311 12.4236C12.473 14.1595 13.2301 15.281 13.5822 15.7881H11.7653L9.92189 12.825H9.05039Z" fill="#36393B"/>
<path d="M10.2 0.300049C4.59998 0.300049 0.0999756 4.80006 0.0999756 10.4001C0.0999756 14.2001 2.29998 17.7001 5.59998 19.4001L3.99997 20.0001L5.29996 20.6001L7.49997 19.7001L6.59998 17.5001L5.29996 16.9001L5.89996 18.4001C2.89996 16.8001 0.999969 13.8001 0.999969 10.4001C0.999969 5.40005 5.09998 1.30005 10.1 1.30005C15.1 1.30005 19.2 5.40005 19.2 10.4001C19.2 14.1001 17 17.4 13.5 18.8L13.9 19.7001C17.7 18.1001 20.2 14.5001 20.2 10.4001C20.2 4.80006 15.7 0.300049 10.2 0.300049Z" fill="#36393B"/>
</svg>
