<?xml version="1.0" encoding="UTF-8" standalone="no"?>
<!-- Created with Inkscape (http://www.inkscape.org/) -->

<svg
   width="48.91544mm"
   height="48.543968mm"
   viewBox="0 0 48.91544 48.543968"
   version="1.1"
   id="svg163137"
   inkscape:version="1.1.1 (3bf5ae0d25, 2021-09-20)"
   sodipodi:docname="Выключение раб.станции.svg"
   xmlns:inkscape="http://www.inkscape.org/namespaces/inkscape"
   xmlns:sodipodi="http://sodipodi.sourceforge.net/DTD/sodipodi-0.dtd"
   xmlns="http://www.w3.org/2000/svg"
   xmlns:svg="http://www.w3.org/2000/svg">
  <sodipodi:namedview
     id="namedview163139"
     pagecolor="#ffffff"
     bordercolor="#666666"
     borderopacity="1.0"
     inkscape:pageshadow="2"
     inkscape:pageopacity="0.0"
     inkscape:pagecheckerboard="0"
     inkscape:document-units="mm"
     showgrid="false"
     inkscape:zoom="0.74118967"
     inkscape:cx="544.39506"
     inkscape:cy="182.8142"
     inkscape:window-width="1920"
     inkscape:window-height="1017"
     inkscape:window-x="-8"
     inkscape:window-y="-8"
     inkscape:window-maximized="1"
     inkscape:current-layer="layer1" />
  <defs
     id="defs163134" />
  <g
     inkscape:label="Слой 1"
     inkscape:groupmode="layer"
     id="layer1"
     transform="translate(38.763089,-100.29739)">
    <g
       id="g162903"
       transform="translate(-677.74451,-40.118858)">
      <rect
         style="fill:#ffffff;fill-opacity:1;stroke:#36393b;stroke-width:0.7;stroke-miterlimit:4;stroke-dasharray:none;stroke-opacity:1;stop-color:#000000"
         id="rect154039-1-3"
         width="48.215439"
         height="47.843967"
         x="639.33142"
         y="140.76625"
         rx="5"
         ry="5" />
      <rect
         style="fill:#769db0;fill-opacity:1;stroke:#36393b;stroke-width:0.7;stroke-miterlimit:4;stroke-dasharray:none;stroke-opacity:1;stop-color:#000000"
         id="rect154039-6"
         width="43.347816"
         height="43.013084"
         x="641.76526"
         y="143.18169"
         rx="5"
         ry="5" />
      <path
         id="rect162179"
         style="fill:#4d4d4d;stroke:#36393b;stroke-width:0.7;stroke-opacity:1;stop-color:#000000"
         d="m 656.32255,176.1153 c -0.0249,0 -0.0488,0.001 -0.0729,0.002 -0.0897,0.003 -0.17301,0.0114 -0.25061,0.0243 -0.33097,0.0498 -0.57754,0.16692 -0.63408,0.31057 -0.0166,0.021 -0.0313,0.042 -0.0424,0.063 -0.71004,1.35073 -1.7235,3.27903 -2.13011,4.05246 -0.40661,0.77343 1.41438,0.99167 1.41438,0.99167 l 6.85541,-0.0341 6.85488,0.0341 c 0,0 1.82046,-0.21824 1.41385,-0.99167 -0.40661,-0.77343 -1.42005,-2.70173 -2.13008,-4.05246 -0.011,-0.0209 -0.025,-0.0417 -0.0414,-0.0625 -0.0561,-0.14394 -0.30316,-0.26123 -0.63457,-0.31109 -0.0776,-0.0129 -0.16148,-0.0213 -0.25114,-0.0243 -0.0241,-8.1e-4 -0.048,-0.002 -0.0729,-0.002 h -0.0295 -10.219 z" />
      <rect
         style="fill:#4d4d4d;fill-opacity:1;stroke:#36393b;stroke-width:0.699998;stroke-miterlimit:4;stroke-dasharray:none;stroke-opacity:1;stop-color:#000000"
         id="rect161987"
         width="2.1757593"
         height="12.887188"
         x="660.37384"
         y="164.3535"
         rx="1.0000007"
         ry="0.40000001" />
      <rect
         style="fill:#769db0;fill-opacity:1;stroke:#36393b;stroke-width:0.7;stroke-miterlimit:4;stroke-dasharray:none;stroke-opacity:1;stop-color:#000000"
         id="rect156775"
         width="28.284868"
         height="22.761789"
         x="647.31927"
         y="148.69841"
         rx="1"
         ry="1" />
      <rect
         style="fill:#e6e6e6;fill-opacity:1;stroke:#36393b;stroke-width:0.3;stroke-miterlimit:4;stroke-dasharray:none;stroke-opacity:1;stop-color:#000000"
         id="rect156775-8"
         width="25.39102"
         height="20.423498"
         x="648.76624"
         y="149.86755"
         rx="0.99999994"
         ry="1" />
      <g
         id="g149246-9-5"
         transform="translate(74.877279,0.72334155)">
        <path
           id="rect141862-8-0-2"
           style="fill:#e6e6e6;fill-opacity:1;stroke:#36393b;stroke-width:0.3;stroke-miterlimit:4;stroke-dasharray:none;stroke-opacity:1;stop-color:#000000"
           d="m 596.57263,167.45104 v 10.54406 l 1.37253,1.15393 v 2.54042 c 0,0.31552 0.22783,0.56947 0.51057,0.56947 0.28273,0 0.51003,-0.25395 0.51003,-0.56947 v -2.54042 l 1.37253,-1.15393 v -10.54406 z" />
        <path
           id="rect141862-5-4-8-3"
           style="fill:#e6e6e6;fill-opacity:1;stroke:#36393b;stroke-width:0.3;stroke-miterlimit:4;stroke-dasharray:none;stroke-opacity:1;stop-color:#000000"
           d="m 601.69896,167.45104 v 10.54405 l 1.37253,1.15394 v 2.54041 c 0,0.31553 0.22783,0.56948 0.51057,0.56948 0.28273,0 0.51003,-0.25395 0.51003,-0.56948 v -2.54041 l 1.37253,-1.15394 v -10.54405 z" />
        <rect
           style="fill:#e6e6e6;fill-opacity:1;stroke:#36393b;stroke-width:0.3;stroke-miterlimit:4;stroke-dasharray:none;stroke-opacity:1;stop-color:#000000"
           id="rect132414-26-2-0"
           width="3.3748701"
           height="2.4926152"
           x="597.01422"
           y="146.26871"
           rx="1.1"
           ry="1" />
        <rect
           style="fill:#e6e6e6;fill-opacity:1;stroke:#36393b;stroke-width:0.3;stroke-miterlimit:4;stroke-dasharray:none;stroke-opacity:1;stop-color:#000000"
           id="rect132414-7-8-3-0"
           width="3.3748701"
           height="2.4926152"
           x="601.59583"
           y="146.26871"
           rx="1.1"
           ry="1" />
        <path
           id="rect136512-1-5-7"
           style="fill:#e6e6e6;fill-opacity:1;stroke:#36393b;stroke-width:0.3;stroke-miterlimit:4;stroke-dasharray:none;stroke-opacity:1;stop-color:#000000"
           d="m 597.54337,147.703 c -1.7335,0 -3.14476,2.23566 -3.26956,5.08962 a 3.5349603,5.5303282 0 0 1 1.48878,4.50773 3.5349603,5.5303282 0 0 1 -1.49757,4.49378 v 5.55005 c 0,0.554 0.49078,0.99994 1.10019,0.99994 H 606.672 c 0.60944,0 1.10019,-0.44594 1.10021,-0.99994 v -5.53093 a 3.5349603,5.5303282 0 0 1 -1.49709,-4.5129 3.5349603,5.5303282 0 0 1 1.48828,-4.50308 c -0.12332,-2.85642 -1.53503,-5.09427 -3.26956,-5.09427 z" />
        <path
           id="path138548-2-2-4"
           style="color:#000000;fill:#36393b;stroke-width:1;-inkscape-stroke:none"
           d="m 597.10135,147.6326 c -0.008,0.076 -0.0167,0.17075 -0.0265,0.29404 -0.0233,0.29301 -0.0513,0.71572 -0.0837,1.24024 -0.0647,1.04903 -0.14394,2.50199 -0.2227,4.12119 -0.15759,3.23841 -0.31398,7.13831 -0.3478,9.78132 l 0.30075,0.004 c 0.0337,-2.63499 0.19032,-6.5331 0.3478,-9.76943 0.0787,-1.61816 0.15817,-3.07207 0.22273,-4.11912 0.0323,-0.52353 0.0607,-0.94437 0.0837,-1.23404 0.0109,-0.13757 0.0198,-0.24472 0.0279,-0.31781 h -0.13539 c -0.003,5.3e-4 -0.0114,0.003 -0.0114,0.003 v -0.003 z" />
        <path
           id="path138548-4-8-5-3"
           style="color:#000000;fill:#36393b;stroke-width:1;-inkscape-stroke:none"
           d="m 604.63472,147.6326 c 0.008,0.0731 0.0175,0.17948 0.0284,0.31781 0.023,0.28968 0.0519,0.71051 0.0842,1.23404 0.0645,1.04705 0.14399,2.50097 0.22273,4.11913 0.15745,3.23632 0.31355,7.13444 0.34726,9.76943 l 0.29922,-0.004 c -0.0338,-2.64301 -0.19024,-6.5429 -0.34779,-9.78131 -0.0788,-1.6192 -0.15804,-3.07217 -0.22273,-4.1212 -0.0323,-0.52452 -0.0609,-0.94722 -0.0842,-1.24023 -0.01,-0.1233 -0.0185,-0.21803 -0.0265,-0.29404 h -0.15346 v 0.003 c 3e-5,0 -0.009,-0.003 -0.0114,-0.003 z" />
        <rect
           style="fill:#e6e6e6;fill-opacity:1;stroke:#36393b;stroke-width:0.3;stroke-miterlimit:4;stroke-dasharray:none;stroke-opacity:1;stop-color:#000000"
           id="rect141500-8-9-1"
           width="6.3886266"
           height="11.715627"
           x="597.82434"
           y="152.00313"
           rx="3.1118524"
           ry="0.43785796" />
        <path
           class="st0"
           d="m 603.75881,163.72536 h -5.4804 c -0.51148,0 -0.94992,0.42325 -0.94992,0.91707 0,0.4938 0.43844,0.91706 0.94992,0.91706 h 5.4804 c 0.5115,0 0.94994,-0.42326 0.94994,-0.91706 0,-0.49382 -0.43844,-0.91707 -0.94994,-0.91707 z m 0,1.48139 h -5.4804 c -0.36536,0 -0.58456,-0.28217 -0.58456,-0.56432 0,-0.35272 0.29228,-0.56437 0.58456,-0.56437 h 5.4804 c 0.36535,0 0.58458,0.28217 0.58458,0.56437 0,0.3527 -0.2923,0.56432 -0.58458,0.56432 z"
           id="path129303-0-0-0-9"
           style="fill:#36393b;stroke-width:0.264583" />
        <g
           id="g136474-3-0-9"
           transform="matrix(1.0093595,0,0,0.9744329,16.785142,51.803523)"
           style="fill:#e6e6e6;fill-opacity:1;stroke-width:1.00832">
          <rect
             style="fill:#e6e6e6;fill-opacity:1;stroke:#36393b;stroke-width:0.302499;stroke-miterlimit:4;stroke-dasharray:none;stroke-opacity:1;stop-color:#000000"
             id="rect132414-2-8-5-0-8"
             width="9.3697681"
             height="4.6381574"
             x="574.13116"
             y="113.46054"
             rx="1.0897999"
             ry="1.0262378" />
          <rect
             style="fill:#e6e6e6;fill-opacity:1;stroke:#36393b;stroke-width:0.302499;stroke-miterlimit:4;stroke-dasharray:none;stroke-opacity:1;stop-color:#000000"
             id="rect132414-2-2-6-5"
             width="7.2873292"
             height="1.8300214"
             x="575.17236"
             y="114.66515"
             rx="1.0897999"
             ry="1.0262378" />
        </g>
        <path
           id="rect132414-2-8-8-2-4-6"
           style="fill:#e6e6e6;fill-opacity:1;stroke:#36393b;stroke-width:0.300003;stroke-miterlimit:4;stroke-dasharray:none;stroke-opacity:1;stop-color:#000000"
           d="m 594.26754,165.70056 v 1.6718 c 0,0.53983 0.49486,0.97437 1.10995,0.97437 h 11.28172 c 0.61513,0 1.11049,-0.43454 1.11049,-0.97437 v -1.6718 h -3.08422 c 0.007,0.0405 0.011,0.0818 0.011,0.12388 0,0.49395 -0.4954,0.89179 -1.11049,0.89179 h -5.13465 c -0.61509,0 -1.11049,-0.39784 -1.11049,-0.89179 0,-0.0422 0.004,-0.0833 0.011,-0.12388 z" />
      </g>
      <g
         id="g153935-9-6"
         transform="translate(61.188399,26.461221)">
        <circle
           style="fill:#ec422d;fill-opacity:1;stroke:none;stroke-width:0.15;stroke-miterlimit:4;stroke-dasharray:none;stroke-opacity:1;stop-color:#000000"
           id="path23241-5-8"
           cx="600.27332"
           cy="133.84134"
           r="4.7687211" />
        <path
           id="path23435-1-4"
           style="color:#000000;fill:#ffffff;stroke-width:1;-inkscape-stroke:none"
           d="m 599.62969,130.71709 c -1.43446,0.29717 -2.51613,1.57041 -2.51613,3.09157 0,1.7408 1.41613,3.15692 3.15692,3.15692 1.7408,0 3.16259,-1.41612 3.16259,-3.15692 0,-1.51972 -1.08266,-2.79282 -2.51616,-3.09157 v 0.56688 c 1.13016,0.28553 1.96349,1.3041 1.96349,2.52469 0,1.44363 -1.1663,2.60994 -2.60992,2.60994 -1.44362,0 -2.60425,-1.16631 -2.60425,-2.60994 0,-1.22216 0.83231,-2.2421 1.96346,-2.52611 z" />
        <path
           style="color:#000000;fill:#ffffff;stroke-width:1;-inkscape-stroke:none"
           d="m 599.99945,129.62591 v 2.81914 h 0.54773 v -2.81914 z"
           id="path24206-0-9" />
      </g>
    </g>
  </g>
</svg>
