<svg width="15" height="78" viewBox="0 0 15 78" fill="none" xmlns="http://www.w3.org/2000/svg">
<g clip-path="url(#clip0_2_2)">
<path d="M11.4405 24.3679H12.6878V19.4888H11.4405V24.3679Z" fill="url(#paint0_linear_2_2)"/>
<path d="M10.9666 15.6139V19.1594C10.9666 19.3415 11.1141 19.4889 11.2961 19.4889H12.8324C13.0142 19.4889 13.1618 19.3415 13.1618 19.1594V15.6139H10.9666Z" fill="url(#paint1_linear_2_2)"/>
<path d="M10.349 13.5923C10.0869 13.5923 9.87424 13.8049 9.87424 14.067V15.6139H14.2542V14.067C14.2542 13.8049 14.0416 13.5923 13.7794 13.5923H10.349Z" fill="url(#paint2_linear_2_2)"/>
<path d="M10.349 7.69633C10.0869 7.69633 9.87424 7.90896 9.87424 8.1711V9.54932H14.2542V8.1711C14.2542 7.90896 14.0416 7.69633 13.7794 7.69633H10.349Z" fill="url(#paint3_linear_2_2)"/>
<path d="M10.5479 7.69635H13.5803V6.02189H10.5479V7.69635Z" fill="url(#paint4_linear_2_2)"/>
<path d="M11.0227 11.5709C10.7605 11.5709 10.5479 11.7833 10.5479 12.0456V13.5923H13.5804V12.0456C13.5804 11.7833 13.3679 11.5709 13.1057 11.5709H11.0227Z" fill="url(#paint5_linear_2_2)"/>
<path d="M11.4413 9.54933C11.1792 9.54933 10.9666 9.76196 10.9666 10.0241V11.571H13.1618V10.0241C13.1618 9.76196 12.9493 9.54933 12.6871 9.54933H11.4413Z" fill="url(#paint6_linear_2_2)"/>
<path d="M11.0738 6.022H13.0547V4.90916H11.0738V6.022Z" fill="url(#paint7_linear_2_2)"/>
<path d="M10.1549 0.988601V4.04432L11.0738 4.90915H13.0547L13.9734 4.04432V0.988601L10.1549 0.988601Z" fill="url(#paint8_linear_2_2)"/>
<path d="M13.8444 0.988615V1.11762V1.44448V3.98853L12.9662 4.81513L12.9255 4.85336V4.90916V5.893H11.2028V4.90916V4.85336L11.1621 4.81513L10.2839 3.98853V1.44448V1.11762V0.988615H10.1549V4.04434L11.0737 4.90916V6.022H13.0547V4.90916L13.9734 4.04434V0.988615H13.8444Z" fill="url(#paint9_linear_2_2)"/>
<path d="M1.85343 63.4101H3.10069L3.10069 58.162H1.85343L1.85343 63.4101Z" fill="url(#paint10_linear_2_2)"/>
<path d="M12.0896 24.0085L2.41635 24.3336C2.12891 24.3432 1.9038 24.584 1.91347 24.8713C1.92291 25.153 2.15475 25.3733 2.43448 25.3729L2.41635 25.374C2.12891 25.3837 1.9038 25.6245 1.91347 25.912C1.92291 26.1936 2.15464 26.414 2.43437 26.4137L2.41635 26.4148C2.12891 26.4244 1.9038 26.6652 1.91347 26.9526C1.92291 27.2343 2.15464 27.4548 2.43437 27.4544L2.41635 27.4554C2.12891 27.4651 1.9038 27.7059 1.91347 27.9934C1.92291 28.2749 2.15464 28.4954 2.43437 28.4952H2.41635C2.12891 28.5049 1.9038 28.7458 1.91347 29.0332C1.92291 29.3148 2.15475 29.5353 2.43448 29.535L2.41635 29.5361C2.12891 29.5457 1.9038 29.7864 1.91347 30.0739C1.92291 30.3555 2.15475 30.576 2.43448 30.5756L2.41635 30.5767C2.12891 30.5863 1.9038 30.8271 1.91347 31.1146C1.92291 31.3963 2.15464 31.6166 2.43437 31.6164L2.41635 31.6175C2.12891 31.627 1.9038 31.8679 1.91347 32.1552C1.92291 32.4369 2.15464 32.6573 2.43437 32.657L2.41635 32.6581C2.12891 32.6678 1.9038 32.9085 1.91347 33.196C1.92291 33.4775 2.15464 33.6981 2.43437 33.6978L2.41635 33.6989C2.12891 33.7085 1.9038 33.9493 1.91347 34.2368C1.92291 34.5185 2.15475 34.7389 2.43448 34.7386L2.41635 34.7397C2.12891 34.7491 1.9038 34.9901 1.91347 35.2775C1.92291 35.5591 2.15475 35.7796 2.43448 35.7792L2.41635 35.7803C2.12891 35.79 1.9038 36.0307 1.91347 36.3182C1.92291 36.5997 2.15464 36.8203 2.43437 36.82L2.41635 36.821C2.12891 36.8307 1.9038 37.0717 1.91347 37.359C1.92291 37.6407 2.15464 37.861 2.43437 37.8608L2.41635 37.8619C2.12891 37.8715 1.9038 38.1123 1.91347 38.3997C1.92291 38.6813 2.15464 38.9017 2.43437 38.9015H2.41635C2.12891 38.9112 1.9038 39.1519 1.91347 39.4395C1.92291 39.7211 2.15475 39.9416 2.43448 39.9412L2.41635 39.9423C2.12891 39.9518 1.9038 40.1928 1.91347 40.4801C1.92291 40.7619 2.15475 40.9822 2.43448 40.9819L2.41635 40.983C2.12891 40.9926 1.9038 41.2334 1.91347 41.5208C1.92291 41.8024 2.15464 42.0228 2.43437 42.0226H2.41635C2.12891 42.0323 1.9038 42.2733 1.91347 42.5606C1.92291 42.8422 2.15464 43.0626 2.43437 43.0623L2.41635 43.0633C2.12891 43.0731 1.9038 43.3139 1.91347 43.6013C1.92291 43.8829 2.15464 44.1033 2.43437 44.103L2.41635 44.1041C2.12891 44.1138 1.9038 44.3545 1.91347 44.6419C1.92291 44.9236 2.15475 45.1442 2.43448 45.1437L2.41635 45.1448C2.12891 45.1544 1.9038 45.3953 1.91347 45.6827C1.92291 45.9642 2.15475 46.1848 2.43448 46.1845H2.41635C2.12891 46.1942 1.9038 46.435 1.91347 46.7224C1.92291 47.004 2.15464 47.2244 2.43437 47.2242L2.41635 47.2253C2.12891 47.235 1.9038 47.4758 1.91347 47.7631C1.92291 48.0448 2.15464 48.2652 2.43437 48.265L2.41635 48.266C2.12891 48.2757 1.9038 48.5165 1.91347 48.804C1.92291 49.0856 2.15464 49.306 2.43437 49.3057H2.41635C2.12891 49.3155 1.9038 49.5562 1.91347 49.8436C1.92291 50.1253 2.15475 50.3458 2.43448 50.3454L2.41635 50.3465C2.12891 50.3561 1.9038 50.5969 1.91347 50.8843C1.92291 51.166 2.15475 51.3865 2.43448 51.3861L2.41635 51.3871C2.12891 51.3968 1.9038 51.6377 1.91347 51.9251C1.92291 52.2067 2.15464 52.4271 2.43437 52.4269H2.41635C2.12891 52.4367 1.9038 52.6775 1.91347 52.9649C1.92291 53.2465 2.15464 53.4669 2.43437 53.4667L2.41635 53.4677C2.12891 53.4774 1.9038 53.7181 1.91347 54.0055C1.92291 54.2872 2.15464 54.5077 2.43437 54.5075H2.41635C2.12891 54.5172 1.9038 54.758 1.91347 55.0454C1.92291 55.3271 2.15464 55.5475 2.43437 55.5472L2.41635 55.5483C2.12891 55.5579 1.9038 55.7987 1.91347 56.0861C1.92291 56.3677 2.15475 56.5883 2.43448 56.5879L2.41635 56.589C2.12891 56.5986 1.9038 56.8393 1.91347 57.1268C1.92291 57.4084 2.15464 57.6289 2.43437 57.6285L2.41635 57.6296C2.12891 57.6392 1.9038 57.8802 1.91347 58.1675C1.92313 58.455 2.16388 58.6802 2.45131 58.6704L12.1244 58.3455C12.4121 58.3357 12.6372 58.0949 12.6275 57.8075C12.618 57.5259 12.3862 57.3055 12.1064 57.3058L12.1244 57.3047C12.4121 57.295 12.6372 57.0543 12.6275 56.7669C12.618 56.4852 12.3862 56.2647 12.1064 56.2651L12.1244 56.2641C12.4121 56.2544 12.6372 56.0135 12.6275 55.7261C12.618 55.4444 12.3861 55.224 12.1063 55.2243L12.1244 55.2232C12.4121 55.2136 12.6372 54.9728 12.6275 54.6855C12.618 54.4038 12.3861 54.1833 12.1063 54.1837L12.1244 54.1826C12.4121 54.1729 12.6372 53.9322 12.6275 53.6447C12.618 53.3632 12.3862 53.1426 12.1064 53.1428H12.1244C12.4121 53.1332 12.6372 52.8922 12.6275 52.6049C12.618 52.3232 12.3862 52.1029 12.1064 52.1031L12.1244 52.102C12.4121 52.0923 12.6372 51.8516 12.6275 51.5643C12.618 51.2826 12.3862 51.0621 12.1064 51.0625L12.1244 51.0614C12.4121 51.0517 12.6372 50.811 12.6275 50.5235C12.618 50.2418 12.3861 50.0213 12.1063 50.0216L12.1244 50.0205C12.4121 50.011 12.6372 49.77 12.6275 49.4827C12.618 49.201 12.3861 48.9806 12.1063 48.9809L12.1244 48.9798C12.4121 48.9701 12.6372 48.7294 12.6275 48.4419C12.618 48.1604 12.3862 47.9398 12.1064 47.9403L12.1244 47.9392C12.4121 47.9295 12.6372 47.6888 12.6275 47.4013C12.618 47.1196 12.3862 46.8992 12.1064 46.8994L12.1244 46.8983C12.4121 46.8888 12.6372 46.6478 12.6275 46.3604C12.618 46.0788 12.3862 45.8584 12.1064 45.8587L12.1244 45.8576C12.4121 45.848 12.6372 45.6072 12.6275 45.3198C12.618 45.0381 12.3861 44.8175 12.1063 44.818L12.1244 44.8169C12.4121 44.8072 12.6372 44.5663 12.6275 44.2789C12.618 43.9973 12.3861 43.7768 12.1063 43.7771L12.1244 43.7761C12.4121 43.7663 12.6372 43.5255 12.6275 43.2381C12.618 42.9565 12.3862 42.7361 12.1064 42.7363L12.1244 42.7352C12.4121 42.7255 12.6372 42.4848 12.6275 42.1974C12.618 41.9157 12.3862 41.6952 12.1064 41.6956L12.1244 41.6945C12.4121 41.6848 12.6372 41.444 12.6275 41.1566C12.618 40.8749 12.3862 40.6545 12.1064 40.6548L12.1244 40.6537C12.4121 40.644 12.6372 40.4032 12.6275 40.1158C12.618 39.8341 12.3861 39.6136 12.1063 39.614L12.1244 39.6129C12.4121 39.6033 12.6372 39.3625 12.6275 39.0752C12.618 38.7935 12.3861 38.5729 12.1063 38.5734L12.1244 38.5723C12.4121 38.5626 12.6372 38.3218 12.6275 38.0343C12.618 37.7528 12.3862 37.5323 12.1064 37.5326L12.1244 37.5315C12.4121 37.5218 12.6372 37.2809 12.6275 36.9936C12.618 36.7119 12.3862 36.4916 12.1064 36.4918L12.1244 36.4907C12.4121 36.4812 12.6372 36.2403 12.6275 35.953C12.618 35.6713 12.3862 35.4507 12.1064 35.4512L12.1244 35.4501C12.4121 35.4403 12.6372 35.1996 12.6275 34.9121C12.618 34.6304 12.3861 34.4101 12.1063 34.4103L12.1244 34.4093C12.4121 34.3997 12.6372 34.1589 12.6275 33.8715C12.618 33.5898 12.3861 33.3693 12.1063 33.3697L12.1244 33.3686C12.4121 33.359 12.6372 33.1182 12.6275 32.8307C12.618 32.5492 12.3862 32.3287 12.1064 32.329L12.1244 32.3279C12.4121 32.3181 12.6372 32.0774 12.6275 31.7899C12.618 31.5083 12.3862 31.2879 12.1064 31.2882L12.1244 31.2871C12.4121 31.2775 12.6372 31.0366 12.6275 30.7493C12.618 30.4676 12.3862 30.2473 12.1064 30.2475L12.1244 30.2465C12.4121 30.2368 12.6372 29.996 12.6275 29.7085C12.618 29.4269 12.3861 29.2064 12.1063 29.2067H12.1244C12.4121 29.1969 12.6372 28.9561 12.6275 28.6687C12.618 28.3871 12.3861 28.1666 12.1063 28.1669L12.1244 28.1658C12.4121 28.1562 12.6372 27.9154 12.6275 27.6281C12.618 27.3464 12.3862 27.1259 12.1064 27.1263L12.1244 27.1252C12.4121 27.1156 12.6372 26.8748 12.6275 26.5873C12.618 26.3057 12.3862 26.0853 12.1064 26.0855L12.1244 26.0844C12.4121 26.0746 12.6372 25.8339 12.6275 25.5465C12.618 25.2649 12.3862 25.0444 12.1064 25.0447L12.1244 25.0437C12.4121 25.034 12.6372 24.7933 12.6275 24.5058C12.618 24.2244 12.3867 24.0026 12.1073 24.0025C12.1014 24.0025 12.0956 24.0025 12.0896 24.0025" fill="url(#paint11_linear_2_2)"/>
<path d="M12.1074 24.0682C12.1023 24.0682 12.0969 24.0683 12.0917 24.0685L2.41853 24.3935C2.2955 24.3976 2.18148 24.4493 2.09732 24.5392C2.01316 24.6292 1.96919 24.7463 1.97342 24.8694C1.97733 24.9924 2.02913 25.1064 2.11915 25.1905C2.20884 25.2746 2.32884 25.3176 2.44926 25.3144L12.1224 24.9893C12.3764 24.9808 12.576 24.7673 12.5676 24.5135C12.5591 24.2649 12.3541 24.0682 12.1074 24.0682ZM2.4333 25.4346C2.28551 25.4346 2.14554 25.3794 2.03705 25.2781C1.9239 25.1722 1.85853 25.0284 1.85343 24.8734C1.84822 24.7184 1.90381 24.5706 2.00969 24.4574C2.11557 24.344 2.25945 24.2788 2.4143 24.2735L12.0875 23.9486C12.4136 23.9339 12.6765 24.1895 12.6875 24.5094C12.6984 24.8294 12.4464 25.0984 12.1266 25.1093L2.4535 25.4342C2.44666 25.4346 2.43982 25.4346 2.4333 25.4346" fill="#1D1D1B"/>
<path d="M12.1072 25.1084C12.1021 25.1084 12.0969 25.1085 12.0917 25.1087L2.41852 25.4338C2.29559 25.438 2.18146 25.4896 2.09731 25.5796C2.01326 25.6695 1.96917 25.7866 1.97341 25.9097C1.98177 26.1636 2.19971 26.3656 2.44925 26.3547L12.1224 26.0297C12.3764 26.0211 12.5761 25.8075 12.5676 25.5537C12.5591 25.305 12.3541 25.1084 12.1072 25.1084ZM2.43383 26.4749C2.12239 26.4749 1.86395 26.2271 1.85341 25.9137C1.8482 25.7587 1.9038 25.6109 2.00967 25.4977C2.11555 25.3843 2.25943 25.3192 2.41439 25.3138L12.0875 24.9887C12.4024 24.9777 12.6765 25.2296 12.6876 25.5496C12.6981 25.8696 12.4464 26.1387 12.1266 26.1497L2.45348 26.4746C2.44686 26.4748 2.44034 26.4749 2.43383 26.4749Z" fill="#1D1D1B"/>
<path d="M12.1072 26.1487C12.102 26.1487 12.0968 26.1488 12.0917 26.149L2.4185 26.474C2.16451 26.4825 1.96492 26.6961 1.97339 26.95C1.98175 27.2037 2.19969 27.4036 2.44923 27.395L12.1224 27.0698C12.2454 27.0657 12.3595 27.0139 12.4437 26.9241C12.5277 26.8342 12.5718 26.7169 12.5676 26.594C12.5591 26.3453 12.3541 26.1487 12.1072 26.1487ZM2.43381 27.5152C2.12237 27.5152 1.86393 27.2674 1.8534 26.954C1.84286 26.634 2.09447 26.3649 2.41437 26.354L12.0875 26.029C12.4024 26.0161 12.6765 26.2701 12.6876 26.5899C12.6927 26.7449 12.6372 26.8927 12.5312 27.006C12.4253 27.1192 12.2814 27.1845 12.1266 27.1897L2.45347 27.5148C2.44684 27.5151 2.44033 27.5152 2.43381 27.5152Z" fill="#1D1D1B"/>
<path d="M12.1074 27.1889C12.1023 27.1889 12.0969 27.1891 12.0917 27.1893L2.41853 27.5143C2.16454 27.5229 1.96495 27.7364 1.97342 27.9901C1.97733 28.1132 2.02912 28.2272 2.11914 28.3112C2.20884 28.3953 2.32883 28.4398 2.44926 28.4351L12.1224 28.1101C12.2454 28.106 12.3595 28.0542 12.4436 27.9644C12.5278 27.8745 12.5717 27.7573 12.5676 27.6343C12.5591 27.3857 12.3541 27.1889 12.1074 27.1889ZM2.4333 28.5555C2.28551 28.5555 2.14553 28.5002 2.03705 28.3989C1.9239 28.293 1.85853 28.1492 1.85342 27.9941C1.84267 27.6742 2.09449 27.4053 2.41429 27.3943L12.0875 27.0694C12.4136 27.0598 12.6765 27.3102 12.6875 27.6302C12.6927 27.7852 12.6372 27.933 12.5312 28.0463C12.4254 28.1595 12.2815 28.2248 12.1266 28.2301L2.45349 28.555C2.44665 28.5553 2.43981 28.5555 2.4333 28.5555" fill="#1D1D1B"/>
<path d="M12.1074 28.2292C12.1023 28.2292 12.0969 28.2294 12.0917 28.2296L2.41853 28.5546C2.2955 28.5587 2.18148 28.6104 2.09732 28.7003C2.01316 28.7902 1.96919 28.9074 1.97342 29.0304C1.98178 29.2842 2.19972 29.4854 2.44926 29.4754L12.1224 29.1504C12.3764 29.1418 12.576 28.9282 12.5676 28.6745C12.5591 28.4258 12.3541 28.2292 12.1074 28.2292ZM2.43374 29.5956C2.12241 29.5956 1.86396 29.3478 1.85343 29.0344C1.84822 28.8795 1.90381 28.7317 2.00969 28.6184C2.11557 28.5051 2.25945 28.4399 2.4143 28.4346L12.0875 28.1097C12.4136 28.0982 12.6765 28.3503 12.6875 28.6703C12.698 28.9904 12.4464 29.2594 12.1266 29.2704L2.4535 29.5953C2.44687 29.5956 2.44036 29.5956 2.43374 29.5956" fill="#1D1D1B"/>
<path d="M12.1072 29.2695C12.1021 29.2695 12.0969 29.2696 12.0918 29.2698L2.41852 29.5949C2.29559 29.599 2.18146 29.6507 2.09731 29.7406C2.01326 29.8305 1.96917 29.9477 1.97341 30.0707C1.98177 30.3245 2.19971 30.5236 2.44925 30.5157L12.1224 30.1906C12.2454 30.1865 12.3595 30.1347 12.4437 30.0449C12.5277 29.955 12.5718 29.8377 12.5676 29.7148C12.5591 29.4661 12.3541 29.2695 12.1072 29.2695ZM2.43383 30.636C2.12239 30.636 1.86395 30.3882 1.85341 30.0748C1.8482 29.9198 1.9038 29.772 2.00967 29.6588C2.11555 29.5454 2.25943 29.4802 2.41439 29.4749L12.0875 29.1498C12.4024 29.1363 12.6765 29.3909 12.6876 29.7107C12.6927 29.8657 12.6372 30.0135 12.5312 30.1268C12.4253 30.24 12.2815 30.3053 12.1266 30.3106L2.45348 30.6356C2.44686 30.6358 2.44034 30.636 2.43383 30.636Z" fill="#1D1D1B"/>
<path d="M12.1072 30.3098C12.102 30.3098 12.0968 30.3099 12.0917 30.3101L2.4185 30.6351C2.16451 30.6437 1.96492 30.8572 1.97339 31.1111C1.98175 31.3648 2.19969 31.5674 2.44923 31.5561L12.1224 31.2309C12.2454 31.2268 12.3595 31.175 12.4437 31.0852C12.5277 30.9953 12.5718 30.878 12.5676 30.7551C12.5591 30.5064 12.3541 30.3098 12.1072 30.3098ZM2.43381 31.6763C2.12237 31.6763 1.86393 31.4285 1.8534 31.1151C1.84286 30.7951 2.09447 30.526 2.41437 30.5151L12.0875 30.1901C12.4024 30.1803 12.6765 30.431 12.6876 30.751C12.6927 30.906 12.6372 31.0538 12.5312 31.1671C12.4253 31.2803 12.2814 31.3456 12.1266 31.3508L2.45347 31.6759C2.44684 31.6762 2.44033 31.6763 2.43381 31.6763Z" fill="#1D1D1B"/>
<path d="M12.1074 31.3501C12.1023 31.3501 12.0969 31.3502 12.0917 31.3504L2.41853 31.6754C2.2955 31.6794 2.18148 31.7312 2.09732 31.8211C2.01316 31.9109 1.96919 32.0282 1.97342 32.1512C1.97733 32.2743 2.02913 32.3883 2.11915 32.4723C2.20884 32.5564 2.32884 32.6008 2.44926 32.5961L12.1224 32.2712C12.2454 32.2671 12.3595 32.2153 12.4436 32.1255C12.5278 32.0356 12.5717 31.9183 12.5676 31.7954C12.5591 31.5467 12.3541 31.3501 12.1074 31.3501ZM2.4333 32.7165C2.28551 32.7165 2.14554 32.6613 2.03705 32.56C1.9239 32.4541 1.85853 32.3103 1.85343 32.1553C1.84822 32.0002 1.90381 31.8525 2.00969 31.7393C2.11557 31.6259 2.25945 31.5607 2.4143 31.5554L12.0875 31.2304C12.4136 31.2187 12.6765 31.4711 12.6875 31.7913C12.6927 31.9463 12.6372 32.0941 12.5312 32.2074C12.4254 32.3206 12.2815 32.3859 12.1266 32.3911L2.4535 32.7161C2.44666 32.7164 2.43982 32.7165 2.4333 32.7165Z" fill="#1D1D1B"/>
<path d="M12.1072 32.3902C12.1021 32.3902 12.0969 32.3904 12.0917 32.3906L2.41852 32.7157C2.29559 32.7198 2.18146 32.7715 2.09731 32.8614C2.01326 32.9513 1.96917 33.0685 1.97341 33.1915C1.98177 33.4453 2.19971 33.6491 2.44925 33.6365L12.1224 33.3115C12.3764 33.3029 12.5761 33.0893 12.5676 32.8356C12.5591 32.5869 12.3541 32.3902 12.1072 32.3902ZM2.43383 33.7567C2.12239 33.7567 1.86395 33.5089 1.85341 33.1955C1.8482 33.0406 1.9038 32.8928 2.00967 32.7795C2.11555 32.6662 2.25943 32.601 2.41439 32.5957L12.0875 32.2706C12.4024 32.2568 12.6765 32.5116 12.6876 32.8314C12.6981 33.1515 12.4464 33.4205 12.1266 33.4315L2.45348 33.7564C2.44686 33.7566 2.44034 33.7567 2.43383 33.7567Z" fill="#1D1D1B"/>
<path d="M12.1072 33.4305C12.1021 33.4305 12.0969 33.4306 12.0918 33.4309L2.41852 33.756C2.29559 33.7601 2.18146 33.8118 2.09731 33.9017C2.01326 33.9916 1.96917 34.1088 1.97341 34.2318C1.98177 34.4856 2.19971 34.6872 2.44925 34.6768L12.1224 34.3517C12.2454 34.3476 12.3595 34.2958 12.4437 34.206C12.5277 34.1161 12.5718 33.9988 12.5676 33.8759C12.5591 33.6272 12.3541 33.4305 12.1072 33.4305ZM2.43383 34.797C2.12239 34.797 1.86395 34.5492 1.85341 34.2358C1.8482 34.0809 1.9038 33.9331 2.00967 33.8198C2.11555 33.7065 2.25943 33.6413 2.41439 33.636L12.0875 33.3109C12.4024 33.3008 12.6765 33.5517 12.6876 33.8717C12.6927 34.0268 12.6372 34.1746 12.5312 34.2878C12.4253 34.4011 12.2815 34.4664 12.1266 34.4717L2.45348 34.7967C2.44686 34.7969 2.44034 34.797 2.43383 34.797Z" fill="#1D1D1B"/>
<path d="M12.1072 34.4709C12.102 34.4709 12.0968 34.471 12.0917 34.4712L2.4185 34.7962C2.16451 34.8048 1.96492 35.0183 1.97339 35.2721C1.9773 35.3952 2.0291 35.5092 2.11912 35.5931C2.20881 35.6773 2.3288 35.7203 2.44923 35.717L12.1224 35.392C12.2454 35.3879 12.3595 35.3361 12.4437 35.2463C12.5277 35.1564 12.5718 35.0391 12.5676 34.9162C12.5591 34.6675 12.3541 34.4709 12.1072 34.4709ZM2.43327 35.8372C2.28548 35.8372 2.14561 35.7821 2.03713 35.6808C1.92398 35.5749 1.8585 35.4311 1.8534 35.2762C1.84286 34.9561 2.09447 34.6871 2.41437 34.6762L12.0875 34.3512C12.4024 34.3389 12.6765 34.592 12.6876 34.9121C12.6927 35.0671 12.6372 35.2149 12.5312 35.3282C12.4253 35.4414 12.2814 35.5067 12.1266 35.512L2.45347 35.8369C2.44663 35.8371 2.43989 35.8372 2.43327 35.8372" fill="#1D1D1B"/>
<path d="M12.1074 35.5111C12.1023 35.5111 12.0969 35.5112 12.0917 35.5115L2.41853 35.8365C2.2955 35.8406 2.18148 35.8923 2.09732 35.9822C2.01316 36.072 1.96919 36.1893 1.97342 36.3123C1.97733 36.4354 2.02913 36.5494 2.11915 36.6334C2.20884 36.7175 2.32884 36.7619 2.44926 36.7572L12.1224 36.4323C12.3764 36.4237 12.576 36.2102 12.5676 35.9565C12.5591 35.7078 12.3541 35.5111 12.1074 35.5111ZM2.4333 36.8775C2.28551 36.8775 2.14554 36.8224 2.03705 36.7211C1.9239 36.6152 1.85853 36.4714 1.85343 36.3163C1.84822 36.1613 1.90381 36.0136 2.00969 35.9003C2.11557 35.787 2.25945 35.7218 2.4143 35.7165L12.0875 35.3915C12.4136 35.3772 12.6765 35.6323 12.6875 35.9523C12.6984 36.2724 12.4464 36.5413 12.1266 36.5522L2.4535 36.8772C2.44666 36.8774 2.43982 36.8775 2.4333 36.8775Z" fill="#1D1D1B"/>
<path d="M12.1072 36.5513C12.1021 36.5513 12.0969 36.5514 12.0917 36.5517L2.41852 36.8768C2.29559 36.8809 2.18146 36.9327 2.09731 37.0225C2.01326 37.1124 1.96917 37.2296 1.97341 37.3526C1.98177 37.6064 2.19971 37.8071 2.44925 37.7976L12.1224 37.4726C12.3764 37.464 12.5761 37.2504 12.5676 36.9967C12.5591 36.748 12.3541 36.5513 12.1072 36.5513ZM2.43383 37.9179C2.12239 37.9179 1.86395 37.67 1.85341 37.3566C1.8482 37.2017 1.9038 37.0539 2.00967 36.9406C2.11555 36.8273 2.25943 36.7621 2.41439 36.7568L12.0875 36.4317C12.4024 36.4212 12.6765 36.6726 12.6876 36.9925C12.6981 37.3125 12.4464 37.5816 12.1266 37.5926L2.45348 37.9175C2.44686 37.9177 2.44034 37.9179 2.43383 37.9179" fill="#1D1D1B"/>
<path d="M12.1072 37.5916C12.102 37.5916 12.0968 37.5917 12.0917 37.592L2.4185 37.917C2.16451 37.9255 1.96492 38.139 1.97339 38.3929C1.98175 38.6467 2.19969 38.8508 2.44923 38.8379L12.1224 38.5128C12.2454 38.5087 12.3595 38.4569 12.4437 38.3671C12.5277 38.2772 12.5718 38.1599 12.5676 38.037C12.5591 37.7883 12.3541 37.5916 12.1072 37.5916ZM2.43381 38.9581C2.12237 38.9581 1.86393 38.7103 1.8534 38.3969C1.84286 38.0769 2.09447 37.8078 2.41437 37.797L12.0875 37.472C12.4024 37.4594 12.6765 37.713 12.6876 38.0328C12.6927 38.1879 12.6372 38.3357 12.5312 38.4489C12.4253 38.5622 12.2814 38.6275 12.1266 38.6328L2.45347 38.9578C2.44684 38.958 2.44033 38.9581 2.43381 38.9581Z" fill="#1D1D1B"/>
<path d="M12.1074 38.6319C12.1023 38.6319 12.0969 38.632 12.0917 38.6323L2.41853 38.9573C2.16454 38.9658 1.96495 39.1792 1.97342 39.4331C1.97733 39.5561 2.02912 39.6702 2.11914 39.7542C2.20884 39.8384 2.32883 39.884 2.44926 39.8781L12.1224 39.5531C12.2454 39.549 12.3595 39.4972 12.4436 39.4074C12.5278 39.3175 12.5717 39.2002 12.5676 39.0773C12.5591 38.8286 12.3541 38.6319 12.1074 38.6319ZM2.4333 39.9983C2.28551 39.9983 2.14553 39.9432 2.03705 39.8418C1.9239 39.736 1.85853 39.5922 1.85342 39.4371C1.84267 39.1172 2.09449 38.8481 2.41429 38.8373L12.0875 38.5123C12.4136 38.4975 12.6765 38.7531 12.6875 39.0731C12.6927 39.2282 12.6372 39.376 12.5312 39.4892C12.4254 39.6025 12.2815 39.6678 12.1266 39.6731L2.45349 39.998C2.44665 39.9982 2.43981 39.9983 2.4333 39.9983" fill="#1D1D1B"/>
<path d="M12.1074 39.6722C12.1023 39.6722 12.0969 39.6724 12.0917 39.6726L2.41853 39.9976C2.2955 40.0017 2.18148 40.0534 2.09732 40.1433C2.01316 40.2331 1.96919 40.3504 1.97342 40.4734C1.98178 40.7272 2.19972 40.927 2.44926 40.9184L12.1224 40.5934C12.3764 40.5848 12.576 40.3712 12.5676 40.1174C12.5591 39.8688 12.3541 39.6722 12.1074 39.6722ZM2.43374 41.0386C2.12241 41.0386 1.86396 40.7908 1.85343 40.4774C1.84822 40.3225 1.90381 40.1747 2.00969 40.0614C2.11557 39.9481 2.25945 39.8829 2.4143 39.8776L12.0875 39.5526C12.4136 39.5415 12.6765 39.7933 12.6875 40.1133C12.698 40.4334 12.4464 40.7024 12.1266 40.7133L2.4535 41.0383C2.44687 41.0385 2.44036 41.0386 2.43374 41.0386" fill="#1D1D1B"/>
<path d="M12.1072 40.7124C12.1021 40.7124 12.0969 40.7125 12.0918 40.7127L2.41852 41.0378C2.29559 41.042 2.18146 41.0938 2.09731 41.1836C2.01326 41.2735 1.96917 41.3908 1.97341 41.5137C1.98177 41.7675 2.19971 41.9707 2.44925 41.9587L12.1224 41.6336C12.2454 41.6294 12.3595 41.5776 12.4437 41.4878C12.5277 41.3979 12.5718 41.2807 12.5676 41.1577C12.5591 40.9091 12.3541 40.7124 12.1072 40.7124ZM2.43383 42.079C2.12239 42.079 1.86395 41.8311 1.85341 41.5177C1.8482 41.3627 1.9038 41.215 2.00967 41.1017C2.11555 40.9883 2.25943 40.9232 2.41439 40.9179L12.0875 40.5927C12.4024 40.5798 12.6765 40.8338 12.6876 41.1536C12.6927 41.3087 12.6372 41.4565 12.5312 41.5697C12.4253 41.683 12.2815 41.7482 12.1266 41.7536L2.45348 42.0786C2.44686 42.0788 2.44034 42.079 2.43383 42.079" fill="#1D1D1B"/>
<path d="M12.1072 41.7527C12.102 41.7527 12.0968 41.7528 12.0917 41.753L2.4185 42.0781C2.16451 42.0866 1.96492 42.3001 1.97339 42.554C1.9773 42.677 2.0291 42.7911 2.11912 42.875C2.20881 42.959 2.3288 43.0035 2.44923 42.9989L12.1224 42.6739C12.2454 42.6698 12.3595 42.618 12.4437 42.5282C12.5277 42.4382 12.5718 42.321 12.5676 42.198C12.5591 41.9494 12.3541 41.7527 12.1072 41.7527ZM2.43327 43.1191C2.28548 43.1191 2.14561 43.0639 2.03713 42.9626C1.92398 42.8568 1.8585 42.713 1.8534 42.558C1.84286 42.238 2.09447 41.9689 2.41437 41.9581L12.0875 41.6331C12.4024 41.6237 12.6765 41.8741 12.6876 42.1939C12.6927 42.349 12.6372 42.4968 12.5312 42.61C12.4253 42.7233 12.2814 42.7886 12.1266 42.7939L2.45347 43.1188C2.44663 43.1191 2.43989 43.1191 2.43327 43.1191" fill="#1D1D1B"/>
<path d="M12.1074 42.793C12.1023 42.793 12.0969 42.7931 12.0917 42.7934L2.41853 43.1184C2.2955 43.1225 2.18148 43.1742 2.09732 43.2641C2.01316 43.354 1.96919 43.4712 1.97342 43.5942C1.97733 43.7172 2.02913 43.8313 2.11915 43.9153C2.20884 43.9995 2.32884 44.0451 2.44926 44.0392L12.1224 43.7142C12.3764 43.7056 12.576 43.4921 12.5676 43.2384C12.5591 42.9897 12.3541 42.793 12.1074 42.793ZM2.4333 44.1594C2.28551 44.1594 2.14554 44.1043 2.03705 44.0029C1.9239 43.8971 1.85853 43.7533 1.85343 43.5982C1.84822 43.4433 1.90381 43.2955 2.00969 43.1822C2.11557 43.0689 2.25945 43.0037 2.4143 42.9984L12.0875 42.6734C12.4136 42.662 12.6765 42.9141 12.6875 43.2342C12.6984 43.5542 12.4464 43.8232 12.1266 43.8342L2.4535 44.1591C2.44666 44.1593 2.43982 44.1594 2.4333 44.1594" fill="#1D1D1B"/>
<path d="M12.1072 43.8332C12.1021 43.8332 12.0969 43.8333 12.0917 43.8335L2.41852 44.1586C2.29559 44.1628 2.18146 44.2146 2.09731 44.3044C2.01326 44.3943 1.96917 44.5116 1.97341 44.6345C1.98177 44.8883 2.19971 45.0907 2.44925 45.0795L12.1224 44.7545C12.3764 44.7459 12.5761 44.5323 12.5676 44.2785C12.5591 44.03 12.3541 43.8332 12.1072 43.8332ZM2.43383 45.1998C2.12239 45.1998 1.86395 44.9519 1.85341 44.6385C1.8482 44.4835 1.9038 44.3357 2.00967 44.2225C2.11555 44.1091 2.25943 44.044 2.41439 44.0386L12.0875 43.7136C12.4024 43.7001 12.6765 43.9546 12.6876 44.2744C12.6981 44.5944 12.4464 44.8636 12.1266 44.8745L2.45348 45.1995C2.44686 45.1996 2.44034 45.1998 2.43383 45.1998Z" fill="#1D1D1B"/>
<path d="M12.1072 44.8735C12.1021 44.8735 12.0968 44.8736 12.0917 44.8738L2.41851 45.1988C2.16452 45.2074 1.96493 45.421 1.9734 45.6748C1.98176 45.9286 2.1997 46.1287 2.44924 46.1198L12.1224 45.7947C12.2454 45.7905 12.3595 45.7388 12.4437 45.6489C12.5277 45.559 12.5718 45.4418 12.5676 45.3188C12.5591 45.0702 12.3541 44.8735 12.1072 44.8735ZM2.43382 46.2401C2.12239 46.2401 1.86394 45.9922 1.85341 45.6788C1.84266 45.3589 2.09448 45.0897 2.41439 45.0788L12.0875 44.7538C12.4024 44.7441 12.6765 44.9948 12.6876 45.3147C12.6927 45.4698 12.6372 45.6176 12.5312 45.7308C12.4253 45.8441 12.2815 45.9093 12.1266 45.9147L2.45348 46.2397C2.44686 46.2399 2.44034 46.2401 2.43382 46.2401" fill="#1D1D1B"/>
<path d="M12.1074 45.9138C12.1023 45.9138 12.0969 45.9139 12.0917 45.9141L2.41853 46.2391C2.16454 46.2477 1.96495 46.4613 1.97342 46.7151C1.97733 46.8381 2.02913 46.9521 2.11915 47.0361C2.20884 47.1201 2.32884 47.1644 2.44926 47.16L12.1224 46.835C12.2454 46.8308 12.3595 46.779 12.4436 46.6892C12.5278 46.5993 12.5717 46.482 12.5676 46.3591C12.5591 46.1104 12.3541 45.9138 12.1074 45.9138ZM2.4333 47.2802C2.28551 47.2802 2.14553 47.225 2.03705 47.1237C1.9239 47.0178 1.85853 46.8741 1.85343 46.7191C1.84289 46.3992 2.0945 46.13 2.4143 46.1191L12.0875 45.7941C12.4136 45.7824 12.6765 46.0349 12.6875 46.355C12.6927 46.5101 12.6372 46.6579 12.5312 46.7711C12.4254 46.8844 12.2815 46.9496 12.1266 46.955L2.4535 47.2799C2.44666 47.2802 2.43982 47.2802 2.4333 47.2802" fill="#1D1D1B"/>
<path d="M12.1074 46.9541C12.1023 46.9541 12.0969 46.9542 12.0917 46.9544L2.41853 47.2794C2.2955 47.2836 2.18148 47.3353 2.09732 47.4252C2.01316 47.5151 1.96919 47.6322 1.97342 47.7553C1.97733 47.8783 2.02913 47.9923 2.11915 48.0764C2.20884 48.1605 2.32884 48.2059 2.44926 48.2003L12.1224 47.8753C12.3764 47.8667 12.576 47.6531 12.5676 47.3993C12.5591 47.1507 12.3541 46.9541 12.1074 46.9541ZM2.4333 48.3205C2.28551 48.3205 2.14554 48.2653 2.03705 48.164C1.9239 48.0581 1.85853 47.9144 1.85343 47.7593C1.84822 47.6043 1.90381 47.4566 2.00969 47.3433C2.11557 47.2299 2.25945 47.1648 2.4143 47.1594L12.0875 46.8344C12.4136 46.8205 12.6765 47.0753 12.6875 47.3952C12.698 47.7152 12.4464 47.9843 12.1266 47.9953L2.4535 48.3202C2.44666 48.3205 2.43982 48.3205 2.4333 48.3205" fill="#1D1D1B"/>
<path d="M12.1072 47.9943C12.1021 47.9943 12.0969 47.9944 12.0917 47.9946L2.41852 48.3197C2.29559 48.3238 2.18146 48.3756 2.09731 48.4654C2.01326 48.5553 1.96917 48.6726 1.97341 48.7955C1.98177 49.0493 2.19971 49.2486 2.44925 49.2406L12.1224 48.9155C12.3764 48.907 12.5761 48.6934 12.5676 48.4396C12.5591 48.191 12.3541 47.9943 12.1072 47.9943ZM2.43383 49.3609C2.12239 49.3609 1.86395 49.113 1.85341 48.7996C1.8482 48.6446 1.9038 48.4968 2.00967 48.3836C2.11555 48.2702 2.25943 48.205 2.41439 48.1997L12.0875 47.8747C12.4024 47.8645 12.6765 48.1156 12.6876 48.4355C12.6981 48.7555 12.4464 49.0247 12.1266 49.0355L2.45348 49.3605C2.44686 49.3607 2.44034 49.3609 2.43383 49.3609Z" fill="#1D1D1B"/>
<path d="M12.1072 49.0346C12.102 49.0346 12.0968 49.0347 12.0917 49.0349L2.4185 49.3599C2.16451 49.3685 1.96492 49.5821 1.97339 49.8359C1.98175 50.0896 2.19969 50.2924 2.44923 50.2809L12.1224 49.9557C12.2454 49.9516 12.3595 49.8998 12.4437 49.81C12.5277 49.7201 12.5718 49.6028 12.5676 49.4799C12.5591 49.2313 12.3541 49.0346 12.1072 49.0346ZM2.43381 50.4012C2.12237 50.4012 1.86393 50.1533 1.8534 49.8399C1.84286 49.52 2.09447 49.2508 2.41437 49.2399L12.0875 48.9149C12.4024 48.9026 12.6765 49.1559 12.6876 49.4758C12.6927 49.6308 12.6372 49.7786 12.5312 49.8919C12.4253 50.0052 12.2814 50.0704 12.1266 50.0757L2.45347 50.4007C2.44684 50.401 2.44033 50.4012 2.43381 50.4012" fill="#1D1D1B"/>
<path d="M12.1074 50.0749C12.1023 50.0749 12.0969 50.075 12.0917 50.0752L2.41853 50.4002C2.16454 50.4088 1.96495 50.6222 1.97342 50.8761C1.97733 50.9991 2.02912 51.1131 2.11914 51.1972C2.20884 51.2812 2.32883 51.3255 2.44926 51.3211L12.1224 50.9961C12.2454 50.9919 12.3595 50.9401 12.4436 50.8503C12.5278 50.7604 12.5717 50.6431 12.5676 50.5202C12.5591 50.2715 12.3541 50.0749 12.1074 50.0749ZM2.4333 51.4413C2.28551 51.4413 2.14553 51.3861 2.03705 51.2848C1.9239 51.1789 1.85853 51.0352 1.85342 50.8801C1.84267 50.5602 2.09449 50.2911 2.41429 50.2802L12.0875 49.9552C12.4136 49.941 12.6765 50.1962 12.6875 50.5161C12.6927 50.6712 12.6372 50.819 12.5312 50.9322C12.4254 51.0455 12.2815 51.1107 12.1266 51.1161L2.45349 51.441C2.44665 51.4413 2.43981 51.4413 2.4333 51.4413" fill="#1D1D1B"/>
<path d="M12.1074 51.1152C12.1023 51.1152 12.0969 51.1153 12.0917 51.1155L2.41853 51.4405C2.2955 51.4446 2.18148 51.4963 2.09732 51.5862C2.01316 51.6762 1.96919 51.7933 1.97342 51.9164C1.98178 52.1701 2.19972 52.3742 2.44926 52.3614L12.1224 52.0363C12.3764 52.0278 12.576 51.8142 12.5676 51.5604C12.5591 51.3117 12.3541 51.1152 12.1074 51.1152ZM2.43374 52.4816C2.12241 52.4816 1.86396 52.2338 1.85343 51.9204C1.84822 51.7654 1.90381 51.6176 2.00969 51.5044C2.11557 51.391 2.25945 51.3258 2.4143 51.3205L12.0875 50.9955C12.4136 50.9849 12.6765 51.2363 12.6875 51.5563C12.698 51.8763 12.4464 52.1454 12.1266 52.1563L2.4535 52.4812C2.44687 52.4816 2.44036 52.4816 2.43374 52.4816" fill="#1D1D1B"/>
<path d="M12.1072 52.1554C12.1021 52.1554 12.0969 52.1555 12.0918 52.1557L2.41852 52.4808C2.29559 52.4849 2.18146 52.5367 2.09731 52.6265C2.01326 52.7164 1.96917 52.8337 1.97341 52.9567C1.98177 53.2104 2.19971 53.4123 2.44925 53.4017L12.1224 53.0765C12.2454 53.0724 12.3595 53.0206 12.4437 52.9308C12.5277 52.8409 12.5718 52.7236 12.5676 52.6007C12.5591 52.3521 12.3541 52.1554 12.1072 52.1554ZM2.43383 53.522C2.12239 53.522 1.86395 53.2741 1.85341 52.9607C1.8482 52.8057 1.9038 52.6579 2.00967 52.5447C2.11555 52.4313 2.25943 52.3661 2.41439 52.3608L12.0875 52.0358C12.4024 52.0231 12.6765 52.2768 12.6876 52.5966C12.6927 52.7516 12.6372 52.8994 12.5312 53.0127C12.4253 53.1259 12.2815 53.1912 12.1266 53.1965L2.45348 53.5216C2.44686 53.5218 2.44034 53.522 2.43383 53.522Z" fill="#1D1D1B"/>
<path d="M12.1072 53.1956C12.102 53.1956 12.0968 53.1958 12.0917 53.196L2.4185 53.521C2.16451 53.5296 1.96492 53.7432 1.97339 53.9969C1.9773 54.12 2.0291 54.234 2.11912 54.3179C2.20881 54.4021 2.3288 54.4476 2.44923 54.4418L12.1224 54.1168C12.2454 54.1127 12.3595 54.0609 12.4437 53.9711C12.5277 53.8812 12.5718 53.7639 12.5676 53.641C12.5591 53.3924 12.3541 53.1956 12.1072 53.1956ZM2.43327 54.562C2.28548 54.562 2.14561 54.5069 2.03713 54.4056C1.92398 54.2997 1.8585 54.1559 1.8534 54.001C1.84286 53.681 2.09447 53.412 2.41437 53.401L12.0875 53.0761C12.4024 53.0614 12.6765 53.3171 12.6876 53.6369C12.6927 53.7919 12.6372 53.9397 12.5312 54.053C12.4253 54.1662 12.2814 54.2315 12.1266 54.2368L2.45347 54.5617C2.44663 54.562 2.43989 54.562 2.43327 54.562" fill="#1D1D1B"/>
<path d="M12.1074 54.236C12.1023 54.236 12.0969 54.2361 12.0917 54.2363L2.41853 54.5613C2.2955 54.5654 2.18148 54.6171 2.09732 54.707C2.01316 54.7969 1.96919 54.9141 1.97342 55.0371C1.97733 55.1602 2.02913 55.2742 2.11915 55.3582C2.20884 55.4423 2.32884 55.4864 2.44926 55.4821L12.1224 55.1571C12.3764 55.1486 12.576 54.9351 12.5676 54.6813C12.5591 54.4326 12.3541 54.236 12.1074 54.236ZM2.4333 55.6024C2.28551 55.6024 2.14554 55.5472 2.03705 55.4459C1.9239 55.34 1.85853 55.1962 1.85343 55.0412C1.84822 54.8862 1.90381 54.7384 2.00969 54.6252C2.11557 54.5118 2.25945 54.4466 2.4143 54.4413L12.0875 54.1163C12.4136 54.1052 12.6765 54.357 12.6875 54.6772C12.6984 54.9972 12.4464 55.2662 12.1266 55.2771L2.4535 55.602C2.44666 55.6024 2.43982 55.6024 2.4333 55.6024" fill="#1D1D1B"/>
<path d="M12.1072 55.2762C12.1021 55.2762 12.0969 55.2763 12.0917 55.2765L2.41852 55.6016C2.29559 55.6057 2.18146 55.6574 2.09731 55.7473C2.01326 55.8373 1.96917 55.9544 1.97341 56.0775C1.98177 56.3312 2.19971 56.5321 2.44925 56.5225L12.1224 56.1974C12.3764 56.1889 12.5761 55.9753 12.5676 55.7215C12.5591 55.4728 12.3541 55.2762 12.1072 55.2762ZM2.43383 56.6427C2.12239 56.6427 1.86395 56.3949 1.85341 56.0815C1.8482 55.9265 1.9038 55.7787 2.00967 55.6655C2.11555 55.5521 2.25943 55.4869 2.41439 55.4816L12.0875 55.1565C12.4024 55.1436 12.6765 55.3976 12.6876 55.7174C12.6981 56.0374 12.4464 56.3065 12.1266 56.3174L2.45348 56.6423C2.44686 56.6426 2.44034 56.6427 2.43383 56.6427Z" fill="#1D1D1B"/>
<path d="M12.1072 56.3164C12.102 56.3164 12.0968 56.3165 12.0917 56.3168L2.4185 56.6418C2.16451 56.6503 1.96492 56.8639 1.97339 57.1177C1.98175 57.3715 2.19969 57.5702 2.44923 57.5627L12.1224 57.2376C12.2454 57.2335 12.3595 57.1817 12.4437 57.0919C12.5277 57.002 12.5718 56.8848 12.5676 56.7618C12.5591 56.5132 12.3541 56.3164 12.1072 56.3164ZM2.43381 57.683C2.12237 57.683 1.86393 57.4351 1.8534 57.1217C1.84286 56.8018 2.09447 56.5327 2.41437 56.5218L12.0875 56.1969C12.4024 56.1874 12.6765 56.4377 12.6876 56.7576C12.6927 56.9127 12.6372 57.0605 12.5312 57.1738C12.4253 57.287 12.2814 57.3523 12.1266 57.3576L2.45347 57.6827C2.44684 57.6829 2.44033 57.683 2.43381 57.683Z" fill="#1D1D1B"/>
<path d="M12.1074 57.3568C12.1023 57.3568 12.0969 57.3569 12.0917 57.3571L2.41853 57.6821C2.16454 57.6907 1.96495 57.9043 1.97342 58.158C1.97733 58.2811 2.02913 58.3951 2.11915 58.479C2.20884 58.5632 2.32884 58.6085 2.44926 58.6029L12.1224 58.2779C12.2454 58.2738 12.3595 58.222 12.4436 58.1322C12.5278 58.0423 12.5717 57.925 12.5676 57.8021C12.5591 57.5535 12.3541 57.3568 12.1074 57.3568ZM2.4333 58.7231C2.28551 58.7231 2.14553 58.668 2.03705 58.5667C1.9239 58.4608 1.85853 58.317 1.85343 58.1621C1.84289 57.8422 2.0945 57.5731 2.4143 57.5621L12.0875 57.2372C12.4136 57.2257 12.6765 57.4778 12.6875 57.798C12.6927 57.953 12.6372 58.1008 12.5312 58.2141C12.4254 58.3273 12.2815 58.3926 12.1266 58.3979L2.4535 58.7228C2.44666 58.7231 2.43982 58.7231 2.4333 58.7231" fill="#1D1D1B"/>
<path d="M1.76155 71.1489H3.22796L3.22796 66.8609H1.76155L1.76155 71.1489Z" fill="url(#paint12_linear_2_2)"/>
<path d="M1.37943 63.41L1.37943 66.7309C1.37943 66.9013 1.527 67.0396 1.70889 67.0396H3.24512C3.42712 67.0396 3.57469 66.9013 3.57469 66.7309L3.57469 63.41H1.37943Z" fill="url(#paint13_linear_2_2)"/>
<path d="M1.02965 63.7776C0.968407 63.7776 0.918781 63.8273 0.918781 63.8884V64.3023C0.918781 64.3635 0.968407 64.4132 1.02965 64.4132H3.92446C3.9856 64.4132 4.03533 64.3635 4.03533 64.3023V63.8884C4.03533 63.8273 3.9856 63.7776 3.92446 63.7776H1.02965Z" fill="url(#paint14_linear_2_2)"/>
<path d="M0.439905 71.1489C0.203286 71.1489 0.0114021 71.3407 0.0114021 71.5776L0.0114021 76.8256C0.0114021 77.0625 0.203286 77.2542 0.439905 77.2542H4.5141C4.75083 77.2542 4.9426 77.0625 4.9426 76.8256L4.9426 71.5776C4.9426 71.3407 4.75083 71.1489 4.5141 71.1489H0.439905Z" fill="url(#paint15_linear_2_2)"/>
<path d="M1.74375 72.2924H3.21026V71.1489H1.74375V72.2924Z" fill="url(#paint16_linear_2_2)"/>
<path d="M1.02683 72.2924L1.02683 76.7872C1.02683 77.0452 1.23598 77.2542 1.49388 77.2542H3.46013C3.71814 77.2542 3.92729 77.0452 3.92729 76.7872L3.92729 72.2924H1.02683Z" fill="url(#paint17_linear_2_2)"/>
</g>
<defs>
<linearGradient id="paint0_linear_2_2" x1="11.4406" y1="21.9285" x2="12.6879" y2="21.9285" gradientUnits="userSpaceOnUse">
<stop stop-color="#282828"/>
<stop offset="0.312849" stop-color="#C8C8C8"/>
<stop offset="0.489586" stop-color="#C8C8C8"/>
<stop offset="0.534022" stop-color="#E6E6E6"/>
<stop offset="0.583869" stop-color="#C8C8C8"/>
<stop offset="0.782123" stop-color="#C8C8C8"/>
<stop offset="0.788979" stop-color="#C8C8C8"/>
<stop offset="1" stop-color="#282828"/>
</linearGradient>
<linearGradient id="paint1_linear_2_2" x1="10.9666" y1="17.5514" x2="13.1619" y2="17.5514" gradientUnits="userSpaceOnUse">
<stop stop-color="#8990D4"/>
<stop offset="0.312849" stop-color="#D1D3FF"/>
<stop offset="0.403033" stop-color="#E6E6E6"/>
<stop offset="0.461397" stop-color="#E6E6E6"/>
<stop offset="0.485664" stop-color="#E6E6E6"/>
<stop offset="0.603352" stop-color="#D1D3FF"/>
<stop offset="0.833257" stop-color="#D1D3FF"/>
<stop offset="0.891061" stop-color="#7679A1"/>
<stop offset="0.912948" stop-color="#8990D4"/>
<stop offset="1" stop-color="#8990D4"/>
</linearGradient>
<linearGradient id="paint2_linear_2_2" x1="9.87427" y1="14.6031" x2="14.2542" y2="14.6031" gradientUnits="userSpaceOnUse">
<stop stop-color="#8990D4"/>
<stop offset="0.312849" stop-color="#D1D3FF"/>
<stop offset="0.403033" stop-color="#E6E6E6"/>
<stop offset="0.461397" stop-color="#E6E6E6"/>
<stop offset="0.485664" stop-color="#E6E6E6"/>
<stop offset="0.603352" stop-color="#D1D3FF"/>
<stop offset="0.833257" stop-color="#D1D3FF"/>
<stop offset="0.891061" stop-color="#7679A1"/>
<stop offset="0.912948" stop-color="#8990D4"/>
<stop offset="1" stop-color="#8990D4"/>
</linearGradient>
<linearGradient id="paint3_linear_2_2" x1="9.87427" y1="8.62283" x2="14.2542" y2="8.62283" gradientUnits="userSpaceOnUse">
<stop stop-color="#8990D4"/>
<stop offset="0.312849" stop-color="#D1D3FF"/>
<stop offset="0.403033" stop-color="#E6E6E6"/>
<stop offset="0.461397" stop-color="#E6E6E6"/>
<stop offset="0.485664" stop-color="#E6E6E6"/>
<stop offset="0.603352" stop-color="#D1D3FF"/>
<stop offset="0.833257" stop-color="#D1D3FF"/>
<stop offset="0.891061" stop-color="#7679A1"/>
<stop offset="0.912948" stop-color="#8990D4"/>
<stop offset="1" stop-color="#8990D4"/>
</linearGradient>
<linearGradient id="paint4_linear_2_2" x1="10.548" y1="6.85915" x2="13.5804" y2="6.85915" gradientUnits="userSpaceOnUse">
<stop stop-color="#8990D4"/>
<stop offset="0.312849" stop-color="#D1D3FF"/>
<stop offset="0.403033" stop-color="#E6E6E6"/>
<stop offset="0.461397" stop-color="#E6E6E6"/>
<stop offset="0.485664" stop-color="#E6E6E6"/>
<stop offset="0.603352" stop-color="#D1D3FF"/>
<stop offset="0.833257" stop-color="#D1D3FF"/>
<stop offset="0.891061" stop-color="#7679A1"/>
<stop offset="0.912948" stop-color="#8990D4"/>
<stop offset="1" stop-color="#8990D4"/>
</linearGradient>
<linearGradient id="paint5_linear_2_2" x1="10.548" y1="12.5816" x2="13.5804" y2="12.5816" gradientUnits="userSpaceOnUse">
<stop stop-color="#8990D4"/>
<stop offset="0.312849" stop-color="#D1D3FF"/>
<stop offset="0.403033" stop-color="#E6E6E6"/>
<stop offset="0.461397" stop-color="#E6E6E6"/>
<stop offset="0.485664" stop-color="#E6E6E6"/>
<stop offset="0.603352" stop-color="#D1D3FF"/>
<stop offset="0.833257" stop-color="#D1D3FF"/>
<stop offset="0.891061" stop-color="#7679A1"/>
<stop offset="0.912948" stop-color="#8990D4"/>
<stop offset="1" stop-color="#8990D4"/>
</linearGradient>
<linearGradient id="paint6_linear_2_2" x1="10.9666" y1="10.5601" x2="13.1619" y2="10.5601" gradientUnits="userSpaceOnUse">
<stop stop-color="#8990D4"/>
<stop offset="0.312849" stop-color="#D1D3FF"/>
<stop offset="0.403033" stop-color="#E6E6E6"/>
<stop offset="0.461397" stop-color="#E6E6E6"/>
<stop offset="0.485664" stop-color="#E6E6E6"/>
<stop offset="0.603352" stop-color="#D1D3FF"/>
<stop offset="0.833257" stop-color="#D1D3FF"/>
<stop offset="0.891061" stop-color="#7679A1"/>
<stop offset="0.912948" stop-color="#8990D4"/>
<stop offset="1" stop-color="#8990D4"/>
</linearGradient>
<linearGradient id="paint7_linear_2_2" x1="11.0738" y1="5.46553" x2="13.0547" y2="5.46553" gradientUnits="userSpaceOnUse">
<stop stop-color="#CED3D9"/>
<stop offset="0.438547" stop-color="white"/>
<stop offset="0.625698" stop-color="#DADFE6"/>
<stop offset="0.748133" stop-color="white"/>
<stop offset="0.796089" stop-color="white"/>
<stop offset="1" stop-color="#CED3D9"/>
</linearGradient>
<linearGradient id="paint8_linear_2_2" x1="10.1549" y1="2.94885" x2="13.9735" y2="2.94885" gradientUnits="userSpaceOnUse">
<stop stop-color="#CED3D9"/>
<stop offset="0.438547" stop-color="white"/>
<stop offset="0.625698" stop-color="#DADFE6"/>
<stop offset="0.748133" stop-color="white"/>
<stop offset="0.796089" stop-color="white"/>
<stop offset="1" stop-color="#CED3D9"/>
</linearGradient>
<linearGradient id="paint9_linear_2_2" x1="10.1549" y1="3.50529" x2="13.9735" y2="3.50529" gradientUnits="userSpaceOnUse">
<stop stop-color="#9DA1A5"/>
<stop offset="0.438547" stop-color="white"/>
<stop offset="0.625698" stop-color="#A9ADB2"/>
<stop offset="0.748133" stop-color="white"/>
<stop offset="0.796089" stop-color="white"/>
<stop offset="1" stop-color="#9DA1A5"/>
</linearGradient>
<linearGradient id="paint10_linear_2_2" x1="1.85341" y1="60.786" x2="3.10067" y2="60.786" gradientUnits="userSpaceOnUse">
<stop stop-color="#282828"/>
<stop offset="0.312849" stop-color="#C8C8C8"/>
<stop offset="0.489586" stop-color="#C8C8C8"/>
<stop offset="0.534022" stop-color="#E6E6E6"/>
<stop offset="0.583869" stop-color="#C8C8C8"/>
<stop offset="0.782123" stop-color="#C8C8C8"/>
<stop offset="0.788979" stop-color="#C8C8C8"/>
<stop offset="1" stop-color="#282828"/>
</linearGradient>
<linearGradient id="paint11_linear_2_2" x1="1.91312" y1="41.3357" x2="12.6278" y2="41.3357" gradientUnits="userSpaceOnUse">
<stop stop-color="#B4B4B9"/>
<stop offset="0.519553" stop-color="white"/>
<stop offset="0.735664" stop-color="white"/>
<stop offset="0.79" stop-color="#C8C8CD"/>
<stop offset="1" stop-color="#222530"/>
</linearGradient>
<linearGradient id="paint12_linear_2_2" x1="1.7615" y1="69.005" x2="3.22794" y2="69.005" gradientUnits="userSpaceOnUse">
<stop stop-color="#8990D4"/>
<stop offset="0.312849" stop-color="#D1D3FF"/>
<stop offset="0.403033" stop-color="#E6E6E6"/>
<stop offset="0.461397" stop-color="#E6E6E6"/>
<stop offset="0.485664" stop-color="#E6E6E6"/>
<stop offset="0.603352" stop-color="#D1D3FF"/>
<stop offset="0.833257" stop-color="#D1D3FF"/>
<stop offset="0.891061" stop-color="#7679A1"/>
<stop offset="0.912948" stop-color="#8990D4"/>
<stop offset="1" stop-color="#8990D4"/>
</linearGradient>
<linearGradient id="paint13_linear_2_2" x1="3.57466" y1="65.2247" x2="1.37941" y2="65.2247" gradientUnits="userSpaceOnUse">
<stop stop-color="#8990D4"/>
<stop offset="0.312849" stop-color="#D1D3FF"/>
<stop offset="0.403033" stop-color="#E6E6E6"/>
<stop offset="0.461397" stop-color="#E6E6E6"/>
<stop offset="0.485664" stop-color="#E6E6E6"/>
<stop offset="0.603352" stop-color="#D1D3FF"/>
<stop offset="0.833257" stop-color="#D1D3FF"/>
<stop offset="0.891061" stop-color="#7679A1"/>
<stop offset="0.912948" stop-color="#8990D4"/>
<stop offset="1" stop-color="#8990D4"/>
</linearGradient>
<linearGradient id="paint14_linear_2_2" x1="4.03528" y1="64.0953" x2="0.918795" y2="64.0953" gradientUnits="userSpaceOnUse">
<stop stop-color="#8990D4"/>
<stop offset="0.312849" stop-color="#D1D3FF"/>
<stop offset="0.403033" stop-color="#E6E6E6"/>
<stop offset="0.461397" stop-color="#E6E6E6"/>
<stop offset="0.485664" stop-color="#E6E6E6"/>
<stop offset="0.603352" stop-color="#D1D3FF"/>
<stop offset="0.833257" stop-color="#D1D3FF"/>
<stop offset="0.891061" stop-color="#7679A1"/>
<stop offset="0.912948" stop-color="#8990D4"/>
<stop offset="1" stop-color="#8990D4"/>
</linearGradient>
<linearGradient id="paint15_linear_2_2" x1="4.94265" y1="74.2016" x2="0.0114139" y2="74.2016" gradientUnits="userSpaceOnUse">
<stop stop-color="#ED93C0"/>
<stop offset="0.312849" stop-color="#FFCBE0"/>
<stop offset="0.403033" stop-color="#F8F6F2"/>
<stop offset="0.461397" stop-color="#F8F6F2"/>
<stop offset="0.485664" stop-color="#F8F6F2"/>
<stop offset="0.603352" stop-color="#FFCBE0"/>
<stop offset="0.63882" stop-color="#FFCBE0"/>
<stop offset="1" stop-color="#CC90AB"/>
</linearGradient>
<linearGradient id="paint16_linear_2_2" x1="3.21025" y1="71.7207" x2="1.74382" y2="71.7207" gradientUnits="userSpaceOnUse">
<stop stop-color="#E78FBD"/>
<stop offset="0.312849" stop-color="#F9C6DC"/>
<stop offset="0.403033" stop-color="#F2F1ED"/>
<stop offset="0.461397" stop-color="#F2F1ED"/>
<stop offset="0.485664" stop-color="#F2F1ED"/>
<stop offset="0.603352" stop-color="#F9C6DC"/>
<stop offset="0.63882" stop-color="#F9C6DC"/>
<stop offset="1" stop-color="#C68CA7"/>
</linearGradient>
<linearGradient id="paint17_linear_2_2" x1="3.92729" y1="74.7733" x2="1.02678" y2="74.7733" gradientUnits="userSpaceOnUse">
<stop stop-color="#E78FBD"/>
<stop offset="0.312849" stop-color="#F9C6DC"/>
<stop offset="0.403033" stop-color="#F2F1ED"/>
<stop offset="0.461397" stop-color="#F2F1ED"/>
<stop offset="0.485664" stop-color="#F2F1ED"/>
<stop offset="0.603352" stop-color="#F9C6DC"/>
<stop offset="0.63882" stop-color="#F9C6DC"/>
<stop offset="1" stop-color="#C68CA7"/>
</linearGradient>
<clipPath id="clip0_2_2">
<rect width="76.2656" height="14.2428" fill="white" transform="translate(0.0114098 77.2542) rotate(-90)"/>
</clipPath>
</defs>
</svg>
