<?xml version="1.0" encoding="UTF-8" standalone="no"?>
<!-- Created with Inkscape (http://www.inkscape.org/) -->

<svg
   width="9.5367546mm"
   height="9.5367546mm"
   viewBox="0 0 9.5367546 9.5367546"
   version="1.1"
   id="svg32152"
   inkscape:version="1.1.1 (3bf5ae0d25, 2021-09-20)"
   sodipodi:docname="Virtual Care.svg"
   xmlns:inkscape="http://www.inkscape.org/namespaces/inkscape"
   xmlns:sodipodi="http://sodipodi.sourceforge.net/DTD/sodipodi-0.dtd"
   xmlns="http://www.w3.org/2000/svg"
   xmlns:svg="http://www.w3.org/2000/svg">
  <sodipodi:namedview
     id="namedview32154"
     pagecolor="#ffffff"
     bordercolor="#666666"
     borderopacity="1.0"
     inkscape:pageshadow="2"
     inkscape:pageopacity="0.0"
     inkscape:pagecheckerboard="0"
     inkscape:document-units="mm"
     showgrid="false"
     inkscape:zoom="1.4823793"
     inkscape:cx="105.57352"
     inkscape:cy="113.66861"
     inkscape:window-width="1920"
     inkscape:window-height="1017"
     inkscape:window-x="-8"
     inkscape:window-y="-8"
     inkscape:window-maximized="1"
     inkscape:current-layer="layer1" />
  <defs
     id="defs32149" />
  <g
     inkscape:label="Слой 1"
     inkscape:groupmode="layer"
     id="layer1"
     transform="translate(0.96969953,-75.779102)">
    <g
       id="g32718"
       transform="translate(66.524388,8.516576)">
      <path
         style="color:#000000;fill:#646f66;fill-opacity:1;stroke-width:1;stroke-miterlimit:4;stroke-dasharray:none"
         d="m -62.72572,67.262526 c -2.62811,0 -4.76837,2.140244 -4.76837,4.768377 0,2.628136 2.14026,4.768378 4.76837,4.768378 2.62815,0 4.76839,-2.140242 4.76839,-4.768378 0,-2.628133 -2.14024,-4.768377 -4.76839,-4.768377 z m 0,0.82695 c 2.18239,0 3.94144,1.759047 3.94144,3.941427 0,2.182381 -1.75905,3.941429 -3.94144,3.941429 -2.18237,0 -3.94142,-1.759048 -3.94142,-3.941429 0,-2.18238 1.75905,-3.941427 3.94142,-3.941427 z"
         id="path1113" />
      <path
         id="path864"
         style="fill:#646f66;fill-opacity:1;stroke-width:1;stroke-miterlimit:4;stroke-dasharray:none"
         d="m -64.11823,69.865612 c -0.1262,0.0058 -0.25295,0.03511 -0.3751,0.08809 h -0.001 c -0.008,0.0041 -0.0193,0.0088 -0.0314,0.01429 -0.0794,0.03934 -0.19877,0.111432 -0.20455,0.125039 -0.001,0.0027 0.17569,0.07498 0.39214,0.160534 l 0.39213,0.156272 0.0454,0.301206 c 0.0247,0.165372 0.0434,0.30168 0.0426,0.304043 -9.4e-4,0.0024 -0.10717,0.08823 -0.23727,0.191794 l -0.23727,0.188962 -0.39782,-0.156272 c -0.31602,-0.124187 -0.39547,-0.153523 -0.39355,-0.139226 0.0165,0.118661 0.0989,0.327087 0.17486,0.433337 0.12757,0.179448 0.28918,0.308746 0.48591,0.386445 0.11306,0.0446 0.2326,0.06733 0.35234,0.07105 l 0.006,-0.0099 a 1.0518105,1.0518105 0 0 0 0.43335,-0.07388 l 1.11387,1.112455 c 0.69277,0.691692 1.2792,1.269959 1.30283,1.285781 0.0454,0.03041 0.11795,0.06222 0.1732,0.0753 0.0555,0.0132 0.17541,0.01129 0.23589,-0.0044 0.16139,-0.0416 0.28924,-0.162183 0.34666,-0.323929 0.0193,-0.05452 0.0247,-0.08139 0.0247,-0.161963 -1.4e-4,-0.105138 -0.0165,-0.1756 -0.0654,-0.260005 -0.0165,-0.02667 -0.48842,-0.505949 -1.30283,-1.321308 l -1.18207,-1.182071 a 1.0518105,1.0518105 0 0 0 0.008,-0.345245 l -0.002,-0.0014 -0.0106,-0.06535 a 1.0518105,1.0518105 0 0 0 -10e-4,-0.0072 c -1.4e-4,-8.49e-4 -0.001,-0.002 -0.001,-0.0027 -0.0165,-0.08264 -0.0767,-0.233226 -0.13225,-0.331031 a 1.0518105,1.0518105 0 0 0 -0.0296,-0.04547 1.0518105,1.0518105 0 0 0 -0.0654,-0.08383 l 10e-4,-0.0014 c -0.21747,-0.256843 -0.53452,-0.392497 -0.85669,-0.377921 z" />
    </g>
  </g>
</svg>
